<mxfile modified="2020-07-22T04:15:10.705Z" host="app.diagrams.net" agent="5.0 (Windows NT 10.0; Win64; x64) AppleWebKit/537.36 (KHTML, like Gecko) Chrome/84.0.4147.89 Safari/537.36" etag="jes66LExQGzbe643EYxv" version="13.4.9" type="github" pages="2">
  <diagram id="l8hXMBHkgcEJcSW0mbfh" name="Page-1">
    <mxGraphModel dx="1102" dy="543" grid="1" gridSize="10" guides="1" tooltips="1" connect="1" arrows="1" fold="1" page="1" pageScale="1" pageWidth="1169" pageHeight="827" math="0" shadow="0">
      <root>
        <mxCell id="0" />
        <mxCell id="1" parent="0" />
        <mxCell id="8--HhbSZYtI3ddgJnD71-25" style="edgeStyle=none;rounded=0;orthogonalLoop=1;jettySize=auto;html=1;sourcePerimeterSpacing=5;endArrow=none;endFill=0;targetPerimeterSpacing=5;" parent="1" source="8--HhbSZYtI3ddgJnD71-2" target="8--HhbSZYtI3ddgJnD71-12" edge="1">
          <mxGeometry relative="1" as="geometry" />
        </mxCell>
        <mxCell id="8--HhbSZYtI3ddgJnD71-24" style="edgeStyle=none;rounded=0;orthogonalLoop=1;jettySize=auto;html=1;sourcePerimeterSpacing=5;endArrow=none;endFill=0;targetPerimeterSpacing=5;" parent="1" source="8--HhbSZYtI3ddgJnD71-5" target="8--HhbSZYtI3ddgJnD71-12" edge="1">
          <mxGeometry relative="1" as="geometry" />
        </mxCell>
        <mxCell id="8--HhbSZYtI3ddgJnD71-26" style="edgeStyle=none;rounded=0;orthogonalLoop=1;jettySize=auto;html=1;sourcePerimeterSpacing=5;endArrow=none;endFill=0;targetPerimeterSpacing=5;" parent="1" source="8--HhbSZYtI3ddgJnD71-11" target="8--HhbSZYtI3ddgJnD71-7" edge="1">
          <mxGeometry relative="1" as="geometry" />
        </mxCell>
        <mxCell id="8--HhbSZYtI3ddgJnD71-27" style="edgeStyle=none;rounded=0;orthogonalLoop=1;jettySize=auto;html=1;sourcePerimeterSpacing=5;endArrow=none;endFill=0;targetPerimeterSpacing=5;" parent="1" source="8--HhbSZYtI3ddgJnD71-11" target="8--HhbSZYtI3ddgJnD71-3" edge="1">
          <mxGeometry relative="1" as="geometry" />
        </mxCell>
        <mxCell id="8--HhbSZYtI3ddgJnD71-28" style="edgeStyle=none;rounded=0;orthogonalLoop=1;jettySize=auto;html=1;sourcePerimeterSpacing=5;endArrow=none;endFill=0;targetPerimeterSpacing=5;" parent="1" source="8--HhbSZYtI3ddgJnD71-11" target="8--HhbSZYtI3ddgJnD71-13" edge="1">
          <mxGeometry relative="1" as="geometry" />
        </mxCell>
        <mxCell id="8--HhbSZYtI3ddgJnD71-29" style="edgeStyle=none;rounded=0;orthogonalLoop=1;jettySize=auto;html=1;sourcePerimeterSpacing=5;endArrow=none;endFill=0;targetPerimeterSpacing=5;" parent="1" source="8--HhbSZYtI3ddgJnD71-11" target="8--HhbSZYtI3ddgJnD71-6" edge="1">
          <mxGeometry relative="1" as="geometry" />
        </mxCell>
        <mxCell id="8--HhbSZYtI3ddgJnD71-30" style="edgeStyle=none;rounded=0;orthogonalLoop=1;jettySize=auto;html=1;sourcePerimeterSpacing=5;endArrow=none;endFill=0;targetPerimeterSpacing=5;" parent="1" source="8--HhbSZYtI3ddgJnD71-11" target="8--HhbSZYtI3ddgJnD71-4" edge="1">
          <mxGeometry relative="1" as="geometry" />
        </mxCell>
        <mxCell id="8--HhbSZYtI3ddgJnD71-31" style="edgeStyle=none;rounded=0;orthogonalLoop=1;jettySize=auto;html=1;sourcePerimeterSpacing=5;endArrow=none;endFill=0;targetPerimeterSpacing=5;" parent="1" source="8--HhbSZYtI3ddgJnD71-11" target="8--HhbSZYtI3ddgJnD71-19" edge="1">
          <mxGeometry relative="1" as="geometry" />
        </mxCell>
        <mxCell id="8--HhbSZYtI3ddgJnD71-21" style="edgeStyle=none;rounded=0;orthogonalLoop=1;jettySize=auto;html=1;sourcePerimeterSpacing=5;endArrow=none;endFill=0;targetPerimeterSpacing=5;" parent="1" source="8--HhbSZYtI3ddgJnD71-12" target="8--HhbSZYtI3ddgJnD71-11" edge="1">
          <mxGeometry relative="1" as="geometry" />
        </mxCell>
        <mxCell id="8--HhbSZYtI3ddgJnD71-23" style="edgeStyle=none;rounded=0;orthogonalLoop=1;jettySize=auto;html=1;sourcePerimeterSpacing=5;endArrow=none;endFill=0;targetPerimeterSpacing=5;" parent="1" source="8--HhbSZYtI3ddgJnD71-16" target="8--HhbSZYtI3ddgJnD71-12" edge="1">
          <mxGeometry relative="1" as="geometry" />
        </mxCell>
        <mxCell id="8--HhbSZYtI3ddgJnD71-20" style="rounded=0;orthogonalLoop=1;jettySize=auto;html=1;endArrow=none;endFill=0;sourcePerimeterSpacing=5;targetPerimeterSpacing=5;" parent="1" source="8--HhbSZYtI3ddgJnD71-17" target="8--HhbSZYtI3ddgJnD71-12" edge="1">
          <mxGeometry relative="1" as="geometry" />
        </mxCell>
        <mxCell id="8--HhbSZYtI3ddgJnD71-22" style="edgeStyle=none;rounded=0;orthogonalLoop=1;jettySize=auto;html=1;sourcePerimeterSpacing=5;endArrow=none;endFill=0;targetPerimeterSpacing=5;" parent="1" source="8--HhbSZYtI3ddgJnD71-18" target="8--HhbSZYtI3ddgJnD71-12" edge="1">
          <mxGeometry relative="1" as="geometry" />
        </mxCell>
        <mxCell id="8--HhbSZYtI3ddgJnD71-32" style="edgeStyle=none;rounded=0;orthogonalLoop=1;jettySize=auto;html=1;sourcePerimeterSpacing=5;endArrow=none;endFill=0;targetPerimeterSpacing=5;" parent="1" source="8--HhbSZYtI3ddgJnD71-19" target="8--HhbSZYtI3ddgJnD71-9" edge="1">
          <mxGeometry relative="1" as="geometry" />
        </mxCell>
        <mxCell id="8--HhbSZYtI3ddgJnD71-33" style="edgeStyle=none;rounded=0;orthogonalLoop=1;jettySize=auto;html=1;sourcePerimeterSpacing=5;endArrow=none;endFill=0;targetPerimeterSpacing=5;" parent="1" source="8--HhbSZYtI3ddgJnD71-19" target="8--HhbSZYtI3ddgJnD71-8" edge="1">
          <mxGeometry relative="1" as="geometry" />
        </mxCell>
        <mxCell id="8--HhbSZYtI3ddgJnD71-34" style="edgeStyle=none;rounded=0;orthogonalLoop=1;jettySize=auto;html=1;sourcePerimeterSpacing=5;endArrow=none;endFill=0;targetPerimeterSpacing=5;" parent="1" source="8--HhbSZYtI3ddgJnD71-19" target="8--HhbSZYtI3ddgJnD71-15" edge="1">
          <mxGeometry relative="1" as="geometry" />
        </mxCell>
        <mxCell id="8--HhbSZYtI3ddgJnD71-35" style="edgeStyle=none;rounded=0;orthogonalLoop=1;jettySize=auto;html=1;sourcePerimeterSpacing=5;endArrow=none;endFill=0;targetPerimeterSpacing=5;" parent="1" source="8--HhbSZYtI3ddgJnD71-19" target="8--HhbSZYtI3ddgJnD71-14" edge="1">
          <mxGeometry relative="1" as="geometry" />
        </mxCell>
        <mxCell id="8--HhbSZYtI3ddgJnD71-36" style="edgeStyle=none;rounded=0;orthogonalLoop=1;jettySize=auto;html=1;sourcePerimeterSpacing=5;endArrow=none;endFill=0;targetPerimeterSpacing=5;" parent="1" source="8--HhbSZYtI3ddgJnD71-19" target="8--HhbSZYtI3ddgJnD71-1" edge="1">
          <mxGeometry relative="1" as="geometry" />
        </mxCell>
        <mxCell id="8--HhbSZYtI3ddgJnD71-37" style="edgeStyle=none;rounded=0;orthogonalLoop=1;jettySize=auto;html=1;sourcePerimeterSpacing=5;endArrow=none;endFill=0;targetPerimeterSpacing=5;" parent="1" source="8--HhbSZYtI3ddgJnD71-19" target="8--HhbSZYtI3ddgJnD71-10" edge="1">
          <mxGeometry relative="1" as="geometry" />
        </mxCell>
        <mxCell id="8--HhbSZYtI3ddgJnD71-1" value="Tape&#xa;Storage" style="shape=image;verticalLabelPosition=bottom;verticalAlign=top;imageAspect=0;aspect=fixed;image=data:image/svg+xml,PHN2ZyB4bWxucz0iaHR0cDovL3d3dy53My5vcmcvMjAwMC9zdmciIHZlcnNpb249IjEiIHZpZXdCb3g9IjAgMCA0OCA0OCIgZW5hYmxlLWJhY2tncm91bmQ9Im5ldyAwIDAgNDggNDgiPiYjeGE7ICAgIDxwYXRoIGZpbGw9IiM0Q0FGNTAiIGQ9Ik00OCwyNGMwLTYuMS00LjktMTEtMTEtMTFzLTExLDQuOS0xMSwxMWMwLDIuNywwLjksNS4xLDIuNSw3aC05YzEuNi0xLjksMi41LTQuMywyLjUtN2MwLTYuMS00LjktMTEtMTEtMTEgUzAsMTcuOSwwLDI0czQuOSwxMSwxMSwxMWgyN3YtMC4xQzQzLjYsMzQuNCw0OCwyOS43LDQ4LDI0eiBNNCwyNGMwLTMuOSwzLjEtNyw3LTdzNywzLjEsNyw3cy0zLjEsNy03LDdTNCwyNy45LDQsMjR6IE0zNywzMSBjLTMuOSwwLTctMy4xLTctN3MzLjEtNyw3LTdjMy45LDAsNywzLjEsNyw3UzQwLjksMzEsMzcsMzF6Ii8+JiN4YTs8L3N2Zz4=;labelBackgroundColor=#ffffff;" parent="1" vertex="1">
          <mxGeometry x="710" y="508" width="48" height="48" as="geometry" />
        </mxCell>
        <mxCell id="8--HhbSZYtI3ddgJnD71-2" value="Mobile" style="shape=image;verticalLabelPosition=bottom;verticalAlign=top;imageAspect=0;aspect=fixed;image=data:image/svg+xml,PHN2ZyB4bWxucz0iaHR0cDovL3d3dy53My5vcmcvMjAwMC9zdmciIHZlcnNpb249IjEiIHZpZXdCb3g9IjAgMCA0OCA0OCIgZW5hYmxlLWJhY2tncm91bmQ9Im5ldyAwIDAgNDggNDgiPiYjeGE7ICAgIDxwYXRoIGZpbGw9IiMzNzQ3NEYiIGQ9Ik00LDM5VjdjMC0yLjIsMS44LTQsNC00aDIyYzIuMiwwLDQsMS44LDQsNHYzMmMwLDIuMi0xLjgsNC00LDRIOEM1LjgsNDMsNCw0MS4yLDQsMzl6Ii8+JiN4YTsgICAgPHBhdGggZmlsbD0iI0JCREVGQiIgZD0iTTMwLDZIOEM3LjQsNiw3LDYuNCw3LDd2MjljMCwwLjYsMC40LDEsMSwxaDIyYzAuNiwwLDEtMC40LDEtMVY3QzMxLDYuNCwzMC42LDYsMzAsNnoiLz4mI3hhOyAgICA8cmVjdCB4PSIxNSIgeT0iMzkiIGZpbGw9IiM3ODkwOUMiIHdpZHRoPSI2IiBoZWlnaHQ9IjIiLz4mI3hhOyAgICA8cGF0aCBmaWxsPSIjRTM4OTM5IiBkPSJNMjQsNDFWMTdjMC0yLjIsMS44LTQsNC00aDEyYzIuMiwwLDQsMS44LDQsNHYyNGMwLDIuMi0xLjgsNC00LDRIMjhDMjUuOCw0NSwyNCw0My4yLDI0LDQxeiIvPiYjeGE7ICAgIDxwYXRoIGZpbGw9IiNGRkYzRTAiIGQ9Ik00MCwxNkgyOGMtMC42LDAtMSwwLjQtMSwxdjIyYzAsMC42LDAuNCwxLDEsMWgxMmMwLjYsMCwxLTAuNCwxLTFWMTdDNDEsMTYuNCw0MC42LDE2LDQwLDE2eiIvPiYjeGE7ICAgIDxjaXJjbGUgZmlsbD0iI0E2NjQyQSIgY3g9IjM0IiBjeT0iNDIuNSIgcj0iMS41Ii8+JiN4YTs8L3N2Zz4=;labelBackgroundColor=#ffffff;" parent="1" vertex="1">
          <mxGeometry x="202" y="282" width="48" height="48" as="geometry" />
        </mxCell>
        <mxCell id="8--HhbSZYtI3ddgJnD71-3" value="Chat" style="shape=image;verticalLabelPosition=bottom;verticalAlign=top;imageAspect=0;aspect=fixed;image=data:image/svg+xml,PHN2ZyB4bWxucz0iaHR0cDovL3d3dy53My5vcmcvMjAwMC9zdmciIHZlcnNpb249IjEiIHZpZXdCb3g9IjAgMCA0OCA0OCIgZW5hYmxlLWJhY2tncm91bmQ9Im5ldyAwIDAgNDggNDgiPiYjeGE7ICAgIDxwYXRoIGZpbGw9IiMwMDk2ODgiIGQ9Ik0zNywzOUgxMWwtNiw2VjExYzAtMy4zLDIuNy02LDYtNmgyNmMzLjMsMCw2LDIuNyw2LDZ2MjJDNDMsMzYuMyw0MC4zLDM5LDM3LDM5eiIvPiYjeGE7ICAgIDxnIGZpbGw9IiNmZmYiPiYjeGE7ICAgICAgICA8Y2lyY2xlIGN4PSIyNCIgY3k9IjIyIiByPSIzIi8+JiN4YTsgICAgICAgIDxjaXJjbGUgY3g9IjM0IiBjeT0iMjIiIHI9IjMiLz4mI3hhOyAgICAgICAgPGNpcmNsZSBjeD0iMTQiIGN5PSIyMiIgcj0iMyIvPiYjeGE7ICAgIDwvZz4mI3hhOzwvc3ZnPg==;labelBackgroundColor=#ffffff;" parent="1" vertex="1">
          <mxGeometry x="684" y="76" width="48" height="48" as="geometry" />
        </mxCell>
        <mxCell id="8--HhbSZYtI3ddgJnD71-4" value="Customer Support" style="shape=image;verticalLabelPosition=bottom;verticalAlign=top;imageAspect=0;aspect=fixed;image=data:image/svg+xml,PHN2ZyB4bWxucz0iaHR0cDovL3d3dy53My5vcmcvMjAwMC9zdmciIHZlcnNpb249IjEiIHZpZXdCb3g9IjAgMCA0OCA0OCIgZW5hYmxlLWJhY2tncm91bmQ9Im5ldyAwIDAgNDggNDgiPiYjeGE7ICAgIDxyZWN0IHg9IjEzIiB5PSIzMCIgZmlsbD0iI0JGMzYwQyIgd2lkdGg9IjIyIiBoZWlnaHQ9IjEyIi8+JiN4YTsgICAgPGcgZmlsbD0iI0ZGQTcyNiI+JiN4YTsgICAgICAgIDxjaXJjbGUgY3g9IjEwIiBjeT0iMjYiIHI9IjQiLz4mI3hhOyAgICAgICAgPGNpcmNsZSBjeD0iMzgiIGN5PSIyNiIgcj0iNCIvPiYjeGE7ICAgIDwvZz4mI3hhOyAgICA8cGF0aCBmaWxsPSIjRkZCNzREIiBkPSJNMzksMTljMC0xMi43LTMwLTguMy0zMCwwYzAsMS44LDAsOC4yLDAsMTBjMCw4LjMsNi43LDE1LDE1LDE1czE1LTYuNywxNS0xNUMzOSwyNy4yLDM5LDIwLjgsMzksMTl6Ii8+JiN4YTsgICAgPGcgZmlsbD0iIzc4NDcxOSI+JiN4YTsgICAgICAgIDxjaXJjbGUgY3g9IjMwIiBjeT0iMjYiIHI9IjIiLz4mI3hhOyAgICAgICAgPGNpcmNsZSBjeD0iMTgiIGN5PSIyNiIgcj0iMiIvPiYjeGE7ICAgIDwvZz4mI3hhOyAgICA8cGF0aCBmaWxsPSIjRkY1NzIyIiBkPSJNMjQsMkMxNS41LDIsMyw3LjgsMywzNS42TDEzLDQyVjI0bDE2LjgtOS44TDM1LDIxdjIxbDEwLTguMmMwLTUuNi0wLjktMjktMTUuNC0yOUwyOC4yLDJIMjR6Ii8+JiN4YTsgICAgPHBhdGggZmlsbD0iIzc1NzU3NSIgZD0iTTQ1LDI0Yy0wLjYsMC0xLDAuNC0xLDF2LTdjMC04LjgtNy4yLTE2LTE2LTE2aC05Yy0wLjYsMC0xLDAuNC0xLDFzMC40LDEsMSwxaDljNy43LDAsMTQsNi4zLDE0LDE0djEwIGMwLDAuNiwwLjQsMSwxLDFzMS0wLjQsMS0xdjJjMCwzLjktMy4xLDctNyw3SDI0Yy0wLjYsMC0xLDAuNC0xLDFzMC40LDEsMSwxaDEzYzUsMCw5LTQsOS05di01QzQ2LDI0LjQsNDUuNiwyNCw0NSwyNHoiLz4mI3hhOyAgICA8ZyBmaWxsPSIjMzc0NzRGIj4mI3hhOyAgICAgICAgPHBhdGggZD0iTTQ1LDIyaC0xYy0xLjEsMC0yLDAuOS0yLDJ2NGMwLDEuMSwwLjksMiwyLDJoMWMxLjEsMCwyLTAuOSwyLTJ2LTRDNDcsMjIuOSw0Ni4xLDIyLDQ1LDIyeiIvPiYjeGE7ICAgICAgICA8Y2lyY2xlIGN4PSIyNCIgY3k9IjM4IiByPSIyIi8+JiN4YTsgICAgPC9nPiYjeGE7PC9zdmc+;labelBackgroundColor=#ffffff;" parent="1" vertex="1">
          <mxGeometry x="858" y="330" width="48" height="48" as="geometry" />
        </mxCell>
        <mxCell id="8--HhbSZYtI3ddgJnD71-5" value="Home" style="shape=image;verticalLabelPosition=bottom;verticalAlign=top;imageAspect=0;aspect=fixed;image=data:image/svg+xml,PHN2ZyB4bWxucz0iaHR0cDovL3d3dy53My5vcmcvMjAwMC9zdmciIHZlcnNpb249IjEiIHZpZXdCb3g9IjAgMCA0OCA0OCIgZW5hYmxlLWJhY2tncm91bmQ9Im5ldyAwIDAgNDggNDgiPiYjeGE7ICAgIDxwb2x5Z29uIGZpbGw9IiNFOEVBRjYiIHBvaW50cz0iNDIsMzkgNiwzOSA2LDIzIDI0LDYgNDIsMjMiLz4mI3hhOyAgICA8ZyBmaWxsPSIjQzVDQUU5Ij4mI3hhOyAgICAgICAgPHBvbHlnb24gcG9pbnRzPSIzOSwyMSAzNCwxNiAzNCw5IDM5LDkiLz4mI3hhOyAgICAgICAgPHJlY3QgeD0iNiIgeT0iMzkiIHdpZHRoPSIzNiIgaGVpZ2h0PSI1Ii8+JiN4YTsgICAgPC9nPiYjeGE7ICAgIDxwb2x5Z29uIGZpbGw9IiNCNzFDMUMiIHBvaW50cz0iMjQsNC4zIDQsMjIuOSA2LDI1LjEgMjQsOC40IDQyLDI1LjEgNDQsMjIuOSIvPiYjeGE7ICAgIDxyZWN0IHg9IjE4IiB5PSIyOCIgZmlsbD0iI0Q4NDMxNSIgd2lkdGg9IjEyIiBoZWlnaHQ9IjE2Ii8+JiN4YTsgICAgPHJlY3QgeD0iMjEiIHk9IjE3IiBmaWxsPSIjMDE1NzlCIiB3aWR0aD0iNiIgaGVpZ2h0PSI2Ii8+JiN4YTsgICAgPHBhdGggZmlsbD0iI0ZGOEE2NSIgZD0iTTI3LjUsMzUuNWMtMC4zLDAtMC41LDAuMi0wLjUsMC41djJjMCwwLjMsMC4yLDAuNSwwLjUsMC41UzI4LDM4LjMsMjgsMzh2LTJDMjgsMzUuNywyNy44LDM1LjUsMjcuNSwzNS41eiIvPiYjeGE7PC9zdmc+;labelBackgroundColor=#ffffff;" parent="1" vertex="1">
          <mxGeometry x="170" y="186" width="48" height="48" as="geometry" />
        </mxCell>
        <mxCell id="8--HhbSZYtI3ddgJnD71-6" value="Education" style="shape=image;verticalLabelPosition=bottom;verticalAlign=top;imageAspect=0;aspect=fixed;image=data:image/svg+xml,PHN2ZyB4bWxucz0iaHR0cDovL3d3dy53My5vcmcvMjAwMC9zdmciIHZlcnNpb249IjEiIHZpZXdCb3g9IjAgMCA0OCA0OCIgZW5hYmxlLWJhY2tncm91bmQ9Im5ldyAwIDAgNDggNDgiPiYjeGE7ICAgIDxnIGZpbGw9IiMzNzQ3NEYiPiYjeGE7ICAgICAgICA8cmVjdCB4PSI5IiB5PSIyMCIgd2lkdGg9IjMwIiBoZWlnaHQ9IjEzIi8+JiN4YTsgICAgICAgIDxlbGxpcHNlIGN4PSIyNCIgY3k9IjMzIiByeD0iMTUiIHJ5PSI2Ii8+JiN4YTsgICAgPC9nPiYjeGE7ICAgIDxwYXRoIGZpbGw9IiM3ODkwOUMiIGQ9Ik0yMy4xLDguMkwwLjYsMTguMWMtMC44LDAuNC0wLjgsMS41LDAsMS45bDIyLjUsOS45YzAuNiwwLjIsMS4yLDAuMiwxLjgsMGwyMi41LTkuOWMwLjgtMC40LDAuOC0xLjUsMC0xLjkgTDI0LjksOC4yQzI0LjMsNy45LDIzLjcsNy45LDIzLjEsOC4yeiIvPiYjeGE7ICAgIDxnIGZpbGw9IiMzNzQ3NEYiPiYjeGE7ICAgICAgICA8cGF0aCBkPSJNNDMuMiwyMC40bC0yMC0zLjRjLTAuNS0wLjEtMS4xLDAuMy0xLjIsMC44Yy0wLjEsMC41LDAuMywxLjEsMC44LDEuMkw0MiwyMi4yVjM3YzAsMC42LDAuNCwxLDEsMSBzMS0wLjQsMS0xVjIxLjRDNDQsMjAuOSw0My42LDIwLjUsNDMuMiwyMC40eiIvPiYjeGE7ICAgICAgICA8Y2lyY2xlIGN4PSI0MyIgY3k9IjM3IiByPSIyIi8+JiN4YTsgICAgICAgIDxwYXRoIGQ9Ik00Niw0MGMwLDEuNy0zLDYtMyw2cy0zLTQuMy0zLTZzMS4zLTMsMy0zUzQ2LDM4LjMsNDYsNDB6Ii8+JiN4YTsgICAgPC9nPiYjeGE7PC9zdmc+;labelBackgroundColor=#ffffff;" parent="1" vertex="1">
          <mxGeometry x="880" y="220" width="48" height="48" as="geometry" />
        </mxCell>
        <mxCell id="8--HhbSZYtI3ddgJnD71-7" value="Alarm" style="shape=image;verticalLabelPosition=bottom;verticalAlign=top;imageAspect=0;aspect=fixed;image=data:image/svg+xml,PHN2ZyB4bWxucz0iaHR0cDovL3d3dy53My5vcmcvMjAwMC9zdmciIHZlcnNpb249IjEiIHZpZXdCb3g9IjAgMCA0OCA0OCIgZW5hYmxlLWJhY2tncm91bmQ9Im5ldyAwIDAgNDggNDgiPiYjeGE7ICAgIDxnIGZpbGw9IiMzNzQ3NEYiPiYjeGE7ICAgICAgICA8cGF0aCBkPSJNMzguNSw0NC42bC00LTRsMi4xLTIuMWw0LDRjMC42LDAuNiwwLjYsMS41LDAsMi4xbDAsMEM0MC4xLDQ1LjEsMzkuMSw0NS4xLDM4LjUsNDQuNnoiLz4mI3hhOyAgICAgICAgPHBhdGggZD0iTTkuNSw0NC42bDQtNGwtMi4xLTIuMWwtNCw0Yy0wLjYsMC42LTAuNiwxLjUsMCwyLjFsMCwwQzcuOSw0NS4xLDguOSw0NS4xLDkuNSw0NC42eiIvPiYjeGE7ICAgIDwvZz4mI3hhOyAgICA8Y2lyY2xlIGZpbGw9IiNDNjI4MjgiIGN4PSIyNCIgY3k9IjI0IiByPSIyMCIvPiYjeGE7ICAgIDxjaXJjbGUgZmlsbD0iI2VlZSIgY3g9IjI0IiBjeT0iMjQiIHI9IjE2Ii8+JiN4YTsgICAgPHJlY3QgeD0iMTkiIHk9IjIyLjEiIHRyYW5zZm9ybT0ibWF0cml4KC0uNzA3IC0uNzA3IC43MDcgLS43MDcgMTIuOTA0IDYyLjUzNykiIGZpbGw9IiNFNTM5MzUiIHdpZHRoPSIuOCIgaGVpZ2h0PSIxMyIvPiYjeGE7ICAgIDxyZWN0IHg9IjIzIiB5PSIxMSIgd2lkdGg9IjIiIGhlaWdodD0iMTMiLz4mI3hhOyAgICA8cmVjdCB4PSIyNi4xIiB5PSIyMi43IiB0cmFuc2Zvcm09Im1hdHJpeCgtLjcwNyAuNzA3IC0uNzA3IC0uNzA3IDY1Ljc4NyAyNy4yNSkiIHdpZHRoPSIyLjMiIGhlaWdodD0iOS4yIi8+JiN4YTsgICAgPGNpcmNsZSBjeD0iMjQiIGN5PSIyNCIgcj0iMiIvPiYjeGE7ICAgIDxjaXJjbGUgZmlsbD0iI0M2MjgyOCIgY3g9IjI0IiBjeT0iMjQiIHI9IjEiLz4mI3hhOyAgICA8cmVjdCB4PSIyMiIgeT0iMSIgZmlsbD0iIzM3NDc0RiIgd2lkdGg9IjQiIGhlaWdodD0iMyIvPiYjeGE7ICAgIDxnIGZpbGw9IiMzNzQ3NEYiPiYjeGE7ICAgICAgICA8cGF0aCBkPSJNNDQuNCwxNi4yYzIuNS0zLjUsMi4xLTguNC0xLTExLjVjLTMuMS0zLjEtOC0zLjUtMTEuNS0xTDQ0LjQsMTYuMnoiLz4mI3hhOyAgICAgICAgPHBhdGggZD0iTTMuNiwxNi4yYy0yLjUtMy41LTIuMS04LjQsMS0xMS41YzMuMS0zLjEsOC0zLjUsMTEuNS0xTDMuNiwxNi4yeiIvPiYjeGE7ICAgIDwvZz4mI3hhOzwvc3ZnPg==;labelBackgroundColor=#ffffff;" parent="1" vertex="1">
          <mxGeometry x="554" y="100" width="48" height="48" as="geometry" />
        </mxCell>
        <mxCell id="8--HhbSZYtI3ddgJnD71-8" value="Business" style="shape=image;verticalLabelPosition=bottom;verticalAlign=top;imageAspect=0;aspect=fixed;image=data:image/svg+xml,PHN2ZyB4bWxucz0iaHR0cDovL3d3dy53My5vcmcvMjAwMC9zdmciIHZlcnNpb249IjEiIHZpZXdCb3g9IjAgMCA0OCA0OCIgZW5hYmxlLWJhY2tncm91bmQ9Im5ldyAwIDAgNDggNDgiPiYjeGE7ICAgIDxnIGZpbGw9IiMyNjMyMzgiPiYjeGE7ICAgICAgICA8cGF0aCBkPSJNMTEsNDRIOWMtMC42LDAtMS0wLjQtMS0xdi0yaDR2MkMxMiw0My42LDExLjYsNDQsMTEsNDR6Ii8+JiN4YTsgICAgICAgIDxwYXRoIGQ9Ik0zOSw0NGgtMmMtMC42LDAtMS0wLjQtMS0xdi0yaDR2MkM0MCw0My42LDM5LjYsNDQsMzksNDR6Ii8+JiN4YTsgICAgPC9nPiYjeGE7ICAgIDxwYXRoIGZpbGw9IiMzNzQ3NEYiIGQ9Ik0yNyw3aC02Yy0xLjcsMC0zLDEuMy0zLDN2M2gydi0zYzAtMC42LDAuNC0xLDEtMWg2YzAuNiwwLDEsMC40LDEsMXYzaDJ2LTNDMzAsOC4zLDI4LjcsNywyNyw3eiIvPiYjeGE7ICAgIDxwYXRoIGZpbGw9IiM3ODkwOUMiIGQ9Ik00MCw0M0g4Yy0yLjIsMC00LTEuOC00LTRWMTVjMC0yLjIsMS44LTQsNC00aDMyYzIuMiwwLDQsMS44LDQsNHYyNEM0NCw0MS4yLDQyLjIsNDMsNDAsNDN6Ii8+JiN4YTs8L3N2Zz4=;labelBackgroundColor=#ffffff;" parent="1" vertex="1">
          <mxGeometry x="358" y="490" width="48" height="48" as="geometry" />
        </mxCell>
        <mxCell id="8--HhbSZYtI3ddgJnD71-9" value="Report" style="shape=image;verticalLabelPosition=bottom;verticalAlign=top;imageAspect=0;aspect=fixed;image=data:image/svg+xml,PHN2ZyB4bWxucz0iaHR0cDovL3d3dy53My5vcmcvMjAwMC9zdmciIHZlcnNpb249IjEiIHZpZXdCb3g9IjAgMCA0OCA0OCIgZW5hYmxlLWJhY2tncm91bmQ9Im5ldyAwIDAgNDggNDgiPiYjeGE7ICAgIDxwYXRoIGZpbGw9IiM3ODkwOUMiIGQ9Ik00MCw0MUg4Yy0yLjIsMC00LTEuOC00LTRsMC0yMC45YzAtMS4zLDAuNi0yLjUsMS43LTMuM0wyNCwwbDE4LjMsMTIuOGMxLjEsMC43LDEuNywyLDEuNywzLjNWMzcgQzQ0LDM5LjIsNDIuMiw0MSw0MCw0MXoiLz4mI3hhOyAgICA8cmVjdCB4PSIxMiIgeT0iMTEiIGZpbGw9IiNmZmYiIHdpZHRoPSIyNCIgaGVpZ2h0PSIyMiIvPiYjeGE7ICAgIDxwb2x5Z29uIGZpbGw9IiM5QzI3QjAiIHBvaW50cz0iMjQsMTMuNiAxOCwyMS40IDMwLDIxLjQiLz4mI3hhOyAgICA8cGF0aCBmaWxsPSIjQ0ZEOERDIiBkPSJNNDAsNDFIOGMtMi4yLDAtNC0xLjgtNC00bDAtMjBsMjAsMTNsMjAtMTN2MjBDNDQsMzkuMiw0Mi4yLDQxLDQwLDQxeiIvPiYjeGE7ICAgIDxwb2x5Z29uIGZpbGw9IiM5QzI3QjAiIHBvaW50cz0iMjQsMjggMjYsMjYuNyAyNiwyMCAyMiwyMCAyMiwyNi43Ii8+JiN4YTs8L3N2Zz4=;labelBackgroundColor=#ffffff;" parent="1" vertex="1">
          <mxGeometry x="334" y="378" width="48" height="48" as="geometry" />
        </mxCell>
        <mxCell id="8--HhbSZYtI3ddgJnD71-10" value="Storage" style="shape=image;verticalLabelPosition=bottom;verticalAlign=top;imageAspect=0;aspect=fixed;image=data:image/svg+xml,PHN2ZyB4bWxucz0iaHR0cDovL3d3dy53My5vcmcvMjAwMC9zdmciIHZlcnNpb249IjEiIHZpZXdCb3g9IjAgMCA0OCA0OCIgZW5hYmxlLWJhY2tncm91bmQ9Im5ldyAwIDAgNDggNDgiPiYjeGE7ICAgIDxyZWN0IHg9IjEyIiB5PSI0NCIgZmlsbD0iIzI2MzIzOCIgd2lkdGg9IjQiIGhlaWdodD0iMiIvPiYjeGE7ICAgIDxyZWN0IHg9IjMyIiB5PSI0NCIgZmlsbD0iIzI2MzIzOCIgd2lkdGg9IjQiIGhlaWdodD0iMiIvPiYjeGE7ICAgIDxwYXRoIGZpbGw9IiM2MDdEOEIiIGQ9Ik04LDQxVjdjMC0yLjIsMS44LTQsNC00aDI0YzIuMiwwLDQsMS44LDQsNHYzNGMwLDIuMi0xLjgsNC00LDRIMTJDOS44LDQ1LDgsNDMuMiw4LDQxeiIvPiYjeGE7ICAgIDxwYXRoIGZpbGw9IiNCMEJFQzUiIGQ9Ik0xMiwxN1Y4YzAtMC42LDAuNC0xLDEtMWgyMmMwLjYsMCwxLDAuNCwxLDF2OUgxMnoiLz4mI3hhOyAgICA8cmVjdCB4PSIxMiIgeT0iMTkiIGZpbGw9IiNCMEJFQzUiIHdpZHRoPSIyNCIgaGVpZ2h0PSIxMCIvPiYjeGE7ICAgIDxwYXRoIGZpbGw9IiNCMEJFQzUiIGQ9Ik0xMiw0MHYtOWgyNHY5YzAsMC42LTAuNCwxLTEsMUgxM0MxMi40LDQxLDEyLDQwLjYsMTIsNDB6Ii8+JiN4YTsgICAgPHJlY3QgeD0iMjAiIHk9IjExIiBmaWxsPSIjNTQ2RTdBIiB3aWR0aD0iOCIgaGVpZ2h0PSIyIi8+JiN4YTsgICAgPHJlY3QgeD0iMjAiIHk9IjIzIiBmaWxsPSIjNTQ2RTdBIiB3aWR0aD0iOCIgaGVpZ2h0PSIyIi8+JiN4YTsgICAgPHJlY3QgeD0iMjAiIHk9IjM1IiBmaWxsPSIjNTQ2RTdBIiB3aWR0aD0iOCIgaGVpZ2h0PSIyIi8+JiN4YTs8L3N2Zz4=;labelBackgroundColor=#ffffff;" parent="1" vertex="1">
          <mxGeometry x="824" y="460" width="48" height="48" as="geometry" />
        </mxCell>
        <mxCell id="8--HhbSZYtI3ddgJnD71-11" value="Internet" style="shape=image;verticalLabelPosition=bottom;verticalAlign=top;imageAspect=0;aspect=fixed;image=data:image/svg+xml,PHN2ZyB4bWxucz0iaHR0cDovL3d3dy53My5vcmcvMjAwMC9zdmciIHZlcnNpb249IjEiIHZpZXdCb3g9IjAgMCA0OCA0OCIgZW5hYmxlLWJhY2tncm91bmQ9Im5ldyAwIDAgNDggNDgiPiYjeGE7ICAgIDxwYXRoIGZpbGw9IiM3Q0IzNDIiIGQ9Ik0yNCw0QzEzLDQsNCwxMyw0LDI0czksMjAsMjAsMjBzMjAtOSwyMC0yMFMzNSw0LDI0LDR6Ii8+JiN4YTsgICAgPHBhdGggZmlsbD0iIzAyNzdCRCIgZD0iTTQ1LDI0YzAsMTEuNy05LjUsMjEtMjEsMjFTMywzNS43LDMsMjRTMTIuMywzLDI0LDNTNDUsMTIuMyw0NSwyNHogTTIzLjgsMzMuN2MwLTAuNC0wLjItMC42LTAuNi0wLjggYy0xLjMtMC40LTIuNS0wLjQtMy42LTEuNWMtMC4yLTAuNC0wLjItMC44LTAuNC0xLjNjLTAuNC0wLjQtMS41LTAuNi0yLjEtMC44Yy0wLjgsMC0xLjcsMC0yLjcsMGMtMC40LDAtMS4xLDAtMS41LDAgYy0wLjYtMC4yLTEuMS0xLjEtMS41LTEuN2MwLTAuMiwwLTAuNi0wLjQtMC42Yy0wLjQtMC4yLTAuOCwwLjItMS4zLDBjLTAuMi0wLjItMC4yLTAuNC0wLjItMC42YzAtMC42LDAuNC0xLjMsMC44LTEuNyBjMC42LTAuNCwxLjMsMC4yLDEuOSwwLjJjMC4yLDAsMC4yLDAsMC40LDAuMmMwLjYsMC4yLDAuOCwxLDAuOCwxLjdjMCwwLjIsMCwwLjQsMCwwLjRjMCwwLjIsMC4yLDAuMiwwLjQsMC4yIGMwLjItMS4xLDAuMi0yLjEsMC40LTMuMmMwLTEuMywxLjMtMi41LDIuMy0yLjljMC40LTAuMiwwLjYsMC4yLDEuMSwwYzEuMy0wLjQsNC40LTEuNywzLjgtMy40Yy0wLjQtMS41LTEuNy0yLjktMy40LTIuNyBjLTAuNCwwLjItMC42LDAuNC0xLDAuNmMtMC42LDAuNC0xLjksMS43LTIuNSwxLjdjLTEuMS0wLjItMS4xLTEuNy0wLjgtMi4zYzAuMi0wLjgsMi4xLTMuNiwzLjQtMy4xYzAuMiwwLjIsMC42LDAuNiwwLjgsMC44IGMwLjQsMC4yLDEuMSwwLjIsMS43LDAuMmMwLjIsMCwwLjQsMCwwLjYtMC4yYzAuMi0wLjIsMC4yLTAuMiwwLjItMC40YzAtMC42LTAuNi0xLjMtMS0xLjdjLTAuNC0wLjQtMS4xLTAuOC0xLjctMS4xIGMtMi4xLTAuNi01LjUsMC4yLTcuMSwxLjdzLTIuOSw0LTMuOCw2LjFjLTAuNCwxLjMtMC44LDIuOS0xLDQuNGMtMC4yLDEtMC40LDEuOSwwLjIsMi45YzAuNiwxLjMsMS45LDIuNSwzLjIsMy40IGMwLjgsMC42LDIuNSwwLjYsMy40LDEuN2MwLjYsMC44LDAuNCwxLjksMC40LDIuOWMwLDEuMywwLjgsMi4zLDEuMywzLjRjMC4yLDAuNiwwLjQsMS41LDAuNiwyLjFjMCwwLjIsMC4yLDEuNSwwLjIsMS43IGMxLjMsMC42LDIuMywxLjMsMy44LDEuN2MwLjIsMCwxLTEuMywxLTEuNWMwLjYtMC42LDEuMS0xLjUsMS43LTEuOWMwLjQtMC4yLDAuOC0wLjQsMS4zLTAuOGMwLjQtMC40LDAuNi0xLjMsMC44LTEuOSBDMjMuOCwzNS4xLDI0LDM0LjMsMjMuOCwzMy43eiBNMjQuMiwxNC4zYzAuMiwwLDAuNC0wLjIsMC44LTAuNGMwLjYtMC40LDEuMy0xLjEsMS45LTEuNWMwLjYtMC40LDEuMy0xLjEsMS43LTEuNSBjMC42LTAuNCwxLjEtMS4zLDEuMy0xLjljMC4yLTAuNCwwLjgtMS4zLDAuNi0xLjljLTAuMi0wLjQtMS4zLTAuNi0xLjctMC44Yy0xLjctMC40LTMuMS0wLjYtNC44LTAuNmMtMC42LDAtMS41LDAuMi0xLjcsMC44IGMtMC4yLDEuMSwwLjYsMC44LDEuNSwxLjFjMCwwLDAuMiwxLjcsMC4yLDEuOWMwLjIsMS0wLjQsMS43LTAuNCwyLjdjMCwwLjYsMCwxLjcsMC40LDIuMUwyNC4yLDE0LjN6IE00MS44LDI5IGMwLjItMC40LDAuMi0xLjEsMC40LTEuNWMwLjItMSwwLjItMi4xLDAuMi0zLjFjMC0yLjEtMC4yLTQuMi0wLjgtNi4xYy0wLjQtMC42LTAuNi0xLjMtMC44LTEuOWMtMC40LTEuMS0xLTIuMS0xLjktMi45IGMtMC44LTEuMS0xLjktNC0zLjgtMy4xYy0wLjYsMC4yLTEsMS0xLjUsMS41Yy0wLjQsMC42LTAuOCwxLjMtMS4zLDEuOWMtMC4yLDAuMi0wLjQsMC42LTAuMiwwLjhjMCwwLjIsMC4yLDAuMiwwLjQsMC4yIGMwLjQsMC4yLDAuNiwwLjIsMSwwLjRjMC4yLDAsMC40LDAuMiwwLjIsMC40YzAsMCwwLDAuMi0wLjIsMC4yYy0xLDEuMS0yLjEsMS45LTMuMSwyLjljLTAuMiwwLjItMC40LDAuNi0wLjQsMC44IGMwLDAuMiwwLjIsMC4yLDAuMiwwLjRjMCwwLjItMC4yLDAuMi0wLjQsMC40Yy0wLjQsMC4yLTAuOCwwLjQtMS4xLDAuNmMtMC4yLDAuNCwwLDEuMS0wLjIsMS41Yy0wLjIsMS4xLTAuOCwxLjktMS4zLDIuOSBjLTAuNCwwLjYtMC42LDEuMy0xLDEuOWMwLDAuOC0wLjIsMS41LDAuMiwyLjFjMSwxLjUsMi45LDAuNiw0LjQsMS4zYzAuNCwwLjIsMC44LDAuMiwxLjEsMC42YzAuNiwwLjYsMC42LDEuNywwLjgsMi4zIGMwLjIsMC44LDAuNCwxLjcsMC44LDIuNWMwLjIsMSwwLjYsMi4xLDAuOCwyLjljMS45LTEuNSwzLjYtMy4xLDQuOC01LjJDNDAuNiwzMi40LDQxLjIsMzAuNyw0MS44LDI5eiIvPiYjeGE7PC9zdmc+;labelBackgroundColor=#ffffff;" parent="1" vertex="1">
          <mxGeometry x="684" y="250" width="48" height="48" as="geometry" />
        </mxCell>
        <mxCell id="8--HhbSZYtI3ddgJnD71-12" value="Security" style="shape=image;verticalLabelPosition=bottom;verticalAlign=top;imageAspect=0;aspect=fixed;image=data:image/svg+xml,PHN2ZyB4bWxucz0iaHR0cDovL3d3dy53My5vcmcvMjAwMC9zdmciIHZlcnNpb249IjEiIHZpZXdCb3g9IjAgMCA0OCA0OCIgZW5hYmxlLWJhY2tncm91bmQ9Im5ldyAwIDAgNDggNDgiPiYjeGE7ICAgIDxwYXRoIGZpbGw9IiM0MjQyNDIiIGQ9Ik0yNCw0Yy01LjUsMC0xMCw0LjUtMTAsMTB2NGg0di00YzAtMy4zLDIuNy02LDYtNnM2LDIuNyw2LDZ2NGg0di00QzM0LDguNSwyOS41LDQsMjQsNHoiLz4mI3hhOyAgICA8cGF0aCBmaWxsPSIjRkI4QzAwIiBkPSJNMzYsNDRIMTJjLTIuMiwwLTQtMS44LTQtNFYyMmMwLTIuMiwxLjgtNCw0LTRoMjRjMi4yLDAsNCwxLjgsNCw0djE4QzQwLDQyLjIsMzguMiw0NCwzNiw0NHoiLz4mI3hhOyAgICA8Y2lyY2xlIGZpbGw9IiNDNzZFMDAiIGN4PSIyNCIgY3k9IjMxIiByPSIzIi8+JiN4YTs8L3N2Zz4=;labelBackgroundColor=#ffffff;" parent="1" vertex="1">
          <mxGeometry x="323" y="220" width="48" height="48" as="geometry" />
        </mxCell>
        <mxCell id="8--HhbSZYtI3ddgJnD71-13" value="Calendar" style="shape=image;verticalLabelPosition=bottom;verticalAlign=top;imageAspect=0;aspect=fixed;image=data:image/svg+xml,PHN2ZyB4bWxucz0iaHR0cDovL3d3dy53My5vcmcvMjAwMC9zdmciIHZlcnNpb249IjEiIHZpZXdCb3g9IjAgMCA0OCA0OCIgZW5hYmxlLWJhY2tncm91bmQ9Im5ldyAwIDAgNDggNDgiPiYjeGE7ICAgIDxwYXRoIGZpbGw9IiNDRkQ4REMiIGQ9Ik01LDM4VjE0aDM4djI0YzAsMi4yLTEuOCw0LTQsNEg5QzYuOCw0Miw1LDQwLjIsNSwzOHoiLz4mI3hhOyAgICA8cGF0aCBmaWxsPSIjRjQ0MzM2IiBkPSJNNDMsMTB2Nkg1di02YzAtMi4yLDEuOC00LDQtNGgzMEM0MS4yLDYsNDMsNy44LDQzLDEweiIvPiYjeGE7ICAgIDxnIGZpbGw9IiNCNzFDMUMiPiYjeGE7ICAgICAgICA8Y2lyY2xlIGN4PSIzMyIgY3k9IjEwIiByPSIzIi8+JiN4YTsgICAgICAgIDxjaXJjbGUgY3g9IjE1IiBjeT0iMTAiIHI9IjMiLz4mI3hhOyAgICA8L2c+JiN4YTsgICAgPGcgZmlsbD0iI0IwQkVDNSI+JiN4YTsgICAgICAgIDxwYXRoIGQ9Ik0zMywzYy0xLjEsMC0yLDAuOS0yLDJ2NWMwLDEuMSwwLjksMiwyLDJzMi0wLjksMi0yVjVDMzUsMy45LDM0LjEsMywzMywzeiIvPiYjeGE7ICAgICAgICA8cGF0aCBkPSJNMTUsM2MtMS4xLDAtMiwwLjktMiwydjVjMCwxLjEsMC45LDIsMiwyczItMC45LDItMlY1QzE3LDMuOSwxNi4xLDMsMTUsM3oiLz4mI3hhOyAgICA8L2c+JiN4YTsgICAgPGcgZmlsbD0iI0IwQkVDNSI+JiN4YTsgICAgICAgIDxyZWN0IHg9IjEzIiB5PSIyMSIgd2lkdGg9IjYiIGhlaWdodD0iNiIvPiYjeGE7ICAgICAgICA8cmVjdCB4PSIyMSIgeT0iMjEiIHdpZHRoPSI2IiBoZWlnaHQ9IjYiLz4mI3hhOyAgICAgICAgPHJlY3QgeD0iMjkiIHk9IjIxIiB3aWR0aD0iNiIgaGVpZ2h0PSI2Ii8+JiN4YTsgICAgICAgIDxyZWN0IHg9IjEzIiB5PSIyOSIgd2lkdGg9IjYiIGhlaWdodD0iNiIvPiYjeGE7ICAgICAgICA8cmVjdCB4PSIyMSIgeT0iMjkiIHdpZHRoPSI2IiBoZWlnaHQ9IjYiLz4mI3hhOyAgICA8L2c+JiN4YTsgICAgPHJlY3QgeD0iMjkiIHk9IjI5IiBmaWxsPSIjRjQ0MzM2IiB3aWR0aD0iNiIgaGVpZ2h0PSI2Ii8+JiN4YTs8L3N2Zz4=;labelBackgroundColor=#ffffff;" parent="1" vertex="1">
          <mxGeometry x="810" y="130" width="48" height="48" as="geometry" />
        </mxCell>
        <mxCell id="8--HhbSZYtI3ddgJnD71-14" value="Analytics" style="shape=image;verticalLabelPosition=bottom;verticalAlign=top;imageAspect=0;aspect=fixed;image=data:image/svg+xml,PHN2ZyB4bWxucz0iaHR0cDovL3d3dy53My5vcmcvMjAwMC9zdmciIHZlcnNpb249IjEiIHZpZXdCb3g9IjAgMCA0OCA0OCIgZW5hYmxlLWJhY2tncm91bmQ9Im5ldyAwIDAgNDggNDgiPiYjeGE7ICAgIDxwb2x5Z29uIGZpbGw9IiM5MENBRjkiIHBvaW50cz0iMzYuOSwxMy44IDM1LjEsMTAuMiA3LjUsMjQgMzUuMSwzNy44IDM2LjksMzQuMiAxNi41LDI0Ii8+JiN4YTsgICAgPHJlY3QgeD0iNiIgeT0iMTgiIGZpbGw9IiNEODFCNjAiIHdpZHRoPSIxMiIgaGVpZ2h0PSIxMiIvPiYjeGE7ICAgIDxnIGZpbGw9IiMyMTk2RjMiPiYjeGE7ICAgICAgICA8cmVjdCB4PSIzMCIgeT0iNiIgd2lkdGg9IjEyIiBoZWlnaHQ9IjEyIi8+JiN4YTsgICAgICAgIDxyZWN0IHg9IjMwIiB5PSIzMCIgd2lkdGg9IjEyIiBoZWlnaHQ9IjEyIi8+JiN4YTsgICAgPC9nPiYjeGE7PC9zdmc+;labelBackgroundColor=#ffffff;" parent="1" vertex="1">
          <mxGeometry x="576" y="514" width="48" height="48" as="geometry" />
        </mxCell>
        <mxCell id="8--HhbSZYtI3ddgJnD71-15" value="Store" style="shape=image;verticalLabelPosition=bottom;verticalAlign=top;imageAspect=0;aspect=fixed;image=data:image/svg+xml,PHN2ZyB4bWxucz0iaHR0cDovL3d3dy53My5vcmcvMjAwMC9zdmciIHZlcnNpb249IjEiIHZpZXdCb3g9IjAgMCA0OCA0OCIgZW5hYmxlLWJhY2tncm91bmQ9Im5ldyAwIDAgNDggNDgiPiYjeGE7ICAgIDxyZWN0IHg9IjUiIHk9IjE5IiBmaWxsPSIjQ0ZEOERDIiB3aWR0aD0iMzgiIGhlaWdodD0iMTkiLz4mI3hhOyAgICA8cmVjdCB4PSI1IiB5PSIzOCIgZmlsbD0iI0IwQkVDNSIgd2lkdGg9IjM4IiBoZWlnaHQ9IjQiLz4mI3hhOyAgICA8cmVjdCB4PSIyNyIgeT0iMjQiIGZpbGw9IiM0NTVBNjQiIHdpZHRoPSIxMiIgaGVpZ2h0PSIxOCIvPiYjeGE7ICAgIDxyZWN0IHg9IjkiIHk9IjI0IiBmaWxsPSIjRTNGMkZEIiB3aWR0aD0iMTQiIGhlaWdodD0iMTEiLz4mI3hhOyAgICA8cmVjdCB4PSIxMCIgeT0iMjUiIGZpbGw9IiMxRTg4RTUiIHdpZHRoPSIxMiIgaGVpZ2h0PSI5Ii8+JiN4YTsgICAgPHBhdGggZmlsbD0iIzkwQTRBRSIgZD0iTTM2LjUsMzMuNWMtMC4zLDAtMC41LDAuMi0wLjUsMC41djJjMCwwLjMsMC4yLDAuNSwwLjUsMC41UzM3LDM2LjMsMzcsMzZ2LTJDMzcsMzMuNywzNi44LDMzLjUsMzYuNSwzMy41eiIvPiYjeGE7ICAgIDxnIGZpbGw9IiM1NThCMkYiPiYjeGE7ICAgICAgICA8Y2lyY2xlIGN4PSIyNCIgY3k9IjE5IiByPSIzIi8+JiN4YTsgICAgICAgIDxjaXJjbGUgY3g9IjM2IiBjeT0iMTkiIHI9IjMiLz4mI3hhOyAgICAgICAgPGNpcmNsZSBjeD0iMTIiIGN5PSIxOSIgcj0iMyIvPiYjeGE7ICAgIDwvZz4mI3hhOyAgICA8cGF0aCBmaWxsPSIjN0NCMzQyIiBkPSJNNDAsNkg4QzYuOSw2LDYsNi45LDYsOHYzaDM2VjhDNDIsNi45LDQxLjEsNiw0MCw2eiIvPiYjeGE7ICAgIDxyZWN0IHg9IjIxIiB5PSIxMSIgZmlsbD0iIzdDQjM0MiIgd2lkdGg9IjYiIGhlaWdodD0iOCIvPiYjeGE7ICAgIDxwb2x5Z29uIGZpbGw9IiM3Q0IzNDIiIHBvaW50cz0iMzcsMTEgMzIsMTEgMzMsMTkgMzksMTkiLz4mI3hhOyAgICA8cG9seWdvbiBmaWxsPSIjN0NCMzQyIiBwb2ludHM9IjExLDExIDE2LDExIDE1LDE5IDksMTkiLz4mI3hhOyAgICA8ZyBmaWxsPSIjRkZBMDAwIj4mI3hhOyAgICAgICAgPGNpcmNsZSBjeD0iMzAiIGN5PSIxOSIgcj0iMyIvPiYjeGE7ICAgICAgICA8cGF0aCBkPSJNNDUsMTljMCwxLjctMS4zLDMtMywzcy0zLTEuMy0zLTNzMS4zLTMsMy0zTDQ1LDE5eiIvPiYjeGE7ICAgICAgICA8Y2lyY2xlIGN4PSIxOCIgY3k9IjE5IiByPSIzIi8+JiN4YTsgICAgICAgIDxwYXRoIGQ9Ik0zLDE5YzAsMS43LDEuMywzLDMsM3MzLTEuMywzLTNzLTEuMy0zLTMtM0wzLDE5eiIvPiYjeGE7ICAgIDwvZz4mI3hhOyAgICA8ZyBmaWxsPSIjRkZDMTA3Ij4mI3hhOyAgICAgICAgPHBvbHlnb24gcG9pbnRzPSIzMiwxMSAyNywxMSAyNywxOSAzMywxOSIvPiYjeGE7ICAgICAgICA8cG9seWdvbiBwb2ludHM9IjQyLDExIDM3LDExIDM5LDE5IDQ1LDE5Ii8+JiN4YTsgICAgICAgIDxwb2x5Z29uIHBvaW50cz0iMTYsMTEgMjEsMTEgMjEsMTkgMTUsMTkiLz4mI3hhOyAgICAgICAgPHBvbHlnb24gcG9pbnRzPSI2LDExIDExLDExIDksMTkgMywxOSIvPiYjeGE7ICAgIDwvZz4mI3hhOzwvc3ZnPg==;labelBackgroundColor=#ffffff;" parent="1" vertex="1">
          <mxGeometry x="458" y="508" width="48" height="48" as="geometry" />
        </mxCell>
        <mxCell id="8--HhbSZYtI3ddgJnD71-16" value="User" style="shape=image;verticalLabelPosition=bottom;verticalAlign=top;imageAspect=0;aspect=fixed;image=data:image/svg+xml,PHN2ZyB4bWxucz0iaHR0cDovL3d3dy53My5vcmcvMjAwMC9zdmciIHZlcnNpb249IjEiIHZpZXdCb3g9IjAgMCA0OCA0OCIgZW5hYmxlLWJhY2tncm91bmQ9Im5ldyAwIDAgNDggNDgiPiYjeGE7ICAgIDxwb2x5Z29uIGZpbGw9IiNGRjk4MDAiIHBvaW50cz0iMjQsMzcgMTksMzEgMTksMjUgMjksMjUgMjksMzEiLz4mI3hhOyAgICA8ZyBmaWxsPSIjRkZBNzI2Ij4mI3hhOyAgICAgICAgPGNpcmNsZSBjeD0iMzMiIGN5PSIxOSIgcj0iMiIvPiYjeGE7ICAgICAgICA8Y2lyY2xlIGN4PSIxNSIgY3k9IjE5IiByPSIyIi8+JiN4YTsgICAgPC9nPiYjeGE7ICAgIDxwYXRoIGZpbGw9IiNGRkI3NEQiIGQ9Ik0zMywxM2MwLTcuNi0xOC01LTE4LDBjMCwxLjEsMCw1LjksMCw3YzAsNSw0LDksOSw5czktNCw5LTlDMzMsMTguOSwzMywxNC4xLDMzLDEzeiIvPiYjeGE7ICAgIDxwYXRoIGZpbGw9IiM0MjQyNDIiIGQ9Ik0yNCw0Yy02LjEsMC0xMCw0LjktMTAsMTFjMCwwLjgsMCwyLjMsMCwyLjNsMiwxLjd2LTVsMTItNGw0LDR2NWwyLTEuN2MwLDAsMC0xLjUsMC0yLjNjMC00LTEtOC02LTlsLTEtMiBIMjR6Ii8+JiN4YTsgICAgPGcgZmlsbD0iIzc4NDcxOSI+JiN4YTsgICAgICAgIDxjaXJjbGUgY3g9IjI4IiBjeT0iMTkiIHI9IjEiLz4mI3hhOyAgICAgICAgPGNpcmNsZSBjeD0iMjAiIGN5PSIxOSIgcj0iMSIvPiYjeGE7ICAgIDwvZz4mI3hhOyAgICA8cG9seWdvbiBmaWxsPSIjZmZmIiBwb2ludHM9IjI0LDQzIDE5LDMxIDI0LDMyIDI5LDMxIi8+JiN4YTsgICAgPHBvbHlnb24gZmlsbD0iI0QzMkYyRiIgcG9pbnRzPSIyMywzNSAyMi4zLDM5LjUgMjQsNDMuNSAyNS43LDM5LjUgMjUsMzUgMjYsMzQgMjQsMzIgMjIsMzQiLz4mI3hhOyAgICA8cGF0aCBmaWxsPSIjNTQ2RTdBIiBkPSJNMjksMzFMMjksMzFsLTUsMTJsLTUtMTJjMCwwLTExLDItMTEsMTNoMzJDNDAsMzMsMjksMzEsMjksMzF6Ii8+JiN4YTs8L3N2Zz4=;labelBackgroundColor=#ffffff;" parent="1" vertex="1">
          <mxGeometry x="204" y="94" width="48" height="48" as="geometry" />
        </mxCell>
        <mxCell id="8--HhbSZYtI3ddgJnD71-17" value="User" style="shape=image;verticalLabelPosition=bottom;verticalAlign=top;imageAspect=0;aspect=fixed;image=data:image/svg+xml,PHN2ZyB4bWxucz0iaHR0cDovL3d3dy53My5vcmcvMjAwMC9zdmciIHZlcnNpb249IjEiIHZpZXdCb3g9IjAgMCA0OCA0OCIgZW5hYmxlLWJhY2tncm91bmQ9Im5ldyAwIDAgNDggNDgiPiYjeGE7ICAgIDxwb2x5Z29uIGZpbGw9IiNGRjk4MDAiIHBvaW50cz0iMjQsMzcgMTksMzEgMTksMjUgMjksMjUgMjksMzEiLz4mI3hhOyAgICA8ZyBmaWxsPSIjRkZBNzI2Ij4mI3hhOyAgICAgICAgPGNpcmNsZSBjeD0iMzMiIGN5PSIxOSIgcj0iMiIvPiYjeGE7ICAgICAgICA8Y2lyY2xlIGN4PSIxNSIgY3k9IjE5IiByPSIyIi8+JiN4YTsgICAgPC9nPiYjeGE7ICAgIDxwYXRoIGZpbGw9IiNGRkI3NEQiIGQ9Ik0zMywxM2MwLTcuNi0xOC01LTE4LDBjMCwxLjEsMCw1LjksMCw3YzAsNSw0LDksOSw5czktNCw5LTlDMzMsMTguOSwzMywxNC4xLDMzLDEzeiIvPiYjeGE7ICAgIDxwYXRoIGZpbGw9IiM0MjQyNDIiIGQ9Ik0yNCw0Yy02LjEsMC0xMCw0LjktMTAsMTFjMCwwLjgsMCwyLjMsMCwyLjNsMiwxLjd2LTVsMTItNGw0LDR2NWwyLTEuN2MwLDAsMC0xLjUsMC0yLjNjMC00LTEtOC02LTlsLTEtMiBIMjR6Ii8+JiN4YTsgICAgPGcgZmlsbD0iIzc4NDcxOSI+JiN4YTsgICAgICAgIDxjaXJjbGUgY3g9IjI4IiBjeT0iMTkiIHI9IjEiLz4mI3hhOyAgICAgICAgPGNpcmNsZSBjeD0iMjAiIGN5PSIxOSIgcj0iMSIvPiYjeGE7ICAgIDwvZz4mI3hhOyAgICA8cG9seWdvbiBmaWxsPSIjZmZmIiBwb2ludHM9IjI0LDQzIDE5LDMxIDI0LDMyIDI5LDMxIi8+JiN4YTsgICAgPHBvbHlnb24gZmlsbD0iI0QzMkYyRiIgcG9pbnRzPSIyMywzNSAyMi4zLDM5LjUgMjQsNDMuNSAyNS43LDM5LjUgMjUsMzUgMjYsMzQgMjQsMzIgMjIsMzQiLz4mI3hhOyAgICA8cGF0aCBmaWxsPSIjNTQ2RTdBIiBkPSJNMjksMzFMMjksMzFsLTUsMTJsLTUtMTJjMCwwLTExLDItMTEsMTNoMzJDNDAsMzMsMjksMzEsMjksMzF6Ii8+JiN4YTs8L3N2Zz4=;labelBackgroundColor=#ffffff;" parent="1" vertex="1">
          <mxGeometry x="394" y="106" width="48" height="48" as="geometry" />
        </mxCell>
        <mxCell id="8--HhbSZYtI3ddgJnD71-18" value="User" style="shape=image;verticalLabelPosition=bottom;verticalAlign=top;imageAspect=0;aspect=fixed;image=data:image/svg+xml,PHN2ZyB4bWxucz0iaHR0cDovL3d3dy53My5vcmcvMjAwMC9zdmciIHZlcnNpb249IjEiIHZpZXdCb3g9IjAgMCA0OCA0OCIgZW5hYmxlLWJhY2tncm91bmQ9Im5ldyAwIDAgNDggNDgiPiYjeGE7ICAgIDxwb2x5Z29uIGZpbGw9IiNGRjk4MDAiIHBvaW50cz0iMjQsMzcgMTksMzEgMTksMjUgMjksMjUgMjksMzEiLz4mI3hhOyAgICA8ZyBmaWxsPSIjRkZBNzI2Ij4mI3hhOyAgICAgICAgPGNpcmNsZSBjeD0iMzMiIGN5PSIxOSIgcj0iMiIvPiYjeGE7ICAgICAgICA8Y2lyY2xlIGN4PSIxNSIgY3k9IjE5IiByPSIyIi8+JiN4YTsgICAgPC9nPiYjeGE7ICAgIDxwYXRoIGZpbGw9IiNGRkI3NEQiIGQ9Ik0zMywxM2MwLTcuNi0xOC01LTE4LDBjMCwxLjEsMCw1LjksMCw3YzAsNSw0LDksOSw5czktNCw5LTlDMzMsMTguOSwzMywxNC4xLDMzLDEzeiIvPiYjeGE7ICAgIDxwYXRoIGZpbGw9IiM0MjQyNDIiIGQ9Ik0yNCw0Yy02LjEsMC0xMCw0LjktMTAsMTFjMCwwLjgsMCwyLjMsMCwyLjNsMiwxLjd2LTVsMTItNGw0LDR2NWwyLTEuN2MwLDAsMC0xLjUsMC0yLjNjMC00LTEtOC02LTlsLTEtMiBIMjR6Ii8+JiN4YTsgICAgPGcgZmlsbD0iIzc4NDcxOSI+JiN4YTsgICAgICAgIDxjaXJjbGUgY3g9IjI4IiBjeT0iMTkiIHI9IjEiLz4mI3hhOyAgICAgICAgPGNpcmNsZSBjeD0iMjAiIGN5PSIxOSIgcj0iMSIvPiYjeGE7ICAgIDwvZz4mI3hhOyAgICA8cG9seWdvbiBmaWxsPSIjZmZmIiBwb2ludHM9IjI0LDQzIDE5LDMxIDI0LDMyIDI5LDMxIi8+JiN4YTsgICAgPHBvbHlnb24gZmlsbD0iI0QzMkYyRiIgcG9pbnRzPSIyMywzNSAyMi4zLDM5LjUgMjQsNDMuNSAyNS43LDM5LjUgMjUsMzUgMjYsMzQgMjQsMzIgMjIsMzQiLz4mI3hhOyAgICA8cGF0aCBmaWxsPSIjNTQ2RTdBIiBkPSJNMjksMzFMMjksMzFsLTUsMTJsLTUtMTJjMCwwLTExLDItMTEsMTNoMzJDNDAsMzMsMjksMzEsMjksMzF6Ii8+JiN4YTs8L3N2Zz4=;labelBackgroundColor=#ffffff;" parent="1" vertex="1">
          <mxGeometry x="299" y="70" width="48" height="48" as="geometry" />
        </mxCell>
        <mxCell id="8--HhbSZYtI3ddgJnD71-19" value="Security" style="shape=image;verticalLabelPosition=bottom;verticalAlign=top;imageAspect=0;aspect=fixed;image=data:image/svg+xml,PHN2ZyB4bWxucz0iaHR0cDovL3d3dy53My5vcmcvMjAwMC9zdmciIHZlcnNpb249IjEiIHZpZXdCb3g9IjAgMCA0OCA0OCIgZW5hYmxlLWJhY2tncm91bmQ9Im5ldyAwIDAgNDggNDgiPiYjeGE7ICAgIDxwYXRoIGZpbGw9IiM0MjQyNDIiIGQ9Ik0yNCw0Yy01LjUsMC0xMCw0LjUtMTAsMTB2NGg0di00YzAtMy4zLDIuNy02LDYtNnM2LDIuNyw2LDZ2NGg0di00QzM0LDguNSwyOS41LDQsMjQsNHoiLz4mI3hhOyAgICA8cGF0aCBmaWxsPSIjRkI4QzAwIiBkPSJNMzYsNDRIMTJjLTIuMiwwLTQtMS44LTQtNFYyMmMwLTIuMiwxLjgtNCw0LTRoMjRjMi4yLDAsNCwxLjgsNCw0djE4QzQwLDQyLjIsMzguMiw0NCwzNiw0NHoiLz4mI3hhOyAgICA8Y2lyY2xlIGZpbGw9IiNDNzZFMDAiIGN4PSIyNCIgY3k9IjMxIiByPSIzIi8+JiN4YTs8L3N2Zz4=;labelBackgroundColor=#ffffff;" parent="1" vertex="1">
          <mxGeometry x="550" y="378" width="48" height="48" as="geometry" />
        </mxCell>
      </root>
    </mxGraphModel>
  </diagram>
  <diagram id="u9a5tLV7ujA-MgMdBHfl" name="Page-2">
    <mxGraphModel dx="1102" dy="543" grid="1" gridSize="10" guides="1" tooltips="1" connect="1" arrows="1" fold="1" page="1" pageScale="1" pageWidth="850" pageHeight="1100" math="0" shadow="0">
      <root>
        <mxCell id="4Wbo6gHmPg_REXFT99EW-0" />
        <mxCell id="4Wbo6gHmPg_REXFT99EW-1" parent="4Wbo6gHmPg_REXFT99EW-0" />
        <mxCell id="4Wbo6gHmPg_REXFT99EW-2" value="" style="rounded=0;whiteSpace=wrap;html=1;" parent="4Wbo6gHmPg_REXFT99EW-1" vertex="1">
          <mxGeometry x="40" y="30" width="800" height="550" as="geometry" />
        </mxCell>
        <mxCell id="4Wbo6gHmPg_REXFT99EW-4" value="" style="shape=image;verticalLabelPosition=bottom;verticalAlign=top;imageAspect=0;aspect=fixed;image=data:image/svg+xml,PHN2ZyB4bWxucz0iaHR0cDovL3d3dy53My5vcmcvMjAwMC9zdmciIHZlcnNpb249IjEiIHZpZXdCb3g9IjAgMCA0OCA0OCIgZW5hYmxlLWJhY2tncm91bmQ9Im5ldyAwIDAgNDggNDgiPiYjeGE7ICAgIDxnIGZpbGw9IiMzRjUxQjUiPiYjeGE7ICAgICAgICA8cG9seWdvbiBwb2ludHM9IjE3LjgsMTguMSAxMC40LDI1LjQgNi4yLDIxLjMgNCwyMy41IDEwLjQsMjkuOSAyMCwyMC4zIi8+JiN4YTsgICAgICAgIDxwb2x5Z29uIHBvaW50cz0iMTcuOCw1LjEgMTAuNCwxMi40IDYuMiw4LjMgNCwxMC41IDEwLjQsMTYuOSAyMCw3LjMiLz4mI3hhOyAgICAgICAgPHBvbHlnb24gcG9pbnRzPSIxNy44LDMxLjEgMTAuNCwzOC40IDYuMiwzNC4zIDQsMzYuNSAxMC40LDQyLjkgMjAsMzMuMyIvPiYjeGE7ICAgIDwvZz4mI3hhOyAgICA8ZyBmaWxsPSIjOTBDQUY5Ij4mI3hhOyAgICAgICAgPHJlY3QgeD0iMjQiIHk9IjIyIiB3aWR0aD0iMjAiIGhlaWdodD0iNCIvPiYjeGE7ICAgICAgICA8cmVjdCB4PSIyNCIgeT0iOSIgd2lkdGg9IjIwIiBoZWlnaHQ9IjQiLz4mI3hhOyAgICAgICAgPHJlY3QgeD0iMjQiIHk9IjM1IiB3aWR0aD0iMjAiIGhlaWdodD0iNCIvPiYjeGE7ICAgIDwvZz4mI3hhOzwvc3ZnPg==" parent="4Wbo6gHmPg_REXFT99EW-1" vertex="1">
          <mxGeometry x="340" y="420" width="60" height="60" as="geometry" />
        </mxCell>
        <mxCell id="4Wbo6gHmPg_REXFT99EW-5" value="" style="shape=image;verticalLabelPosition=bottom;labelBackgroundColor=#ffffff;verticalAlign=top;aspect=fixed;imageAspect=0;image=data:image/png,iVBORw0KGgoAAAANSUhEUgAAAN8AAACpCAYAAACrgujwAAAgAElEQVR4Aey9h7Mk133f6//j1atnu2RbtiyToiTalmXLIkXJEiNAgCCIsFgAiwV2gQ3YxWIXm3POOed0c8558sydfCfenHOcHD+vfmfu7C5AsvTsekWIFG/V756enu6e7tPne375d/4Fv//7fQ/8vge+lh74F1/Lr/7+R3/fA7/vAf5ZgC+7/KLz7T/23vPH/bo2d34G+MfoV/+SXFco9TVR/vd/9d3J3l/zXNkMCH3p+19/lfw3X+3H/P6vtv9fj/vqeb+tn3+Lwbc8CL4ykvIfM1nIU1KGSxbyrWynM18hsqSXKflCm8pmkM9yXQFLboBkiC7NQiIE2XiOMnFQlCSbSSwf/Xygqutk0iQzaeKZLEtpWEjDYgaWsjkKAXnK73uxlWNfJPlOjo8sk3yWa86nvnzt/DWlVedkYGZxiUQ6pZ5HnimdTpLJpCCbhkwSEtFcm4pDNASxRUhFIREmE1pQ38lzZjMpRXJuVs5d/su/B2ml36W/E1lIpXOUyYDQi+9BfZ/NkMhmnt1X/jr56z774tmO396N31nw5V+atHnQ5FvZl3/p2WWQ5oGXP14+54/PtwLCeCJFOBYllYySiCyQjC6SFdAt8zEZgBnSxFNJBVo5VwafwDGWyQElCiwCs8AcMJaBgXAS58Qcxp4hmruCtHUFVdvqDtDg9NHk8FJr66LO6qbG6ia/v9HuebZfvpfj5HjZL9eR6znGZ+ldjDGSyv3mEiD3sJTOMheOMR+JE0tnnj1vNpslHouQjITJxCNfBmH+swA0KxNNikw6STqVIJVKkUwmFb0ILAFVHnzxTA580u95enGSlD4Wkn7L97u8k2d/8uFLO55981u38TsHvl/1BvLvKt/KMTLAhIQlPttePlm93ywkkmmi0TihcFS1yZSIXbl3L9wrD6r5VJLFVIbY8qCeTaYVN1IAS8FIJEVwehFL/zD1ti6KNCauVTdzvaGDh20mCkxOKqxeKl1B6tw9VHf1UKi380hnVd/fatZxo7aVC5WNXCit5XRJDedLajhZVMWJx6UcfFDEkfuFHHlcyqmn5Zwqrlbny3XLOz2UO/xU2nyUWD0UG50U6Dp52KShw9vDQDiuJgCZBObSMJeEhQTqWeT5oqksi9GEmnSkX1LpLKGQAFL6TrjkCyKGMPo0ZFOy78vgUkBbxk2+f1X/v/DC1P4Xj3lh+9lh+YOe7fjt3fhnAb7nr+e5GCgztpqOXxg8Lw6GvFi0jE81zhJJiERTzEcSzKZgKpvjXDJwhYuNpmE4CSNZKDU6edRu4naDlltNBh5p7Tw1uLjfbuVao4HDRbXsf1rFrvslbL9bxO4HpRwqquVsTTuXmgzcM7i4a3BxR+fgpsbGjfZOrrVZuNpi4nKzUX2+2mrmSrORi416Lgk1GdT3sv+WxqaOO1Pdpq4r1//iTiHbbj1l680n3NPYKen0U2jq4kpNO+dL6njYZkbbM4pvLsclpzK551t4QbRVIq6I8MLOEhlI5oAmoFMc6XkXPwPg8/5/YSvf7wKmr/zl8fVi++yQ/M5nO357N36LwfeVTs+/lF/VPjMQ5IUZAd5XSZSQ5zO2DKT8+JDxJZfNny0i2xTgj0MwCb4UVHqH2fuwgm03Czhbq6HINcBtfRenarTsfVrLjgdV7HhSy/7SFo5WazlZr+dgVRs7n9aw6V4Jn94q5NO7xWx7WMEXT6s5WN7CgcpWjlZ3cLLRwLkWCxc1dq7qXFwzdj1rb5q83LT4uGX2cd3kUfsvaR0crmxjd0mDut7m+6XseFLNoep2Lmsc3LEFKfSOcqnDya6CerbcK+dwaTM3OhzcM3q5o3Gx824Jt1ssaIcX6U7AYAr6EzCQhMk0xAVs0iHC6QRw0p1JSMYzJGJptV8BMi/fpzNKRJUJT018imsK55QL5DjoVyWQr7zh37mPv9vg+1WgU8JiClLJHD0DoWj/OSOAgE4m9vgyRbIQXjZ2iDFDBp8jBI+cfewtbmJPUSNX9R4eOAc4WqPj/XN32V/WzpF6E6ebrBys0bPtaROfPWlgb7mWky02rpr9XDV7uWLycFHv4ky7laMNevZXtbG7rIm9FS3sq2xVnw/WdHC4Tqu+P9Zo4HiTkQPV7WqfbJ9sMSuS7+RYOU/Ol2sdqtWo8+QY+Y2zHTbOaZxsfFDF+ntV7Cht57IhyAPPKJeNfg5WaNj6qJbzzXbudHZzoamTLbdKOFTYRNPQAoEMeEKiL0JCjCcvTEpKr0tCLCpGmJzYKRJEHnCiG+aJlLyD5QnwK+LrixLI7xziXnig3z3w5QGXN4urNj9ERIsRynO95+Y2JWYuW0TFOCKDS1kHl0XK/lACXc8QJbpOJaYdq2jjpjmgBuznT+tZf7ecw3VGLug8HG/qZP2dSraXtHGiyc45nY8zGg/H212caHVyss2hQHfH1U1x/wQNMxG0UTClwJJ5TuZ0bp8xCfo46GKo4zSRLKYYmONfJtlnjIIhAprFFPpwVh0j+zsWklQPz/LY08/1Tj/H2x3qfuSeDjd0srWwmU/uVPDZwzr2Vmoo9E+yq7CJjbfLuNjh5l5nHwfL29j1tJEbrTY0gVFs/RMEpkKMh7PMp58bk2TSyve4SAzyJ4YoZQ0VLick+rOQIDYvYrzYLp/3u9z87oLvmViTs8opy5zYHLPLn9MZZer+KuhEp8mDbiCexjA4TonVzc1WLRcbW7nY0M6lZh2b7xSzs6Ceow1GTrVa2VfZzrbCeg7X6blh7eamrYdrlgA3rL0UdE/SMg8mAVMC2peydCahMwXWBJgTGSyxLMZYCnM0gyGaRLcYRxuKYQyn1H45zpoGZwZc2VxrT4EtmsUYTmAJybkpHHGQ/T5yx8lnUySJeSmJfimWa8MZ2sPQEYeWBSgZmueBd4ybzj4uGXwcazTx2f0Ktj2q5litnluWIDdNfk7WGznVYOKOwcPBRxXKAPRE76SjdwzvQk5PFP037/oQ8VwmMjXdZTOIuyUjHf7rAPd78P12zDV51e753X5Z0xfxJu8Mlhk3mYyTSEVzMzA5P9JcKKpm6NlQjPl0FjHBixGlOxSjtXuAEoeHs3VNHCqr5kh1AzuLy9lWVMGZDiNHa1rZV1LP3uI6TtRpuKyxcd8WoKp/Cu18ElsUrJEvk3l5X2c4jT2axB6L4Ygm/rdbRzR3nrTuSIL/3VZ+W8Ce55TCLc0RkPszhXNU7B/mibuPqx1WDhTXsfNROQdL6jlR3aboWK1wficnGzTselzKhcZ2ilxeGgL9mEem6IsmmVmeyKRv5xMpIqms8nGKxTSdXjbU5F0OqSypVCZngX7+Un+nt35rOd8/Bj4BnvidwuEwoWjkS76jSCbDwNSs8nVNxXOgE7eAeXCc9t4hDj4oYP3FqxypqOVsu459NfXsrKrhlN7IwXYta+485LLWwiOrh+qeETomF+kMpXDGwREDaziNI5xSZA8ln207oklc4RSucJyucJSuyBJd4fD/UesLhfGFl/g/aeU35V6ssSS2SOqXyBpO4k7mnqVzIYFmfIFybz832s0cL6tXYLtqcbOxoIwdFfVc63RxqkXLnuIKrrTqKPUEqPP30BLsxzO7qHyaC1kYC8dVn4eXxVJhgPFERrkv8u8zHk+ysCD21d/9v99a8OW52i+3uZcmSnvecCJgkxcuYpCQiEXiGpgAhpLQ3jPK/Q4zVxs72Hz1Dh+dvcxDexef3LyvON0li4PPy6pYX1TKNW+Aqsk52ifmcCwl8CWyeOMZggnoy0AgkcE+H8IXiuNdiuFdiuALRfGHY/jDEQKhGP5QGH9oiUBokeDSb76V3/ZEIrijETyRWG4ikMlAURx3KIYnksC5GMEbSdEv0kASLFMLtA5O0Dg0wfE2HTtqm9lV06D6Znt5DTdsXTxw+tlXVM7aM5d5ZLRzt01PkcGmrKXCCceTKAljMZkzaOW1cDGQRpIZkqmcCpgH43MIflmyeb7/t3frtxZ8SnnPG1e+1OZeXjSWUBZLebni/FahVxJ+tRxVEohB8+AMn5y9pXxtx8ubOFHdypHyRt47e43DVY089vZwqL6Vz56UUDY6pfSojkQGfSJNkBzY/PG0Apt9eoGuhYgCW9dCCP9SdBlkYYJLYbpDIUW9oRA9S0tfKynAh0P4Izl6xkGFm4aiimTScM8vqWcKRlP0yAQTTRGIZ+kG2kMJpC/u+HsQ4G16WsLmx8XsKavhutHJTb2Dd49eYN/jMp5YvZyrbOaR1oEvAgPxHADlnYhTX8RSmRSVbih64rJrRwD4/O/34HveF1/z1j8GPplJw8msinMUkVL0uWnxzc1H6RiYRqyVO0qaePvETY5UazlSq2FHYS07Cqv59NZTDlU2cUVno20mpAabGDGaJ+fomFnElcgobudeiuNdjBMIp3IDM5KkJ5pUs3x3KIKQAE/AJqAT6ltcyH1eDKnv5PuvgwLhEIHwErk2pDixcMQcVw4jE0ggEqc7lsYfTuBbSuAPJXEtxjDPLGJPZHGQMxqJwahlNqREzy33izhW087ay/eUjnhD42TXoyqOV7ZzucnKF7fLKLP34pxeYiiaVO9F3o3QXCrDYiqrjDRiLf09+L5mkP26nxfw/TIAc1xPZlAVS7ksYs6IOLgQoz0wxP0WI0eK6jmjcfOzM/f48G4lu6v1HG+xcb0zyOZ75crZbUtAZziLaSGOPZTGl4CuaArTxBxt/aN4Ixnsc1FFwUgaIcX5FqL0xlL0hOMKfL2LOU7Xv7SEUN/iIt2LIm5G8S/FvyaKPgPdl8En4nCO+9mn55ToLNxOACeTjIjWQiJue8RKOxehcyGGcT6CfjaCN4uytj5x9rC/tIlX9p7hSJVG+Tqv6gOcbLDy8u4LXGpxcK/NQp3Lj3tqgfFULpJGACgqgUgqeS74HIC/53y/Dgu/8f0KfOoV5V9K7hZEz5MXF13OGBgOpzH1jPCkvZMzJfUcflKlIk62V+lZca+GT8u1nDL1cErv54IhQNngIg8c/QQAy3ySniQMp8A+Ns9gOK1maO9sGBFbu8JZnIspHPMxbLMROqdD2KcWcc6KHpdQ+p2ATDhb3wsk+wKhJP5Q5mui5DMdVPTQPOVFzq5wnJ50DmhqklmMq2d0LaXxRMAbBddsmM6xWXrjOd3ZvZjGsZDEmwDLIliWYO2lJ9zu7Od4o52N9+s5pwnw8d06jtRZVPjbpepGLpXXUWK04Z9ZUH0rbp6JpcgzF4W8TwlyfzbZ5v2Ev/ER9///D/4T1/kEWPKXC2hWcoiaCsUkneN88lFIxJQ8x5PZU2bRrvFFCto6OXKvlJ3Xn3D0aZ1yEN+393Gkw8XLFx5wzTPGLd84xUOLOIGG8Sj3TD70M3ECwu3mE7inQozGoXcuRtfoLGMJcM9F8Mcy9Ak3WOZ8st0TTdM1F1bgE84WXIwpLifuixw3jNEtHC+U/iXgeUJZtU/af4z+t4G7RO73VJsTJXNGIDEE5UiMRHnqk7C5UFxxPV80rQwvjvkIQvK8nvkoQ4mcRCEiZHcUnPNJ9GNLKvrHMJviSpsD4xKU9S5w2z7Evmojf7ZmJ0cbzFxuM3O1Rcfl+jZOl9epgPEn7WZsozPKGCYglPeY9xOqqBcBXt5/+yU9Pz8B/7o2N0byY0UNoeWR9XU2Xxv4lHP7hcj3fEqPpOMICeAyWel6OUhMYBIRkRLbNJmIvJacr05SYRZjKaWwi4N3EgiGodzWx+UaA59dKeR0lYF3Dl3httbHPUOQYxUdFPlGeP/8TRX50SVuhqU0psUU5oUUZ2pbaRqYpB8wjs/TNR9Vg809G1a6Sk8oQXBugeDCghIhRZfrD0UU9YSjCAUWI/SGkwqEMjgdU4v4RHRbSuGZjeKYWMQ3n/vsX0gQWEwSCGeQbftUSA1mAahwFtkvHMgfA/eScEwBeISu6SUlTvvmIupaPcvnSyu/o66/mGQghpo8+pfSBGbieGYieBYS6lqit3aFcvpcIJJUuqvorT2xON1RmTCiSnwOiKi8kHtm3/wiffEsfhE/56NKH/QuJpUILtzPHROpIc6ZmnacMTAtpjEvZSjyDXGqQQIUCtlXWM09i4dtD8so9o+y9vIj1l8v4Jbez0NzN/a5TM4ivZxhkcgH2KYzRKYnSadEOF2Oo5FxImld2RikImQk9xBJ88oJr1lxOy0DOe/4/6cAwK8VfPl8rnxArYAuz9FUx0o0inSbzHaxWI4kJCmTJRZLEIonciImKIdufwweadxcqDGx+0Edp6tNXGhxs/ZSAcfLdVxpcXO2xkylf5LW0QW+uPcE8WnZo2ncsSy2pYTyyR0prsI6H6UrmsEjABILXzRDTyyrZn3R6QaiUYZjYYajEQZjUfojYmAJ4V9Yomt+QQ1O0ZfESOEJp5WVTzhpbwaGQYmtIroK+aPgk23hoskcmWajGKbDmOdiqtXNhJVeJT5F/VQI0/QS5slFNeCF47hFhI3ngr27UygR0DYXxzGXwr2YxbeYxbuQIRiCvriIzOCMZBXlfI8pBUIROfPip+h/YhmV5+oNLdEXDjEQXlRtMCyTQBLPQgznTAjXYoKA/H4SPLEsFV3dPLK4sC2l1G+I39C8mKDM18/ZujbKg0PsLanlit7F/qoO1t2u4GiTnb3ynrQBbnT4uNfuYjABC8vJExOjE7mAUpmI1eSbIp2Jk5bgiWSIbGIBkpL0K3KPwCwHwBfBJ9O2fPPPG3zLWQMCwOd/wuUk9k8CcOMkExEViPtM3JRjxTEbT6qZTHx3w/NRJWK6Jpc49qCcfRKhX9jEE+sAOx7UcKHFxdb71Wy5VUapd0wZCmQ2loF3tqZZAc68EMaXQTmexahyrKhcDUSnGE/S0JNCiZgCQiVyLUYZTKToj8UIhCP4lkL4FkV3iimTvBr8Swmsi3FcIpoB9hhU901w2+zhitZJgW+Me/Y+rhm8XOxwcrrJooKyD9ZIALVRhalJqNqBOh37a7Xsq9Gwt7qD3TU52levY3+DHmn31RkU7a3VP2vPGbxcsfZwyznITccAN2193O8aoXxoibbZtIoBVVEtEbDEcvcnQQJyv+5ERhmXvFHhhAlFwgVznDBMMCJGpYyakMQPKNxTjDLK+htJKd/npbpWOoU7x8ErDvtwSvV9TXCQByaHmvTESHOh2cDpRiMb7lXw8v5L3HWOcqHNw+kGGzdaHWw6eQ2Nt08BRqkWsSSxWIxYOkUolSAm2fRIRn6CdDoMqXAOdMIFn3G/nJSkbAHLHPBLw+75APyNbn19nG8ZfLmnfVFWl1IGyVymeDxKIpFQERASDZHX68RBKzrBZCyjON7dunaO3C/m4P1Sdt+v4Ey1nkMlLbSORdld2MAXj6pV5IluJok3jRoEYq17YLbRPj6NPZLAkwJnTKJPEtzpMNDUPagAJ3qdkG02pPQd0XnE4umLpZDBKZzRGYrTuRRVlj/TQhTDvMRkZqgamuG61cvxVjMH6jQKKCe1Di45+tjZbGVLnZnPa0xsa7Sys8mu2l2tTvYZfBw2Bjli7VXbe00B9hv97NB2scfoZ7vewx57L3ucg3xh6WZHZw9fmINs1nbxucHHJo2bz3QePqg18FZBIytLWtnW7uawfZA9xiCf1hnZ1WDmYKuF0yYPt70DlA7P0bKQwJJA6b4yWThiGSURuOJpBUYJZRPOKCSgE8DJ84sFVNrO6UXyE9bBxyWKCwrwRKroGJtV7W2thWpfH46lGP40GOakvxLK1bPy/H1ljDlYoaO8e5Yv7lWw+3YRB24/pqBVR3BsWlUDyINoUcpvZNLElFgpYyg/QiR+N68tyj4B53PRU87/Pfie9cAy+KQ0QZ5E80snVTZ5KJFmNppmXtJ6lqNTxHVgHpnm6L1Cio0u9t0vZdPlB2y7Xcyllk4uNltUTpwvC4fLGpXu4c+CbnIJy3xUgazKG6TE0UUfYj6PqjhJ20IEzegUF2ub6JYMg9klNfCklQHjjgjYJCwro4KaZZAK0Jqnw5T1TXDH2csls49ddVoOtNs4pHezX9/FXr2bnYYuPm+38Um9kTVNdt5rcrC60aHaVfU23qg28Vq5jp+WanilpIPXKg38sKCFH5Z28FJxO3/zuIEflWn4XmEzf3CrjH//sJ7/62Y5/+l+Hd98UM+/u1XJf3nSzDfv1fJfn7bwapuHDzuH+Hmzm78uaOMvHzXxvWINL1XoWNNoYWOjkU3NZr5o7WRXu539GgdHdC5O6F2Ujy5RPbZE01SY9rmY0oclVtUhhpU4iquJaC79ZV8UET3H8WQiMkzOcaai9tl3nXMhdOMzSoc+X92AYWyGvixYpudVlJGIpE+7+pUIKlxfUrG2PqxSwdzbH5Ry4GkFJSYHl0sraevy0ruQs4zKWJCwtblUWoFQYCYgE1tBrs5ADng5UAr3y3HAZ8PuN8rnfvnHvhbOJw8vs4/U6sjreSrbIA88ybEjo4oNSd0TkdFFipfwJN9Sira+SR7rHBwtqKHA4mPLtcecq+7gs+uPOVjcqMBX6B2mYzaOdibGxRYjmqklWsdyA8ATE7N4mPbBUW42t6tBYZldVOCzzocV6I4XVyhnsml6QXFEiYUU0VSiO7wZaJ+JUTcZo2xwnoe+ca7Z+zht8nFM52Gfzs36Kg2bWjvZpHGypsXC6iYLH7TZeKfRxE/LO/heQSvfr7Hx8yYPrzR7eL0jyHvmIVaaBnlNE+QnzV38Qt/LP9TZ+XG7jx+2eflOrZWXNAH+psHBn7a4+e+GPr7R4OS/a7r5rrabv2hw8X1DP3/b6uEva+x8t9mt6K8aHPyw3c9r1mF+oA3yX0o1/KCklZ+WNvNGeRtvV2n4oFbHugYTm5o62d7UyUGdh1OmANcd/TwOTFI+HKJxJklHCCxRcSUkVW6fM5JW0oPoy6OA9Nfl+haa+oYVKAV4MnGJRDEAnCuvxTI+Q19SImYS2OaWELFf3s/ZZqNKgXoSGOeCzs3mRxWsuXqf8016rjTrKbZ3cbKkght1jVTbvTjG51TgRD6IQjhhzkeYG1dKR1HcMDeecp/zUtYvg+E3vedrBF+uUM5z8En2cz7PTiphZYmm0kiHSudKHKb4mZ7agyrKfvv9cs41GNnzpIbiriF2P65W22JNk6yC5rFFBoGW0VkKnD5aRyfpEQ4XTSguJ7GL1tlFzlfV4VqKqm0RI4W7iZXzibVL6SYyuCxLcZzxrCIJoG4YX1ApOJecQ5ww+NnT4lQi4+fNViXebdF7ebfawFs1Bl6vMfBKtZ5X6oy81mLljTYXP+/w8Jqxj9X+eT7yzvGSrocfa4K87RjnDeuIAszLpn5WdE0rsLxqH+MV2yjf6/Dzc+cE3zH085fmIf7OM8uf63r5nmOCv7ON8986unnFMcXf63r5r/VuBcSfWIb5X9oeXjEN8V53mA96w7zpHOdluY9mO681WnL3VqXjZ2XtvFbSyi+KmlhdqeWTGqN6roMaL+esA9zyTvCwd56SgQVaJsNKPxQd0TAXVpKAJNo29I1yrLRG6X0S95rXByXmVTjd7cY2JBTPMT2DbXKK3kQaTyyFdmKeexa3Entb5lMIFfRNsvbWY944doHLWit7npZzuUXLPWMnO2894WajHsPQtMqul4lZ4nXzphYROgVyzwH3ZS74mwbar/q9rw18Uh5OZPXksmvhWU2VtIibaRUULQaV6TTKpN3aO8E9o5t95c2sufKYtVefqPwyKYdwvFavlPZbZh9t01FsYllbSivdSyyZ90xWyrwBnLGkSr8xTE0rq6MA8GxFDdqRCcUJJUBaxCcxEoiB4GBxtTKWaKZDGEJpmqdClPaMck5jZ3+ri90aP3t1QXbqAnzW2sVHdZ28VabhJ4XNvNfi4rVGqxrgb+l9vGnq5mWtT9Frln5eMfSxunuJld5ZvtPkQriTgOxN5wT/vcnF/2zp4geWQf68wc7f6nsU/XGDnX8w9fOtJjf/T72Tb+v7+Fc1Nv5K18c/GIf461YfK1zTvGIY4AfNPt4wD/G6cYC/qbMprvmKoZdfdA7xI62flc5R3nEMs9LazzumICt1AVZ0dLGi1cX7zXbeKNOwokLHh5VG1tda2droZHerl/2aIMd0fm5YA6ovdItJ3CINiBgZSlE/MEGRO4BpNrwsoseVPig6YlWXn0p7F4MZGEyLwSaCdWISdyjCo04HT1w+1c+2dC5p2JiCS2Y3X5TUsr2khtPNek42a7iqt7L7YRn7HldwvqqNKlcv4uoYWwagqCdi1RTpSiAnfPAZFxS31TIsfxUgfpP7vjbwibUqpyjnlF8RRSXHKxZPqmpZIj5INS3x20m1rosNOpU/JzrVe1ceqiTVC+0uDlVqKQ5O0jGbVPlnFd2jaGfCeNIg+p5uep6GgWFOV9fhjMUxzS/gDEdUMLQYCLTDk1xtbFPcTgwDcl7H1JJKOi3vG+eK3k7d2Dy3nUEum1xsLapmb6OJg6Y+tmmCfNrkZm29gzWNTj5scvJuo53X6ztZbx9hhbGbn+t8vGbs5hVTLy8Ze3jLNca6wQhvWIf5+5YuftTh51Vjn2pFLHyvawrhet9pcvKXzS7+R4ub/9nm4TvtXr6j8fO32gDf0wX5s3obf9Xs5n+JSNri5fv1Dn5cZeWnNXZer3PwXouXD9q8rNEG+Vgf5CNjNx8agryv9/OGzsv63gXW9CzwurmPNyx9bAjMsdLcy/cr9LxaY2GdsY9PdAH1XO+WGfjF0zZWFmn4uNbGjlYPB1ut7KlqZW9VM2VD07TNxSnuHuGO1YtuNqL0QpEYxOIrumFPFkTfM0/OY5uaxz41qULchAP2pLPc0xrRzSyofrdnchn8krl/1erlms1H9cQi+2ta2FvVxLG6drY/rmLHgwoOFzdytcnEA52Tev8Ao5kcB5zNwmQ0rsTQPABjsQjxmJjqZM/X//e1gU/0PQFfJJNSNSOlnmPePiU63nA4SaMroErkXW/Sc6yymRvmLj59XB6vl7kAACAASURBVKFM7x9dL+Scxk31UAhXBuxJKPUPUxYYVOKQVVJ3stC5FKFjYprr7R0Y5+YxLyxiC8cQvU/iNSVF5nKThsb+CZWHJxngEkRtTYGUedhaVMu2sgaOtVuVZfBAi5ktNTpWFLSystLC2qYuPmruYmW9g7fr7axo7eJ9XZBPPdN85BzjLWMvL2v9vGEfZnVgljedo/x9m5uXNB7etvSywj7E27ZBfmHuVft+0OrkJx1dfL/dzT+0ufi79hx9r82J0N+0Ovi7Fgc/N/Xysw4fP2ty8Xqjg/dbPazr8LG53a+48H7zAAetgxxxjHDUOcxBxyA7OoN8ZvSwRudhpbWPv2128JZjhM1DMVZ2DvJSk5P3jX1scIzzgS6orvleo4vVjS71jGsa3ayqsbGqTMe2ehNfVHVwXOdU7o9DzQbWPyhVk5QCTySLH1ReoBi5JLOh0NqFbnxOcShx0QQjEsC9qFKZLtc30zAwgjWWVom+ulAaQySrrMVPgsPqWm1LKR66e9hVXKsKQ7176qaqo/PE3svR0kbu6p1cbdCqIIRxsYRCzkiXyqgk3jwHDIVEkfn6/7428EnaiMqzS6cJZVAk1ZYnEjASz3KtqpGLZXXsvVfElRYTB8obuKJ3KEB8dP0xd5yD6JZQwBOu1zS6QKGzh8edbsQ0Lop/MC3B0GKdjFHk8lDbO4BpMURXMqtESzF1SyRLoSvIU1ePyuSW2ieVIwvKYrm3Tsvn5a2suFnA1joDm2t17Gi2srKwkfdrzbxXa1MkwFvV5GZ1u4/3NX7e1fhZbennI+cIHzqGedc2yGr3GKu9k4rLfL+hk19oPax3jbDS3M3P2py8bfDzSquD/1Vn5E1TkFc1XbzS4eZHHS5+0Obg71ts/F1TJ3/TYFbH/LCig5cqNKyoM7NJ5+d41yS3esM8HozxdDDCA/8sT4KzPO1doKB/gXvdk1zpGuS42ccOQxdvtzv5Xr2Ft6wDbOyZVxPBGzo/G7sm2Oaf5b0OH++257jn2o4An2i7+aTdz/t1diVa//RWGRsqOthco+eA1s3K20VsLKzns6I6jrVYKOgep2Mhrd5P3eA0Us5QAgYkMVd0cV8sgWdxCXcohGlymquNrdT3DyljlnEpptK3pHTGDZOLJ54+TJEsDinDEcnSOLaoArc/f1DJvtIWrhu8lATG2HT9KQ/MXrZde4RmcIahNCpoW0RQGWPRbK4YbyQuctXX//e1gE8eWxVfjaeYiydVrp100HA0qzIPHnRY2XThDl/cLqDY3ceB4loeurq5anBwttXIhY5O6oaXkMyDLkn1GVvEPJegfXSOJ2Y7nTMLyoomSr7odf5klqahMR5a7GinF5XhRVwFLilKNB2jbTLMDaOHp75hVXvlrLGLQ2029rTZOaj38kFhAxsbzHxcZ1AcZLc48O0jrNP18G6Dk3fq7ErEE1FtXecg6zr7+XmDnVWGAFv8U+zoW+Bj+6AC2Uqdj03eCSX+rTL4lF74kzoD72i9vKP38Ga7m7eMPgXEn7ba+GmLnR81d/LDpk5+0Gjm+w1mXqo38mpFB2vbnOx1jXCpb4E7QxEe9S1R0DNPSfcclb2L1Aws0TASpX4sQsXwPE96Rrnp7uako5sPtV184hnnXb2f15psbHCPsqNnjrXWflbrA6zWdyvRU57pI01ATS75SebjNg+neubZZQqypcPNysJmVj6u45PSVg7pPexvtqoCTWc7HFQOznJV56DYO6j627yQRrLjZUJ0hMKYZ+eo6+6hzOXFOLeo8iTNixE6QwkaBse5Y7CrzBJxR1gW05jmk0oPF7BJnRkJUFApYdVaSoOT7H5cywcnr3Pf6Kba3Yd5aFrlcCqLqFTojkaVLvhPwd3wtYEvHImppEmZg0RB9kwsUGnzc7lOy6GiOjZefaz8dLc6vdwXfUtr4ZqhE3cGHtl9PLIHkeDdQBo6F1LK0Sv6RKGhE9PohMpFkzw0t7gOkmCcWuRmh4X6/in18twpMcpkMC3ITBpSIU5STm9HhYYjGjf7NW52adzKKb23s5eD3gl2u0fY6Rhmc2cfH2v9rNMHWW/oZq3GxwetbtVusQ+zt3uG1e0e1pu72eEdZ5d/knWmIG82WVmj87IjMMV7HR6lG77d4lZAfKfdy0qtl5UdPn5cbeClWgsv15l5ua6THzdY+EmjjZearLzc7FBg+VDrYZu1j2OBSa70L3Kze4F73mnuu8d56h6n0j9Nbc8sjYPzSiqoHZ2nbGiKJ70jXAsO8bnZx3b/JJ8YA6xo7GSLc4jdgSl1z3LtTZ0DbLYOssEs4PPxbrOTlU0OPuzwssHYw0ZTN5/q/BwJznKse46T3in2W3o5ZOlWgQO7GixseCSGkha+KGpQdUKbhqXcBip+Vtw14rppGhrloUWCHaZwJ9K44illcRbXhLgWpMKARBmpmF3xL05FcIRRnE6qsNVPxVXBp/PaLtbdyVVa23CjkAeWAFIw+H57Jx09w/SHYsoIMxaKKEf9P2vwSaqIqL1zMejsHeV+k44TxfWcrNZwWetm9dXHKqTqsX+EU+0mynpHlNxvnA/RMjRJuXcQu0Tox8E2I6UZkpiGJynSm2lweekVjidhT7NhFZBsn0/w2OqnyNWHfjalDCuVfbMU+cZ45B7hYJ2RNXfK2VDUzPYGK1uaOvms3cWuzn6uTGU4M5ZkT2BW6UHvNNp5v9nJh+0eBUAZiDIg1+n9fKLzsV7r4aBviv2+CQWQ9Vo3G/U+tll72GQMsLrRxieGXt5p8bLWOMCHpgF+UmnmxxUmXm908Q/lBn5YZeZH1RZ+UtPJD+tt/KTRwcvNLn7a4ub1Fher9QJ4Bx81WvmsxcFxUx/3fTOUD0ZoHE1Q5pmgwjdBdfcklX2TVA5OK/AVD03yeHiG3WYfH7VY1f0d8I+rexZOuss1zL7AFNscQ2qS2WAMKkB+aulXQFyj9bOq1c1rdVYllgpXPD2a4EDXFBcGIxy2D3PKOcK2Ogsbi1t492oBe6u0qvzgbUuQ6oF55XsVf6krnaU00MN9ixX9zLyyRnfOiSgaU5Npo7eXWqdfBW9L4LnE7gpJxscjZ48SbZtmU7QuwV33MEckcOBBFR9eK+CG0ceZOj3XWs3caNBR7w7SNTHDZEwMff/MI1xk5ukfnqCiRcfVoioulTdytVW4m5dLpgCbntax8XENd7r66Qhn8ABt49NKXzBOzCBGGO3IAvbZuHK8y8w4GM+iD/ZR2NqOd2pOpfNI3pwENruWsrSNLXHX4OG+OUjN4AJX9T7Otti5aR3gjN7HnnoLW2vN7Gn3cC44x6meBU73hbkwlWWXb5a1lgFWG/vZEZhTnG11m4u1Gg+bO3vZ7RpVA1dAtrrexIneeQ56x9hmCrChzcZ2vY8D9j7Vrqo2ssE8xGr9IKu0/bzZ5ONHZRb+vtTET6rtvFzrVPSjOicv0g8aXAj9uN7JGms/K9rsvFbewRvFzWysMnJcH+CeZ4LyvkXKgjNKDBPxrCg4QkHPKAVDExSOTvN0cpED1qCKtNlq9HMsMM5mvZe1zVZ2OwY4OTCvQCnPJbTNMcg29wib7QOs1ft4q9nBB4Y+3mn386l9XInaV2bh1ECE6xNprg9FOWTo5riph8/LOrhgCnK41oxYpy9rPTx09FI7Mk1RsIeHLh91Q6PoZxdVmJ4EP0jtm7bgAPUOL93zEcaS0D0TUTQSyWIfX6DI06+iiQxJaJpPI5kp5WMxvihrZ+XFhypt6YrWzS2tgxvNJp5qrZwrqsA9Ps3oUvifhL3zV4qdeZacb3+Vairf5Ul9n/8gbd6tItvLx4nPRWYcsWQKeUemKG0zcejmI/beeMT5Gg33bd3KhXCiw8nqm0VctfWqWpcSbyi+NjGUiAM8mMyqmpGmiQXcczGVWyeBvkJSLatEb0Y/MKa4oQRFC/DskZzlTUqk7y9r5VijRWWvn2p3c8s9woFmO3ubbRzU+7k/luBSf0jN5BdHkpwfTSrwfazv4QNtD5/ZRnirxsiaVgefW4Lscg2yzz3M/q4RDvnGOR6cYq9jQMVbSszlflsvu83dSj/6oqOLXZ0DvNPo5j1NHz+v7+LVGqcC4Vutfn5QZuLlahuvN3Ypeq3exat1TuVCeKnKsswhDbzb7uLdFhsrqrUKfKueNrO5Us9ZXVCJnuWDYUr6FnkanFIROHeDY9zvn+LR+BxPpqMcdfWz39bPhiYr61utHPaOsc85qEC41zXEVlOAnbY+9npG2NM1rLj2eqOXDTqv4vDiwvjcPc1GyyBb7KPsdo1zsmeJ44FZbk+kuTsS4/5IhIuOQU4bAuyq0nG8xcHBOrMKHD/SqGVXeT13bD5Vi9S0mFCxpKpiQChBnTtIoa4T/3yEgVgG39QSjuFp+peSWEZneNTpQxfKqIgYqYOqj+UKCwsHlKLEUiX8ksbF8VotDy0+ipw9rNhzjEKzi1KT/ZkzXsakjM3loZrbeHH85sf1C+P92bG54f3sf35/vn32xa/Z+BeqlLdasSdXgiGfCS6BzGKRVFnEL/ywIEtMtkuZOGGSai21XCHUXN1+FUgutdUlPjoiZ+eqPwtnkiiErlSCIq+fc3UatY7BJxcfsvVBJZc1LooCE6pQa3HfDCJOyJoE7TMJHClxGYh+FlfhXcapeR4bLDT5exlIQ28i+yybQMBWZHNT7PQrX5MnA840NE9EVIVpMQJsLWzkkyd1Krj4cIeb/S12jpoC3B5c4PFEgmu9C9wajSkAXh2KKg74ueh37V1s1gdY3+5mXUsnZ4LjfN7hZKfRx0FHP1s1Ls52T3FlPMJ20X0MPnZaeznkGWWbIYhwvDVNNsUlxaDxaqOAysIbzS5+0eTkp1UGfl5lVPqVcNUVVQberNDwTqWOtQ1WFSj9TnELm7UuVtfpeae8WRmB1tUa2FipY0NpB9sq9FyzDVM8GKVoIELBUJSC0TgPhiJc7Z7hdNcIRxwDHPZM8HGLg7fLNayTweqd4GhwSt3vhjYHZ/pn1XPIs23TutUzyjNv17vZZvKxw9rPPvcYGzVeVteY2WHu40LvItJft8fiXA7O8mA0SvFchoLJBDd8Eyr0bnejhd31BlZdL+D9G0842W7jUXBURbS0zydUgIT4aQ+X1mKYXlKRMqqMxVIMSfAdykLH0Bi3NJ0qU6QrDaK/W0JZdAspjtVoaJ6OKUOPrElxod3BqSYj51ptrLn6UK2VIRbUAyVluBIxFRInkTGzMXF+QTokUfup3PoAseWyCGoZgdy6gTLmF9OxZ457OSdPcoU8bgRHecqlzuXWSZNgEhVQAjwDX/5AmQWEBHi57efr1MmP5ME3l5ZUniQSwqrAJ8mO4qiTFKoYpGejglxiKRiNphmRxNSFBc4Z9Bxr17BPVsbRe/n4ZpkSEe66JL+rWaW7GJZy8YNHq9tUp0oBWls4F08oVkoV8jU9z62GZlVhS1J4xKopMYTi1JXamSdr2lQIlJRUfxocU2sjnNY4FLe73TXMB/cq2NFk4axjgMveMe4OLVIyn6VgOs2l7mk1c18bDHFlIMxp3zQ7Dd183u5ha4dXcbCtHXaOuvoUBznXPcFhRy9faJ0c84woIO6y9SlOstPSx0aNh006H9s7+9hsCPJuo1UZXAR0r9ZbeLXGxBuNnbzX6uCdejOvl7XzYYOZ96s1rK3Vs65Ox+dNZuXq2FSj5bx3mAcTEY7autnd5lDm/k2VGrZUaNhZY+ayfZh7wQVuB+a52x3iZk+Is12TbNf4WFdr4aMqIx/UdyqDyU7bAF9YevlU61X3KRkSMlns7exmtzmggsF36N0ctHVzvGuQw44eTniGlD68XUX2uPm0yaF8iteHwtybTHF3Is7DyQS3hpa41j2dm9TGotwbXOSMvY99zVZW3CjiuM7DZRHZq7XqvbSFoHkuyYkGLVWDU0hxYQnrE8OMBGubZxaQanG32rTUdw+hnVgkKHVjxG6wlLNe77hXglPSorJQNTSn1s/YXd7KXdcAb5+7x0PvGLsqmrlqd3KstYnyQEClgolPcHh8To1ZJG1GxDMZy1L7PpGrtC1jXcb8bCryDHyCiBfB92XsvAjAHPgkhPI5+JbXp8uDL98KgmU7z/mey5I5zpcgzUIqSigeU8Vpc9PGC3n/YqGaXGQ6llUcTzru1T37uOtwsau8Vi3scaTewPk2p4pgl0VGWqdiKmg3X4jnUquJur5JxcFcUu15ManM1OKfEzfCA62Rak9AvRAVAB3JJcWKWbrEN8gXj8rVCj+yKImUQb/jGlJ1Wk5pPRzXe7kuoBuY53bfLA+GQxTNpnkyGedq7zR3RsLcHY1wsXeeY64R9pn71ODd0tal9LZdRg9bGo0cMPm41jfDxb5prgzOKc63ocnCHksPR3zjHHAP82mHi09anWwz97BZ7+fdGhNitBHd6Y1GG2/VdbKyoZOPmnMGlPcq9axrsKgg5z06D7ta7XxapeWtW8X88PQtPnhcxYo7pXz/zC1+cb2AjcXN7GmycqjVya5aE8danHxRaeCzci1byg1sbbCxrcnFhnora6pNrK4xKY4ngNvtGGKLMYhwO4lJFWf8ce+44uKbWm3IxHImMMYp9yDn/WMqO2Ov2afAJ32xrcOrwusOWvuV1fXhREr1nYic94aXuD+0xMORME/GozwaDfOgf57bwSnOdvaqwO1ddUaOaV3srzdysF7PtsJajtV1YAxlVaqRPZpFN5PLRBGVo2NkkpOlVSqzpG1kWuUKSmFiWSmqcWiKY2WNypotnFCuIVJP62yC9bcKWHOjgJMNJrVWxSWjjZudNj6+fI3rze1qaTe1SvCSZNbkOdByMIzgQPzR8Zga87HlFKU8JkQSFAAKVhRmfsXyE/mEccUaBVzC+fI786D7avtL4FuunZIS0TMeZikSVjX41Y+LtCmpVFIfM5pWk8dQNK3SQQ4VVrDqzEVONHVwSWvldLOBu9agWrJqzaX7CnQyYwlZQhnlz2kdm+Nik1aBTjpXuJp0tGRLS+qKiJ/nqupzKT/zUeWglUDf8uAIUu784+uP+exxNef0bk61O5EEU5lpz1q6KR6LUjadomg8psB3q3eWR6MRnozH1KC5Oxzm/niMi/5pDsgiIdZBNci2tObcD2c8w2xrsbBL4+SItZsLgXFuT0Q43z3NLpOfo12jHLAPqFw7EUG36PwKgGKd/LDZppzjAkBxUXzQ6mRVnUUFYwsXEf/ZXr2XDdVa3ntQxT+cuM5fbj/OH328g//w0ef88Ohlfnb+vvr8L1du5F+/t4lvr9vLq8dvseFhHSfa3Bxv7WJ/k4NtlSY+KdWwscrM5hYXG9vcSoRdVWdWYqeI0Bs6cnmAoqcedkk0TD/7rD3ssQS5NrzA5YFZDncGOWQJ5MCn7+KQbUD1xx5jD/vMPcolc8Yzyu3hkJq8bkh/jkcpnctSOJVQk9zdnhmejoSpnMvyoH+BO90zXOjs44JICXUmpeevuHBXrbT0xDtEWfeYsnBL0q34c0XiOVPdRNPAOAEpaiXjYTGu8gQlqPtUZROtwzPL/sSUEkuNCykFxl0F1SokTZZUO9Ni5JrRyW1bFytPnFXrb9xt0tC3lKuoLcxOxrAU8JVYfxnbss6EVD6XMS9jXyouqMTvZwaO5+D7Kobk8zOcZZbXqxDw/aoDcwfnbkBBVP1bzjKXkg7ZNImEcLyEuqm4SmjMGVQkck5iMkcFRKMzXK1r42RJHaWeAb63fpvK5L5hdPPY1csDqx/DfFKtAyB5cR0TIQyzcdXhEg0hCa/XWvWqJIHEBkpIWD53zBXNqCiV83WtasYTcVQzHVFm9VudfsXxbjv62F7cqMzPslLQVVs/d7rGKRmP8ah/nsKRJUrGIxSOhykci1IwGVcz9N2RRR6Mhnk4FuF81xgHTAEOW/rYbwiys62Lg+YgAr6L/lElAh40+zhq6+GIs499Fj/neya5PLigQCgGDbF47rUP8ZnWx0d1Ft6vNfFerZm1rS6lR37YYOWjKhMbGmzsbPeyV+fnrZtlfPfQJf5k3R7+7xXr+ddvr+dfvfUx//6dDXx/zxm+v/8cf/jep/zRqs1846Ot/Mf3PuPbH+/iu1uP8fKhK+ytNnJS51MW0M01Rj4s17C+sVNxOLHGflhrZk19JxtaXXyuD7DDIEm6PiVuHveOctIzqkRqAdwJZz8HTV4Om3xc75tWzy5A26cPKDpg7GZXu4fjnX3cGljk/kiIoumU6ssnwyEeDS7yeGhJ9bf0eaFwwuEw5TMZSqdSXHEPc8YcZGtJM1ue1nOgWsNdVx8XNVZV90WSbUV3L3J3c7yiQcXsemVtxATY58LKCNc6OMbRwgql3kipx16gpmdciawdU2EOltQpFeaWwcVto1utrXFFa2fTjUcqYF+s5zebtGrMSn1XGcMylkX6FKOMjHEBoIz5eDyaA96XAJhDSk6/ey5u/kp85Rjfc/AJul888Dno8lsvgC+dIpmIqSlBbmg+FlOpP0puToFucIxHRisnKuuVYeW61q4SWo+Wt3KiSqsWjWwenlNpKFLSoSIwyPU2i0p0Fd1QcsMEXFKGQD8xz7UmDZJnJxxPSpZLjRAl54fTCrDHq1qUmFnoHUSAd8ng5mRLp1p1Z1tRE1JeoWhwiarJJFUzWcX1ng4tqMFQOhGlfCpO2WSMgtEIDwcWFCd8OhFXeuAZ5zCHDAFFMsgO6AIcMXWrMLNLgTGudE8oEhHrdNcQe/VdCoRHnYOKe+w0BvhC5+ULrZ/NGi/rW5wKgGvqrWzW+Njc4mZVmZZPqy1qIH9Rb+PNG6V8+9MD/JtVn/EHb67jD978mG+u+oz/9N4m/sMbH/PdT/fyg92n+XdvfaL2fWv15/z7X6zlm+9s4i/W7OR/fnqQ7249zge3y9knImiTjTWVkrNnYF2LTRlYPmmyq/uQVsAn97lN60EMLHLvJ73DnHQNsL3NpsB3OTjOBd8It4fmOdoZUEDbrfGyu62L/VqvohPWXtVn5QtQOpdRUoUA78ngPEWjITXRFQwv8rBvhvoQPBmOUjgW4/FQiIrpFKdNAU5p3Vww+BDD2KlWi1rQsyQwwgN7kLMNWnSzsVypi0gSqaqWr7Fzq01HmcuncjGl9o4K5hZfYhRq+8Y4V9um4kwFmDL2rnc4kJjQD07d4JrGxlNXr1r592RVA5WeoBrDUjJSxrSktS3E40qsFDaoxr6wxGVGlBM/8zh5DsI8nr6KLdkvf4rzyXb+gDxy1Y78F/k2fzWRWdUJuXXLJURMVmodSGdo7h/mUpuGDXcecKSxnYN17Zxvtz4L/fnsWhGWBRTXkqKrIseLVevgozIViymAk+xoSe+RiBVZ/6DM7uGp0aZmOSnnICAU14FkWItsv+NJpVotSIrxyOqsZ9rtSMTDsWYrd7vGaJiH8tE4RSNR6mRJrPEYdXNJqqailI0tKSoenufxwJyiJyOLSiS92TPNGXs/R4x+Dmi7VGmHE+Ze9Xl3q42zjl5OWXu4NTjHo8koaoAKRzB42NHu5JCtj+PuUTWwhQMKieN+q6aLTU0OPm20s3k5XWdvm49tdVbeuPhUAe+vNh/mGx9s5Y8EfK9+wB+9voY/+sVHfOvNtby68zivH7rIf3xjDX/85lr+7N2N/OFrH/DHAsC31ikg/vH7W/jBgYsqaGBvhwsxEH1Yb1C0rt2mSk0IJ/y4zsSmVge7DQEVoSJlKnZruzjrHeGid4wz7gEFOumLy8IROwMqlvOIPpADXXsXh/Rejlu6OdnZw7XAJFXzAqwQxWNhNbFVTkYoHw9ROrqo+rpiPErFVJqi8STFoxKLKsfKJJikbDTMLfcQ20ubuKBz5hbzbOtk3c2nbH9coVZREilJ1A7JwxTdXxZleaAxqbIWwgkFlGL1lglbJuqTFfUqoFuMMyJBSURUx2iU+8ZuPjp7X63Qe7bVouKGRReUsXu5XavGcn8qrca2rLKUSIrUt8yl8kYRwUQeH/lW8LQsur74tWyLQUZaBb788dKqA5dP+qULLsutYtlcLh6l9DsxcEpcpuRn1fX1q5veU1XLhqfFHGnTc8kqYLAqS2apmLML21RhVfG9SdWstqFJ1UHmmRD7HxY9Kz0gSZgyq0lHSuEiWTlIKkVLPRWpCyLZB7VDs9yxeLlucqullfdXtKhVV0+32bhi6VYJr61hFMcrGApTMweFwxFKRyKUjSxSNDCtSABYOR5WA6RqMk7tQpaq2Qw3/ROct/UpN8TBNqcC3XlbP4cNPmU4uNM/o8B3sWuYfR1Otrd0KnH1khhadD5Vf0VEVRnY4t/b3OZUJNvbW7pYU9jB5koz551jnLcO8+6NMv78kz3827c38Idvrldc7k/f2ci331nPX6zcyJ+/tZa/WPEJb+4/q+IXv/H6av7o1ff407c+5puvreY/r9zAt9/ZyL99ZRX/5hef8IfvbebvD15UAdB7JLu+0ciqmg7lJpGJQOIyhTY32/m8zaXqw0itmJ0dDq4GpxC9TUTwk53dHDZ4OWYOqFITd/rnOGUKKrBJMrEAT/x5Jww+zli6FZcTblcyskDFRJiamTj1s0kaZuPUz8SonY4rTieJufeCM9QuwNOhnGRSORGjZjqp1gw82mxme3E96+4UqSWuz7V1cqbJQFlAsuRzC7qI9fNCdT2tfSNqvEiNHRk71pkltcDLPa1JLfUmE7oAVgApleKkDGN93yJHRRy/WcSTwCgHGjWctzjZW9/M3uo6LnRoaejtYyCVVmNcJegq9CyvYJxZXtLsRRAtb+fBp9ovWURzAFTgywM4f3AedJnkMncTZTMlCa7ZZ6CPxqQgTW5d7tlElr6lKAcfFfDE5WHj3ft8UVHFW9dvcbtnkFM6K2e0dvSLYIvAXY2Xpu4pBrIoYEnBnXwBnjutOmo83apYkawHIEq1lNkTTqcZneF6s5aGnmGkrF6BW3QCO/JCLuucHKrshbQUXgAAIABJREFUYN2dErVIZWHPFFVjUUUV43HyVDmRIEcxVZ+kenwBRRMhasZDVI7nQCgDpnQkpAodHdU4Odzh4lxnj2qlwO5RbRcirl5w9PJwcA7hlOesvcqMftrWyx6Nk6PmIMck1UUc1XovW+qtrKs18WmjlR2tbr5ocrC9wc5RTYBLtiFWXC3mr7ce5xsfbONPP9jGH7y8iv/y7ib+7I21/MdX3+Vbr63iO6s3882X3uZnW/bz/vHLfPvtNfzhS2/xzZ+v4rsfbuE/r/iEv1r1mQKhiKf/8vWPlD74V/vO8mm1RrlGNrYIp+tkfaNZTQgyEXxW14lk4YsuK3qbBJOfcw6q5znvGlST0FXPEE9Hl7jsHsi1zkEuu4a4aO9XoBOR8aTBw+F2O4+6pxDuJhOaUPVy/z7rb5nsJmLL7yLx7P3k35m04uctH1rgdme3slCKr+6qwa1IAPjU5kP0vIJOp/LrSt0dGSviExTuJ60UujpfUYdmaEK5oqRujJStkEnfG4GCzn4FwNapBMdaTOxv6OCkxcGaxwUcbddwqKGRIrePowUlBGYX1bofEhIZi2eU0TKPOcFHIpHKMaX8Tmm/wgEFa+LCE5K/ZwYXAZ/6Wz5ZwJdbrPA5p5WyDlKGXWaAfLRKjcHO2cJyldq/42kJ5/QmjrRpWXX3MedtXTzsHqZ2Iox2Pq3KiLf0znG7xUJQVlCdC6sSfcLhZMYSMfNafavqVEk7kTUBhDOKa0HKlBfYvUp2319YqQw39xw93LYGciDUOLnj7Fc1VWonotSMR6gej32J5IVXjyfUvvrxEPXji4pqJqTNAVBAWDURoWYqpiJsxEIqA+q0zsvBVrvSS/Y3W5Tecsbs51H/LAVjITVAxYwuhoXrwUkVmC2DWPRFEeO2NTnY2mhXBhvRHUXE3NVg5WiHl/1NNmWp/M+f7OY/vfsZf7LyU7778U7+5Ocf8ic/e5+//mAT3/jJW/yPt9fy+taDfHbxHvsfV/HS1gP8YMNO/mLFWr756nvq2P/2zjr+zQ/f4lvvrOcbKzbwrQ+38q0Nu3j92lMOmLzKWrm1w8anjRZ1L2JAkolhW4tN3etx8fNJ9TSDV3H1G75x7vfNcSsohqoIV92D3AmMc8ro54TeqwwlkgFyweTnrN6jqKBvOteH+T5V/Zvr61yf5/r4xfdTMx5T7yzfVgwvUj08T+1IiIqBGaXLH63TcqJBz3WDiwuNGrbdeqiWdRMruKgvUtzKHUmrCmqinlysaqC5ZygnLUkNnuWKc9aZMObJGNfqzSrw3BhCpZHd8w9wwmDlwwcFatmzx8Fe9pdVU+Hv4eTjYvS+fmWAmY1mVXB2PkVJICPAklqyAsL/l7X3fmosS7dE718yE/F+mTvv9bvz2vvu6i7Ttrq6vEnvva/0Pis9SWaSmZB47733ViAhQIAQQsggEN57BEJCrBfrOxyKqtsdc6N6MmLnkeecffban1+fKsDkuAFAapUc3wAfQwkcm/82wEcwUr3kF4h2Ao41UVQxpfxnyY9qswtPUvLwIDUfV+LTpVNpes8AbpdU42JuMV4bOlE1uwIWV7KCoGWGfQ38iCjToto5LHo5Wa1IssPaO0q6XJMNsVoDyO/I0hNKOVaXVw+Qi8WGB1mlOPoyCnQdhzQYQQDSzks09Upmg24JqBh3o3xsCQShOkh2RECVjq8K8VH52AIqxuZROb6AivEFVI0tomJ8EXydmwWDva9brIg29eFFU5eosZEdLiFKijL1I84yjOeNnYjvHpHF+MJgl3q5kI5+PNR3i+Sg9Hhq6BPbiPSA9DqeL2nCpXIDrpY0C+gYFjgeVygOEqqb39t9Dt/bcRLf++QA3jh8AT/bcQx/OnIB++88w5XQRNwKT8GDpDwE5Fbg2Iso3E7Ow4WIZOy+FYgff3EQ/8/7O/Cr/Wfxy/1n8dMDX+L7B7/Ef99xBL++8hCXSrVis91uMG3SFJKqUKgLq42gHUcVktk+r9r7EGYeQnT3MF539OGp3iLXGmywynUzUSGkxY7YriE815qR0DWMUINN5itvYEbmUOZ4XJlXzq/M9di8zDHvEe9JxZgySNPPe7Z5HFtC5eiCZDjp5tdQPjyH+FYrXtY040V1Ey5GpeJ8VJJkuuRYeoVYmI46btQVziFZRylNRrHx6CUnjQU3d27yVDnzjT1I1naibmgezJIxAaicWUaCtQ+nUrNxLi0XLxqakWSyCclvit6E5xlFKDZY0T02LxgQ6sINYUSM+NYAr3dNhNYmADeApeJMSVxRXvy3DaxtYm/rl/gekUrqPhV4pGobXPGhuMOByAo9bifl42RwHF7XtiCt24XI5k5EG614pWtDgskqPcbZD5xeJ2kqMrOKSseguHXVsAHZlwk8drxheIHFra/KNChyjKB2ZB4VQ7NIarMhwdCN0DoDmPlyJipddkHGg1gzVjw0h9KROUkj402vHl8W2jvluCzAZNrR5phYFE6WunHlSEIgdQhd3qwPLxuMSLIMIazVjjBDD1LtEwhvdSKzf06cB0mOUVFPU3omRUpGmAdEPb1f14HnLT143GyXBX1X0yUkS9erjbhZa8JXdWYJij/SmCUg/lFAJH509Br+26eHROr9x47j+Mnuk/j+5wfw213HcexJKALSirDnZgB+8/lBHH8cgr9fuI0ffHEAbxw8gw8v38XdxDwceRSCH3y6Dz/bcQS/OfglfrHvDH6w9wz++yf78R8HzuNwQh6eNFlEbSZvKIHHc7rGvNYa0zccJ1S1ab+FmlwIarHhpb4bGa5ZcZjE24bFMcKkhczeGbzSdyHJNiJe5hhjD1iJwjnk4JyS+0Yd6nzXTLjBUbcxWFO5dehmVkF+GO20B9WTS+BzOthybUOy1m6nF0nIgKED9lRMMFhQYBuSkFZyixlZJoeooZSEjAfT5qM0pD3YODKD2JpGqYZpnlgSFjamqOmXfKiZWcKdoio8qmxAcGM7nlfpZN1F1bcjuq4NB++/RJV1AP3uVYz5fMKmvcBMrg1eWWKGGuNWHKngUrHGI/9tJFarmaTf/BKlHtVM/jhjHuxX3jk6jsJ2C3gyQRWtOBeTLbmZTIp+Xd+GLPugVBuXusYQrW0BCyP1MwtSPEmxz26n9FDRNZygb5cqBbp/SYFOZjAGyUk/wIl8XtYgIQomx/L3SZDEIGlMixXhuk7hbGFVc+OCH9wdeZM0k8ty03ismXLLc5IqkepPHQ1TyxITZLJ2w+SiJG0zRsjP87PVU8vCSRJU0yQSNbSpC3TiRLX1SFJwvGUQac4JpDjGkD+yiBTnuEgAektjNpw0tAGf0e7TWnBHY8Kd2s5vjEcNXXiut0tw+c2rTyRORxvtxwcu4Id7TuPXB7/E//xgJw49eIWrkanYcfUBfvjBdvz72+/ho3PXsS/gJX59+DR+vvcofrjjAPY/eoXL0Wn47NI9/F9//Ai/3nsSP911DD/ccQzf23kU/2v/WXwWGI57lXoEaDtxt8aIG1VGIesl8JjjynOlI0WcTPWdYs+lOqfAzSXZPiqqJCsIeP2ZrmmENHYhsWsQT2talSJkVqXozYhq6ZJ55FxyXr8eynxzzrW8T1tGw4Qb3x4kZGIBbd34PKqHZuU+8TtVI3Mo7JtCmrkfT8sbEVxnEGl4J6MY5PlMbO6S7zHWx3gxyZwYuhIv+bwHMdUNyDWaJUFfOjKR/GleCeSX9g0jrtkkQI9q7gRjgS9rDAjXdeFqSjFuZVThdVUTcltMMAyNYHxtXbAhwsmn5HYKslSkbQbhlcywzZcV8G0ATw0Ybkk3o42nSjw2ITFNTEm9XGBOsUJvXtmGEMaIcmqkD1uRa1qpHhBXsFf4G7XD47B6vGidnoZ9eQVOrwcOnw91g2OIb2xDiqFLuFPI48/dhz3xeCztnxJGsjvZFTgZmSFU6gRAjMGJJFO/gI0UgbzBVB95g5kZw+/r57hjrmwZbgne68iOPO0RlmRmTWwdX3/eI3yf/N0Xtc2i1iZ0OPGywST5gTwHcnUGN5HYx4FE67Cop8HNNlHLwttdYgsRhFRBA/U2PKw3K9KuukNqBclS/bLFKfbSubRy/Pzsbfzfe87g3/ecxI8PfImf7D+Df/9oFz64fA/X4jLx8YXb+M2OQ/jtzsP404FT2HntPg4+DcH/+9lufH/bPhk/2nYQX9x8jBvRGfjj4fP4+c6jMn60/YiooD87fBF/uvZYCltpx96vMwnwrlW0yblxM+AgV2ew0YWIrmEZBF+ibUxiplEdvQK6p5p2MPmdc8JEBnJsxrU7NtT/HiSaemQOKanUed061/opt5gTBIVhalnA0TLphn5qEXyPg6mE7E9B/hceST9RNTQlyfXSvo2ZTANziGtzyt89HZOB62nFeFKqlbgd2Q0qB6ZFqrFpCzlFdRPz0qo6rcUI08IC9CNDcK56xV40sXuwD4iqaUC1a1RCYdzAC+xjiGyy4kGhFk+rO3A2qVSqJV4WVQoWWofHRSgxGE9zjFxEAjCx2xgi+M+ZMFskHz+9pfXSmpL+QgOSBiX12mGPB6aRMRS0diCsrAoPc0txo7AeUdZJ5I378fGjSGTaJtC+DBhm12BZUjrrsBCS3+mam0fX3Cwsi3OweRZgdi8IES0nle2Y862DAloyIlP1SO7oRZjWJJ4u9jO4klmJyxkVovpl9syiaGQJ7DNAkNXSdhuaQd3ogtwYgpg3Wk/K9s3hlh2QTRy5EzK+yBvPQbpy9XMEp27GA82sR0BN+gMCL7d3QhZXpn1EashIHBtr7hfplzM4Jwszsr1PJARJZun1oxcwsLEbDFFwkG7vSaMdD7RWUA0Nbu0TkG4LScaPTlyTzJXvH7mA7zNcsP8MfrbvJI48j8T220/wxt4T+NPhs/jxRzux6+pXeJpVhOwuB/a/eI1fHDiBXx04gTcOnsI7x8/j7MsY/P3MNfz8i0N448AZ/HT7UbEB3zhyEW+fvYnziblim3FDIPBuVrThYb0FAbpuBXx6K0JNA0KWSwdKRFuv5MRGGp2ifjNMwGsvm1hGdLsDKV39SOrsk0ETgAFxpvZxHjm42anzy7lW553xXNr60tdwy1F53S0eSe34nHi5CUoGzXnkvWOifc2UD/WM9S4Aka0OXEpnaKBNzudVbYuopEltVuimVoSQl2sipc2CiNomIfB1rvvQOOKCfWUJfd5V6blRabEjpU4P86zSYIa9Bll5n983h9fNTtBM2BGeJXZ/eF0ToqpqkN6gh67XhbFlJTWNNh2xo1T68MEG+IixLVJQUTtVZPK4BXhsq0yP5pR3HXrXEFLrm6WXWnB5nYh4MjQzUHo5uw6siYttVSrE7X7ANOeXC+j3ATFlVaixO+DyeWGankTr1Ai6lhfROLMgXI+UWMxQYcyufmZV1EqGEBg+CNWaleLaxi6Et9iELblqZk2p4RpfBHM/OblUVZnxIurM+IKorwrIFKCRHv7bgzdRGQpI+XlZJDOrktDLtLc4Q7eou/S2UdVVnTul427kuKZQMeVBzdwaMnrGwPAGHQhUR2M6XRJjZD0ik7gf1HUgoL5Lxj3afaXNCG3txZOadnzAFLIjF/A/d53AL45dxH/sOCrA+9nu4zgdEodttwLw+/0nBXi/230UtY4hdMx5wIVZMTAm6udPth/AW0fP4Vc7D+PQw1cCwJ99fhB/OXYJP995HPSA/vbQebx14irOx2Ujut2JwHozbpcbpICY5/ZUZ8UTTSeCGq2gQ4ks1RHtPSLhyidXxXHF6hDtMqSCnNedbHbJYicAaRIkGR1I2LDNmRKmn1ndBN7W+0GAMd5Gb/fWQZuMgOQgy1kbOyAteiXTid+h95v3jETIpYNzUgHDJi8kampYWBcHXGBFo2TD0DnzokKHFxVa0YpoF4bXt0h1DPt1UAD0+NywzM8KhSEFxLO0LDT2j0pbNnrjjYuAftYP0zpQPObFR4+j8KzZAdabklMoqr5R6BBJBKyx92LM5xdvKAFIX4k4LFWvpYqzTQDS5qNhtyEHp2ZnxLNJO0/6YwOot/cjKKdcWimT4uFFZRuSTIPIcc0goLIZjUuQKuI72WUoG5iW7AFSO7B9FUMIuoFRJNRooOntg2lmVvq+WZY9MDJ2x95wYNb5Mq6kkRo8XhKuydvyWtsOHtOtAygbmhU1Rrfg2+ijx5ugAOvrowIm3iTeIHUH/WdH9pFTB1UcoxD7+KQbLRcNiZXoRIqiakWvp5b5gEa8qG4VW4O7K2ON+Y4RROk6ZPFR7SZNfVRLN5I7BxDb2iObx2u9BRGGHkS390m3ID5O6nAh1uDAtcRCSXHace8ldt4LwoEnoXjv/C3svh2IFwVVuBaehI+/vIEj957hUWImzFTLBqfQNDQNFhMXdjpwIjAYn124haMPX+BRSj4eJOXii6sP8Nnlu/j8+mMcCgjF7rsvsT8gDC9KdUg29SOipVcq+KPblMevG+0Ib7TKJkq1PqVzQGwd9jHMsY8iw+QSaZLdNSjzkOsYQ0SjWWxvailxzV3yPh0icY0mkXhN0x65T1T7KLm2jn92X/4rr/P+kiyL0oxVDyavYq6QSZxMZ8wdZjcoHrkuj4bE4UFBtWg0ZC2ndmReWoZlYVHUUePUNGIra5Dd3C5hCXrejUt+sUnpCWU9Kb3pXO/BOjPCW7oRWNskDsbr6QUIqdLiUlQidMOTwqxO38jCOkDSZ4Jwdo5JavSEerCyzMcbVQ0EHlsuSdIoE0npXPEDLiasLq8hQ2dEUkMHWPT6rLJdWvym26dxJa0IRa5JqUaguphh7sXrKr0ktmpG6F1SuDEbRiZR4ehDREUNTDOLwlbcPu+Gdn4ZOs86MpzDCNEb8bqpQ1iJD4bF42Z2KVK6+pDtGELJ0DToIGGlM/sDNM8roNt6I7/LY+PMqnRSVQFI8LXPKuBjO2h2po3UtAkRT2Znvyw+0tJzUdaNLSPfOiSeWDoAMk1OyQ2kVzbPPiwJ47EGmyxOApYtwaJoE7b3IsHYh/g2J3K7h5FrGcLj7Cqce52MsyEJuBiRirtJebgUloSbUSl4lV8l7u1LL6NwNSQaIXllsHDTGZiU5pdDa0BOcyduhMXhRlgCjj98gXsJ2YgoaxDpd+ZFNE6/isOlyDScCIqVvxOrM6PMNYdovR3RLb1iQ0c22RGh7ZbBDYEbQ0nvlHTo5fVw5HT1y+C8lLumRCIQlLwOAjPD3CfXTUdZUotFNjHOI7lzZGxUILCFNsd3uWdbv8MSMkpISkayi9NZxyLcyuFZFLjGJfPpWkYRzkan4V5hNUIa2oR6kiqx1IfOuSXwXuXsR1pTKyp7XELcxHYB1JJYlkZtiuVtpD7kRlzYNyHOvbDGDoQbunC/vF6cSyfCEnE9ORdh1Y1omViQdLSBZa8kZ9MOpCRcWqFV6McqqyK8fLzh7ST4vD6lhdL8ildEJ2naS002pOs7heLhXEQGHpc0I6lrHLdy62FYUSjZmWdHOje22ArnCToGZSJIuc7QAYlymNaT0WoSL1Oda0TsvcL+MWTaB4URmqzQqRYXYlq78bRSi1d1zeJEYTY67brWpTWlK9ACwbEMpqIR3OqN/FeObCzJoYKQeX8cTbM+xOvNyOjoQx6B0j2MYuckCh3jsvCKe8YkqZtFvkzULXGOQzO2JAuV7m8CNbnVIQCkZKB3lpKCqjSpLJjYG6kx4tizaLxx4Jw4R36y7RB+sf0Qfr7tIP546BzOPo/E4fvP8attB/DmrkP46+HTIv3YglnrGkeJyYH9tx7iB3/7BL/8Yj/e2ncCZ55F4MBXz+Q3frnjMH6154RkxlD9fOfYZVyLz8XrmnYFbHqHgDBSZ0VYfRfCGyzCb5NmdIEbTpLBjqrBWdEC6kYX5TE9ktx42HOdc8HBayU4SdeQbe6TfhrUJhSNQplbqspbx79yz/hdyWSZZ5ekFVln8veW1sR3YPQA5YMz4qkMLK4T6kJuhsF1bSK1yf9C+5EFuiwAoOed8WaGubhm6X2vHJyUxi502lB1LegZAYUM7ViDB5IHGqRtA4FIgLPTLu1JEgPX9w4L29qAewWza0q/JCqXfj8LEthzklW6m6EGJZg+u7QiYQUKxgJ9G5JqG6UZRXKTBbdSS8G+aS/ru5HhmIFufl2cHNZ1iG5PAPLGsPyfQU+Kd0oqNVDODASyFodUaBCnNyKxw67UVLV2I9ncu2Ff2VDoHEX54LQAmt+n+GeM0Ly0Lo1SONnMUNh6I7/LY95A+d4W8DEO2THvR9uCXxxHwv1hciGrs18y4KlypXf0iXrNBUhHUYlzTHZ6EvXkdQ8KazZjkvSSUSLQFiL4KAFDNIwbGaTHBPu+p9BREJmBt49ektAAM1V+uf0I3jl8Dr/efhinAsNw8kkIfvH5Pvx22z68tfswPjx1EaEFFQgrrMSn567iF5/sxG++2Is3dh3BeycvSSD+o/O3BMS/3XMcv9l3Cm8ePo/f7DuDjy7dR2BBHVLb+xCq4UZgBYFH0PF5GIPlzXYQfLxWZv3zmrJp27XakNHhlGsmfwq90aTn42d4LWntDsRoO2QuyLXKjrTSlVbm1Pcv369v32O2smbMjq9zTci9c69L3i9tOv2MV0b10JxIZZ5neteAkDexioF1omQqz+5yboa41PXKIz2qLGEKqWwU7liaIvSks20444+VMyuINtpwI68c5xOzkd09IG2wU5s6EV5WJ2Reo571TRvQ7V2VGsCF+WlwbIKPqGSEfnx2QT7c1jeM+LJakDPxRUENqKqQgPVmZg1OxhSgfo46NiSboHZoWsDRvrguz7nzvSrXSrCTrn+qZeaNKoT6cTceF1TjRkq+9OK+T7WqsknShWg/ZVn6xT0shbPTK2BbY5nURS/Mi+yA6pX2w5xwtiH+VwY9WuxLvvkbcz4BNzshcecjCW9qqxVZndzJHUhqsSHbPCCLraBnFAW2YaEvZHtpApCqJ6vuaQPGt1iQ2eWSxACRdg0dAkBKP6qg3IGjdRaktvbibnop3rtwVwDI3E3G5947dwu/3nVUvJa3otNw8O5T/PTDHXhn73G8d+wcPj5zGScfBeHH73+OP+w7gbd2H8Xb+0+KzUey4bcPncUfDn2Jd45dkt/9w/Er+P3RS9hx9wVeljYhudWJkFqTSLtN8DV0SiwrydAjUo+SnhsIJTyvlWzgTHoo6RmVay1xTSrXaeoVluhMUy9idSbEN5rkM2xTzbnkPVPvG+eabaQ5Nuf9O95H/oZlnsx1qxuDba3ZAntN1oxhyoMO9hMkNcXgLNKMvQglV01eLS4l5skaZN9G4X/lBkynHVMe3QqvKNXn4AqdokLPK5oXbUU1qZ/kTUndLux+EY1wvUnWcKS2HUHFdchqs+J5eq501xqcd0sIgraf2Hpqq3NV8i2vKL3NGUgf9a4hqVKD0s4eRNc0iSrxuqYVZD4Opotca8OzylYBFKuHGRyniknpxBOnmkmjO6hcK2oLSWnZS4H8mFFNVtldWcp/MSEfpyPThPAmxzIkE9Q659/M4yQXp2l6WdjJCBJ2oWFvPvI3WhfXZKI52d918Pc41MXBmyZj0S/9zXnz0tvtyO8akB0/ta0HxT0TyLeNonJgBjWDMyh1jgl3CHdDkvEyEFzkGN10PLBGjJKPAFQHwfeqthXxTTZkGPvxqlwvoGBiNCsWvvfBTlFBf7//lKiORx++wv3EHOy6ek9ARvXzdMBLXAgKE0n418Nn8eauIwLQq2EJ2HbtAf58/CJ+ufv4hjQ9IWrtH09dx9GgGITXGOVvv67rFIkX1WhTpJ+uS+4PFymBl9BsRaFzTO6LonLOiDaiGZlHgXUQZJ6mLciFTS2AdiDbtyU1d8maYC6ujCXW3H19v8ivyvFd7xu/x3XQNbuM7nkPSA3pcK/Bsbgmm2nHlBst40swL/iVvvNz62ieXkP92CryrGMILGnCybAMiVNHt9jxslbxrNfP+IQBvaB3EqkdPaC6WtE/hVbSWUx7RANTulf5hdYk3mjHK127eH7vFtVJckGIplU2IK4bsq5naw3Clk27j8Jtbm4Oq55lrPtXxckpGS6LnlXxzPBD2Rod4ivrxcMZqzUqatbQIm5kVKJyfA31C0CaZRR3pTFll4ClfnQB5a5JOVGqofUTHpCdOLBMD3In0s6Ja+sTuj561xiYJ1Htq9p2ZFlHpdqBeZ9dS0CPF2gamlFAxly9jUHQcTjm/XBQynKyN27sdzmqi0DdOdXFQEJWqri0AXO7elHsGEGWySlqF6UA1TDad5SM+d0u6fXAI+eKUp/SL9fSD0oGNm7hzkpPYJzegtjGLlE/mTFBuytOb0VMQxdOByfjr+du43dHLuJHnx+QROl3Dp4DbbaffrIXRx68xN34LOy7HaDE+q4/wJcvIvH9v38Bhh+omj5KKcCnF+7gRx/vxd9PX5cUs59uP4wffHFIwgyfXHuCW0nFSGnrBaUb1UxKPW4CHDwXvk77jXZcaptdrjPP3C+0eymGbtQNzwlNQ1nvuDikaOcRfJSM3Iw4T2nNFtm8ut2Axe2XwfvD+bYt+TbHd7ln6nd47y1zK2B3YsfCKnoWvTLs8x5YZ5fRNb0M29I6eA7mRUX6ETjsqFvS70aE3oEXmi6E6h0I0pgQrLMgvXtMPNQEI7UxOlua5tekEy8ByDWun1qRhjpBpbXiwCkcmUWLD0gwu4T6It06JG0HXpXrUGYfwfZLt4S/iO4V+lJWvATdmmLzrW9wuBCVdIsyi+Xc4yAUmXskcZc6Pu0Ahhbi2vqhmQWKRxR6t5rhebwo0SAwv0puEh0u9CLVjjJFyyte0ML+BVxMKsah0AxcTCnHM00XAms7EWceRULnCGqn11E7sQbd5BocZKGa8aFxYAqjQoALuFbW0b+0BueSD46FjTHvh33B/y+DT10IXBQKAAn+NWFDZpIAa74qHMOo6p1AhtGBeK1J2K7ZiIPM16UkoW2GtP1yAAAgAElEQVS3yi5PY7+qfwq6jRQpqiwEKSUf81EJPjovUtp6hLdG0uM0JrGvsjuHcCelFJ/dDBQA/mrPKXGSsIKBpUO/230cv9p2SFLKHqcWIDCjGA+T8/AkvQhfxWUitLgOVE3/duIyfvTJHont0XHzx+OX8daRC/jlvjP40+kb2PcwFE/yNMjsHERMY7eonJR6tPESWfvY4pDzo9Sjp5PAomeTi46go7pJ7yUby+RZ+kTljqhrFXsw2WCVTSqtzYbkxg6Zu63AU8G3FYD/yubJ71LiEWzq6J1fhWvRhwG3X9ZN7zITPdYl4aNpyoe0tn48yNfhcVEzYg39SDBP4EZeAx6UtyKw1oR9r1LAnvAUEnSo1M/4JX7Mzsa0H6m+hrFhT1ohaGo0MYsLCtsaO/YyDs2Mn6hmB+7n12Hvo2DkGx2ILamWani3TynJo+opbcpU8NEVSuamnrllxFbUY+fNALyuasGDAo0EMp/VGpFoHoXODdTMAZXjHkmI5UlRCjzKqUJwRRMqBhZQ2jcrKirZiclSfDOnHjtfJOFgeBaearoR3NSLyNZB3C9tw6OyVtxIq0BQWZOoBqzxc7rXNzxFfvS7fehf8Mqk9i8RiOtwLkIkHz1+/9KgquL2oYdVzx4/elbW4Vj2o3t5XQbVFtot+Z1OFFj7UWgbEjW0wjUpOzwlY93ghKRC0bFQ1T8hkpCSkipoaptNbCPafrRnU4yOzeRwSsBwjQkxjTaRRBH1nTgfngGqhr/YexrvnLgqqicdMG8dPIPf7TuJ39NruecE3j99BTciUwR82y5/hfdOXsEbu47hN7uP4WdfHMDv9pwUBwu9m6yK+MOJ6/j0eiBuJBeLoyW7axSRDRYBG+1O5Ty6ReIVUa22jojUo7pdYh8V8JX3TcgmQ+dZlXNUvJi1Q7MCSEpBqlkZBisyW23INnSLxFHnkXPKuXWurKNn2S9zbufc/x+4f9yUZY24fRgg8DYGN+yexTVY53wCvmLbBB5mawR4ES39CKjqRET7CGLN47ImSTp1PrVChAPjnQ+LdCgZckMzTa/nomh/D7MrRfuh30I8/PRyz3qk+oVNPPOHlsAsp9MJRTgZmYXzUVmoHZzD87R8DLl9mPMqtUNUOxVS2w1vJ9maJlf90PeNoKx7AOQ+pDv8QmKR0DFcy6yRgGzNDNDgBhrmmU3iQ83IkqSUNbES2Tgg+vTV5FJcSCzB6bhC3C3UI6ptCK+0DrzQORDXNYGXjb14UtuNFzonnlSb8YJJvTl1MLnZc2FVdHfb9KJMJIG3OZbWBHy9VE1l+GF3r3/HoQBvE3wEIBfGsvKbXDiUflRBC8y9KLa4UNjVD+7sBB/VUdozrMYgMBnwJWsWH1NSUArS41doHxaVjN5P8tgwBMHHtKuo6oXVdYq6l0FKw7Jm7LoXLIAhaOil/O3+0yLJ/nj0vIQefrvzqHg1qX4yBEEPJwFJ8NHJQgDyO6z/+/WBc/jZ7pP4y5nbuBydgyhtl3gx45t7BHwEHaUePZ9UNxkWocpJ+y3XMoDUFiuK7MMi9VjOxRxL2vcNQzOwLEPsXYJSNpvecVGzuFFpXJOweVgorWxinFMBIEG4AT6Z96Xvfv96lghiRSNyLnkFgAOLq1AHATm8pmzSzFSpG1nBq2oTAio6ENY8gGeaHjys60Zw6yDCWgfwrN6Kp7UWhDQ68bzWLKG0U1G5OB6eIWs60dgH7dQaakaWpc8HtTsS9DLNkEW/BB6zg86nV+FiZo0wcweWt8hGlq5th8E1ItliXv8a1nyrgJ8Uf1Q7N4KAdIsm1zaK7s7+5rnOGVzOrMaDcgO+TCnDM40Z4c1OydKgaC7snRMJR0dMSf8i4g0u3C/Q4VJyGfYHp+FWbgMCqzpFyr2ot+G5xo7o9lG8bhnAK30fAnU9AkJKv4TWPqF7Y2ZMx+SCULj1L3gwOL8C1/yKAsB/AD7ehO8yeON63T70LnvlKNJveQ2OFe7IGyBcVWyWUku/ADDP1IMMg0XU0FLrgEgAkjvldFglFYqBZEoF1h8SiFRVyZ7FOFFe9wASmrqkb0Bsk1lc9GwawtharN6OfNskssxDeJBTg213nouN9ruDX4r6+db+M3j7wFkQgJSCbx44jX13n0saGUMJfM7cT3o3qaoylYyDJUV/OHkNR4LiRLrxb6S0uTY9nASejKZuJDazgYxLmqoU20aQY+oTFZMebM3ADCp7RmRwE2KtnGZgCnmmXgFcgdkF7fA8anvHUWzug2lOcYIpkk0BHEEn8805V7WN73jvtt5vBYBeuJa8CvDcK+hfWoZryQM2x+Q5kAOIDArxbYN4WmvFM10fHtTZEaTvx1ONDQE1FlmPKdYZpDvmEazrwbUcDY5F5uJUbAGelBkQ2+qCfgGonwa0sxCJSDbs+M4+IWMObe2R9LyLuQ14XN+N5w02xLQP4GVFC8poftQ2KiEHMkIQfGxNTfDRCGQOJ+nSXmYXg2L1Skox6uYgtWY5g8vCA5lsnUCMaUgyIhKM/bieVYfw5l5RK3miRyPyZNwvNiBU34tIwwBijSOiW0e3DyO2YxwJ5imENPbhbpkRAVon7lSacbOwCeWjXikjYiywdWwWI+uQSaSbVgGfRyaYaoYi9Sj9vhvw+L1vg4+759dSUAGfy6fs3tU9o7KostttAr5yxyjK7UqxJvMPmQHfOM5+gB4BX/XApEhCqqmUHHTAcDBWFtfYKRKQzhfa0vGGXgEEQZHdxUyRAdzPqMSnN57g/fNfSZiAjpc3950W8FG60Qu669YTHA8MEzASlHz93RNXROLRa/rWkYti550MThDHDuN2Sa19AnTaeTFNDqR39CsOH20n6MmlulloH0Fh9xAKLINSvExbT6TZwJRcX+PovGw0eZ125DLhfGNwTtgXneBjGKh9ZnlzE1OkHaWUstGpIOQ9+FfuoU0kJzWYNelI5VpaljWjgG9Z6e+wvA4r2fTmgJj2QTzSWHG3zo6rpR24lNuEwDorYoxjSOyaRnznOGI7RmVwvQbWdOFadgM+fxyLfa/ScT6pDI/L2/BVQaM4a+gpZTlVlNGFDNe8EHOFmsYQ37OAezVdyBtcxp2cWuiGFxGRXyHpZlJwu+z+WvKR9JbOljkAL3IrJHWKVQRssnghpx7lC0CQ1orSiTU0SDa5XzyehcM+RBkncDmjXsaF1FpcyWxAnGkCWb3LSLMvINPpRpptFsmWKcSbxgSUj8racS61BoHNg7hRYcbjehsi2lxKxsyMErNhey9OYv/S0uZO1rO4Crt4y9bFkKZr+bsO/g4XAf/O5tgAIEFICdi/BtA2aRiclF7fee12sWco9Qi+OteYFGW2TC+JNCAIaQNSJWV6HfMZi+2D4n6n95ODdWbMe6QHlFIvqX0QiRvSKKHFKa7wxCY77qVXiAR898s74jihGskyIUpAFXyng6LwhyNfSpW7SMbjlwV8zGKh7UgPKlXZzM5hJBp6EVzTIR7O2OZeAT1VzXi9BWntTpF4dBDRcZLb6ULDGNuwTYNqJaU9r5cbDQeTE2p6R1DpHEd2uwPl1kFwbjKazKhxjqF9YlFCAVtBR+BtDveqzD3vwXe9fwSe4tDxyT1yyH1cQe/SkoyepWXZTKn60i+RYh7E/fJW3K7oxM06By6XdeLLtFoEaayyPjOdi8joWUB2HxPmPcjoWULpOJDmXMKdQgMuZGhwNKYYZ1OqcSOvBZSSOa45McHqFoEKknTNAo8ae/DKNI7Lpe3IHVrF7bwGNIwuI6KwRmJ9BJ/XvQSsbYQa2CKX4CP1HwPqYXUd2PU8Aem9i8J4nDu2JqI02T4NvZelHH5UTgF5Q+v4qtyM60XteFBtxfmsRoS2DMtnCof9cvIVU0BOnxsp3dMIb3bhabUZrxrseN7gwPWqLnzV6MS1CqMQvEY12yRUwUaI1oVl9C26N8HHxoYEH71ltMNoj9HjZV/wfadBT5kshm+Bj68J+KgerdJb5pNcPVJeFHT0ILfNJpKAACyzulBgsguvaKm9HxpSl3sgXlAmHjDhmzYgPaNUOxmIZyiCeY/0gFLdjNb3gJKIeZVR2m7ENTkk8M74Hw38c+Gp2H03CH8+eVWA98buE6JmHn4ULLmbVEP52i+2HcbbRy/i71/eluRpfo8hjPhGq/xmtM4qwGNsL6rRIWp+WlufqJsq+JRAulO8mIzlMcWOrnXaeHX9kyi0OIWagSwExV1OaIdnUdw9KDZeTqtV5qaVCRWzHtm4KJFEKm0FHh9zzpe8irfyO94/CTW4/cJUTnoIm9sDu3sZPRvgcywuotezJvSTLDejw/B8tgaXy4y4qevFLU0PgrQ9eN3olEEnTIZjHmUTQNHIOpK7Z1EyCdQuAFkuL04m1+JQTBlOpNbhYY0Nj6u7kOmcRv0SoFmCsOIluRZxT9uDgJZBXKsw4Xa5ERdTKpCgtyGqVCMBd9b6KRTYG2qn0GADko2d0GCULi4HwzNxIKYAeyLzsSM0G9tD0vGX269wPrUUZ2JycTImH58FpePDp+k4EFOBXWFF8vhCth7RHVPI7FvF40ozXjb04EmlCS80Vjwtb8ftLA0CSgy4V9KOC2VG3DMM4WxBMx7WdQpDFdOCyGRmX/Kgd0HZxahO9CwxmPp/FnyOxRUBOH9767DLwlgVtUnAPreKxoFJlFh6kd9hk0XGdsNZBjOyDCbohqdFOlL1ZHurhpFpEIxlzhGUOIYkIE0VlKqnmglDxwvBRiDENveIGhhR34XQWnpAu0X9LHKMI9lgx+vyRlyJzpCK9o/P38GH527hApOwXyfibyevyvPPL9/HqZexQqoU3WBCTteg2JCM3dGpw7/FRGrG9fg341qcIPjSjb2Su8r0uSLrMMqdEyLtJIultVs2Gmap2FYhFRS1faNSRZHe1IGSLhcq7cMi+bgp1dgHBXi0s6g1SCiAZsIi43Crm3PMjdSxoATHv+vmSfCRGNe8TBayb4LPvrQgJULWpRWp2yP4WEVyn9QdDXbcaOzHbb1L7L0wrR2ReqekTNIZ87jcKGZRkmUGKfYlBBtGcLOkQ9b23shSnC9ow62yLmwPzsahsDScSyrAqfh8ISf+JCQDn4bl4t2X6XjnURx2hedLGONuZiWKjHZM+wCW6X0DfGzywCqG6XWgeXhG3KnZjincLmxEimMOd6s6UDAJ6X5D+69iGmhYAXLGgICWYeyJKce28CIENg/jeokRf7gdgZPJNeLNfFZvx828RnHthujskh2TbJlAvGUaAYYR3G0ZxoOWfgQbB5HSMy0NLcj3op2cBcv7OYGyq8njVbDNMydbYSpm4PafD95YLoCtgwFZZXhgX1gGASjA21ggKvAY91Pifz75G/rRWZTb+sWuoSudUpCOB9IZ0tbTjy1ApKFzRKREhtGGItsA6I6n6kZXPEMPdMAQgAw7BFcpjqa0zmEBH4EXrjGDYQemQQVXtUgjT9piVAlTW+x4XlCLO8lFwiUSUd2K63HZeFagQWSNQdTHhKZucNCmVAPnDGdQ8tHOI+gIdgIxvLZN7LzKgTlJm0tvtUtogcFynjOzWJiLqxtZgG5kThwuPNb0jYttG1vdJMBj4j3nhInebeML6PNSXV+X5AgVgJxXFYQEnn1eCY5/fT9Wv3GfeO/+0b1Vg+w8EngCvmUvLMvejTbgK7Jm2LFKNzUndZn0RuaMriKm143HHeO4rOvHtXon7lR04H5xs9hxT6tNuF3QhNPxpTiVWIFreXpcL2rDofgKHEuuwSNdP05k6HAgoRoXCjsQ0+NGwaRf+EbJAxvaOYJbNWa87JzA07ZhhJjH8WVapWiJATmVcHmBuTUly2VlWa1q8OPfmGnNvDM6Xca9QGheOUptw9I7j6UmYYY+3Ks244muF490fXjRPoZIxyJyZ4Hrdd04ka3D4+YBOZ7JbcQHL9NxLr8R10tasS+6EF+8TsflIj2uFTVJ77hbZa345EUqjqY34kyJGafyWkX9vFHTif1JRQgx9SG8w4GC4Wnk9w/D6PVLkjZrAElDYZmfQ/fikhDidK6sS5MMslaRRFV2w8VVIUylvaaCiTecg40wyDGq7r5sG60MJZNGzXbhjaftQvWWGTeM6dGTSQ8fQw4MvDONihKNTgnaR/ndA2LX8blxWal0oNuewWrGQsv6JjeTlJl+l2MZkVxKptyxxIgcIdHNNsS19uB5ZQvoDWU4gI4R1hLSacJwAEMDDFXQQcOgPZ00fJ/5mgQug+VqGt/Lmjb57Ug9uW+sSGjvlayiiEaLlDPx/AhsNXOHqidf4/lW9E9LEjGlIa+N10pQUiVlyIWqKEGXqusQEDIdkOl5zNlkthDnkGlgyvg6U4kZS9RieA94L5zzKxJfts0ty71QNRwmThNc0iyTha1LPrSSYpKNMv0Q7h+uCcPUnNI0xb0KzfisVMGwmj60yYY7xU2gRPosqhAnSzpxrNSCQyVdOFNuwUfPU7H3dTrOJJdJeOBYYqmwhe8Ky8GZTA2uFRtwNk+P39+NwO06Gy4Ut+FGtQXbo0sRO7iKyAEPAjvHcbnWgitVndJG4AGJssqb8ZVwDtkQpWlBQWsn+haWBF8r/lUse5jESevPTwIlP2j3kX2J4T+tpRd5zZ0CQAZh7xXp8bi6E8+a+vFQ24sb1VbcaejF6cIWaeoRM7CCxNE1hFlnsSe+TFiYb9V2g2NnTDE+Ds3Esaw6nMqux5lcrYy/PUvG2SwdzuQ042hqHS4Ut2JbdD7efZWEkwUanC6ow6m8CgTqOxDRaUOsyYrqsWl0rlLV8KJzdU3h3WdftqU1tLr9UlRJMDIpm15TUsSxvTAB2OtZlyzzvhWfuKEp8XiTuTOr6WvqQlF3XLabJvioclH1qh9UbByCjwuRaVf0YDLxmnExLmBm0DdMkCdmVXI8CTx6EPk6FzQrA5iAXD26IGBh3RwBQaBxEBT0gvLItDwW7hI4wXVGeY0A4nsEKQHL9/g9gozg5ef5fTYa5VAf8zv8Lr/HmFView/qRt1y3ulGOl7MYMYSS6KYt8oEaV4Hn/O6mELGnFVm9/BamdNKSU/w0d5jbE9CDOyRtwV83wSgAkTJcllcxbCfzXT8cj+Y3NE9swQLj4se0W5IdsT7yfpN1ulRI2pj6qF7DRVjs2hxe+X1gp4hpJideFqpkxSv50xYyKiUzf58YROuVnTiw9d5OJLXgr2ZepyvtuNUSQeOpddhT3QevqoxIa5nFsGdY2CfjBOZ9fhKY8NDnRPPjaP42/MUvDBNILR7FgkDXhE4Z8o6cFXbg0saG25oHbhW2Ymz2XVChhVhsAuTWqKuFfXOQQx5lBI9JrIQfB6vG741iroN8DHcQLIk5nZO+IAyY7c0kSdVGm/s4/JWXM+tx92qTlwtasXhlGr87XkqTuTpcVvrwB1dj+wG50vbEdazgNRJ4LV9DtdqLHjcNoSI3iV5Pdg6gxsaKw4kVUpAM6bFhUhDH8Jb+/DZywQcTy3F9Wq2ZrbgUlULHrbacSCtBJ9HZeB2nVEYkmPZC2DcI1ygTAPiDSF1PIse9XMeaMbnhSiHSd/s9yBlJ1OLEj80zywJ6BjX4yJQVMuvs+IJQBV8TLimR435gXTyGEhxx6CyxSW5joyFMf2O4OMCZfIxwzSUGJQm7P/Ox0w45iAIudBZIcGsF9pjuY4JpJkHN0FBAHG+CUqCh7mvkhvb0CkAJHiY/KCCjqDi4Hf4eYKPn+djfo7ApBTlZ/iY38t3ToHV6YzrEUgsmyrtnZDHBBwfE4DcLHjOBB03E14fNw+eP1XS9JYuZLd2ocI+ICVeVDU5f2oSvDqP6qb2tVaxkVg9syQtn6l5iHNm2S9tAbpX1zcS9ZX0LlapK6BbR92sB5UTi8KATYKnoPYBoTw8X6TFnrhC7I4tEE6aRw3d0iDmy9x6eU7elauFekSax5Dcu4BXbUNIHvLhclkHwqxzosVlTgJxLg/u63rx3DgGNnvRADie24i4wTU8aR0VT+nZwja8HRCPT0Jzxat5t1qh4yCVyjM2Wy3XIq1Zqekb8iiYItSWfV5pqMnqPvfyvAI+t3tRWCQ8/nVMLK0IAK1TC1IxndzQjhdFGqnXYiIui2gPh2Xho8cx+CI8ByeytfgoJEskHj1JVEH3JFWKVHzYNIjzlWa8drqRPgdkLUCOAaYp3Kq1omBwBVVDyygbdKNw2I0zKaXSXIMtudhk5Bw76xQ14Y/hWfgivRo39E5cqGVXny7xKgXWm0BKP/KKVE6vSq6dflkp8GUpU93YnHC60OVPySVAYubKRrKvuhh4ZGmKWjWhLhZ+bmuuJ9PNmscWZcfnwiOQuHhVFY1qJRcrXyMgSUPBBcvFy+c8UgJSrWMhLSVetm0M6V1D8piAI7gIQEonSiqChYOqKAFF+geCi8/5fVadq98hwPhdPufgc36On+fn+HlKyxz7uFSYsBaPkoznSMDx3FiTyA2DajMlNDeRrWoo3+M1stQqvr5VHFDkwKRL3+lRPNAq+NR55FGpINla/sPSIkU9lXleWZesmQ73uhROs56OecJN7nW0rSk5lOTNCdK04VJmCc5lVeBUSSvO1dpwrrYbNw2DuNPUh+3J5diVUIbHLX14augXWyyxZwaxXSO4mqdBxbQf+YOLqGEh8CJwVWNHTP8aUsYhI28BotWdKWjFuaJ2nC/pwC9uheNmTTeOZTZge3QxzuQ3Y298GbYFJUvKZGCVUeg37qSXIrCgRpINaLOyBTohJrSbnlUwu4XSjoN2n9Tzzc/Pb4JvenFZVE8mWDtm3VKyYRidQ3Rlo9AbPC/WiHuaCN8elIjjKVXYG1WAI4nl2BVTiF0xxfjxlRfYHleKa9VWfBZRhM/iKrAnrR7nq6141r2IRx3TCOqcQm7/ivC/NCwChSOr4lHNmlxHwogPr/sWETbixeGydryXVIk9hW3YX8IGkmacqe/DuUoLPg9Jw/H4PNzM1+AZU6W6h6QBRyPTvlhlz7ospqyxpfRGW2lmp5MHkjmKm6VEGzWCVJe2vsYFRduFr/ExU6YYQGaMiwF3qpRMQuZg0SztMdpizI9k+hErAyRX0qZQLbAKvnp4ERUDc1KWRAlEMJGWIsMyLOBQnxNwBAylFQeBQxCp4ON7BBLBRZCq6qj6eb7HQRAS3OrvsoKEr/NvlrlmUMX+hF2DEttl5Xp5/6xcC8+bj9VzpQOHYOU1cVDiJ2tbUWXtQ+eMW4DH/E1qEtzIWGu3dS7V2r1vvLbAusl1GWQDYDkacybb2HPPC3AjLRpZQFzXgFAzkrToVrEWZzLKcCC5GCcqzDijH8S+YiP2FrXjSqMLO7MasCOtGgkT60ib8KN8BSiYAVL65nE6uQS1bqBg2A3NKlDgBr6sYl/FSVxv6MUxAq6iCx+F5uO9l1kCsg9eZeJHl4PE9qP9R5X0ZFaDRALOx+bjdlIhrsZkIrRMK2wILAhgMQBj5jThSMmyzIRqppHJ2GAz2+i4+W8ej0faOrP9kep4oUlIFZRl8CPedYkBjtMedI0iua4JpCjf8ywaF9MrEcbOoo02PKkx4WxKOd688QofB6VgT1wp/vAgFm8/jMWO2HJcrbKJl2lbXA3efJiIc9mNiLMuiNc0fwbYl1iJ/CUgeQpImgHipoEzGjseWhcQPLSOa4YRGUfLu/HGkxTsjC7AqYxKXCnQ4nqxXvooBDc7wFQf9nqnl6tmbl0AToYr9mZvWmK2g19YkJkMTTYsLoxvH/kapR4XCx9zdyb4CEbu9Aw6S4Et9ftmqyxMApDFpyylIscLFzWfM/+VJVZctARonnUErHEsG1oUCUe1k9KI0o4g5GNKMFVN5JHgUiXYVvuP4KJEJFipZvI5P0tQEmAEaUEvSZ2GZfAxX+N73AgIQIKM4OJzbhqa8RV5ziPBx8FrUzyo3VIWRanPGKd+cEIqQhgPpQahqvKkeFAB9+35ZXE0554dY3k/CDZKN5oQtfOQfg1Z/TNCTRlQZ8RDjQnXinW4XtYsLOBPW53CtP12SBYOl3XgclM/7naMIX4GCBtYwcU6CwI6RxE76BGAFS0BQaYRXK/sQOKAW5qFHkmtwp7EavzgRhg+iizBgVQNPg0vxMevc/BhcBYuFrfibJYWHz1Pxt8eRUn3qBPxRbier5X8zRMRmQgvbUB2o1GqKiisRrzA1IbfZNazjgXP2reAR6En/aWBdYXcU9pCCwDX/QI+KS/y+tE/Oa2gl3agxyuJ10Q0B5NW2cSSjS2prpBZ+mFuNW6kl0jdH8uHXmituJBajQ8fxeLjZ0k4EFuKndFF+PBFBn79VQwuVffidKUT74SU4PMUPf6/O/EItC4juH8NSXNA7BRwvKQNr10rSBgHnprGEOVaxuPmfpzKbRTjmBNKFy8H+SevFDfhXE4tTqSV41xWlQAyyT6J6kXAAMCwrgRFqye9MCysb9IccDGoi4LHrUOAuUS3tl+4JMmuxSRj1rsReBxcnJRsXMgEHJ9zYUsC7pRXAMgiXFJQsHC4tG9aQEGgUfVU1U9KKQ4CUVVDCRQCSpVqBKb6nCCjU4WA4lFVRVVJxyOLmDko9Whj8m+JrWnslfPgpsDz4WZBwBGE3EB4PXyN18THTLrm5hFa2yaZMEwqUBvd8EjaP6Wl27psZlvncOv8kqKDPRVpxzFpg1lT5VNryOydEzrF++zkW1CPd+4G43BikRD6Brb0IsDgwiOmM9aacaZAK7T77FUf7phE8qgHGVN+ZM8DTzuGcLKkBakzQPwk8NLhxl8iCvHmqyz8+lk6tmfocDjfgD89ScQbd8LE/3CvphuX8vX44lUq3rsXjsORORLLPhGTg69ya8RuplbTOLMm9BJc+0MbFBGUcLM+pSRvybuOuWWlMF1aSq+tS3evtVXvRo9ptfmJ0udPimnX15Vao9kFRQVdWfNhadUrDtEFr1dxk25Iw3H3kkjF4VWf1P8NkVSXUtKvtOMIDA4AACAASURBVPNy+snVYkVUfYdky5Be+2GRHveLm3A6rgjHGKB/lYU3A3PxaWob3o3T4lzdEH74IB0fJ2jwYVwNLtb24JV9QdTXiN5FlHuArEkgewoI1DvwWO9E4qAXdOA8aurH7TorzhcZcCClAjvjirAvqUSYoUkKy86spEFn/7iE3lnhGq1aUKQgAWggX8u3BtVTZniwTo8Lh33gySVDdzfZskgzUcSi2Q2VkyobHxNYdP/H6MyyiHXTPlm85A/hIm9lRsT4ioQGCLLy4SUU9s1sSjyChUAiOAhMApDSiqoipZd4KumtNPaJKsnf4OfVowpifp+fIeAIWr7P9/gbVWMrKB1U1E2eL8FGyczNgqolNw8mIhNsfE4AKqGNQQEpH9MeZHxTYm2Lq0JEpJ+Ylw5BzPLhvHGOhAtnc2451+sCPJoGZZN+pLoW8Lq9H+QyvVqix7XSFqVnREO3SKqDqZXYFVuC47k6XKvpwq1GJ0Jss8iagfRHvJRfjXjHOCo9kF7v6eOreGYcwCcROTiQVY/3w/Lxbmg+/hpZglPVDrwVXoxP0htxsqQDX4RkYueLRPFhXEqtwL38emkzxwJwSnlW6rfOr4HJ/n0bGWBc49QAx9mRSJwoa1hZU4jHqDX6NtroCWOEdCfaaE0kEs8PPxHp9SlHlUZCrL8t/zHwvqmmquqqvOaHH2vwylAo0eQkNoBJ4iVKRophGpx0J9tpe425weTbNHaxqWsTCsJ3n2bho2gNjhdacCinHe+FlOCj0GKczDXgSrkZ+5OqZGe6VWMR4/lZU58krQY2OhHcOYH0aSB+DEgYXhcQ0ut6IK0W54pbcbHciMNptXjeMYxr1SaczNXgWFYNtkXnSpegeOeMpAexoxFZ2BoXlKPCyOYXG5ELhfQQJM5pmvMIQNn3nSAkWLvX2ZxzXhY/JRClDhc6AcTXVXUyr2dyU9oUuWZR3D8nHkc+JsA4WHzMIyUaQULQqQ4SAobg4+cpBfk3CCpVmlHlpP3I71P68T31+wQ2wcnfJNAJOqqmBDTPkd/h+fE9Dj7nefO3+V2eAz/Pa+JQgUxWcdrN5M9kbitbdEkjHI9CmkXeHrHfllmUuirU/rThtIsKwS37WwSQqNfQJy2w2X+e0uxhk1PiZWwoelfvxKWKDnHenSs34qVtFlEjfpSsAWlMWxzzILTdgQBNmzRzkf6Aeht+fysI7zwIx22NBafz9PgiphhfJFTgdKkJp8s68UlcBf4cmIhLSYVSDM7SKVadt4wvgamNTLPk2uXgOuZ6puNENcUo6bjmqSEqOPm6B8PXEFKaZopQo2DbMqh68jn/bTRK+fprqkfmPx/559gUky5T1iMxOZRDea6CchUKYxNPknYjAcnsGe4WA6tAHwtW3UCmdRbhHZMIbOjFl5k6bH+ejk8DknAookiSXi9na7HjdRb2xxSJoXujyiyu4V2xpYhwLiN/BQjrWxUAZi8CF6stuFbvQGjvMoK6p/FVswvXtTacyGvEW8/i8XF4NnalVeCZaVhaYjEY+rrZjvSeKZSMeVA96wfZsFmraFyD9BNkzRYbsNA2IW0cR/PCGshmXTvpEdBwIRM0tL0IEkoZLmAueIKBrzGrvmF2XaQRn7MZY+Xo8qZk4me58CmxKJkIIP4uX1PVTgJCDRnwb/B3CAj+DfW7BIf6PYKOYCOwCWA+VkHE32ehKIFHCcn3CUaRiLYxeY3XoIKav8u/zc/xvLVTXpAuhFQLKsu3Oj8adp8dmkXdrE8KTZvo3BhdQrJ1TFi8gxrM0tuP7ciuVHUgxDaF3YmleD8kHYfztBI7ftA+iPutgwigqTHow+2WAYmrEXyPTVOiUr7uGsOh+HwxL66XNeHdh+G4lFePc5nVOBJfKKzgLJL94nmCjHMslq23IK5rDLnOKUkQd634Ja1SBRrXKseUVwkRcA1zPSvCZk0Ej19d/wI/BRNq0HwrZtbX14StbCvwtj5WwPdtEbdJZ73RQOXbf4TsSwSdfwVYZ3kEjxxbwLi+Bu/aKjx+xYnD3n4qGAlI7iQU30y76Zj0oLpnHNkGG14Xa/FVSilupZYjpN6Cjx5E4aPAZNzR2LE3vQHvhpXgzZf5OFpiwdmKbrzqWUbSFBA/DhwvakfMGJBGvb97Ck+6JuS4K6UKu9KrsSutCmcrjThWqMe54mYENPXgQr5W7MOrhToEarsRa51A6fQ66j1Ui3yomPEJKGvn/UJHrltaFyDSi0oAtXoANlYkeLhACRSChBKD8TWCghKFi5bv0clSMeKW51z4fFw97pEjFzsBxddVNZFA4nf5O1z0BAoBQZByqNKQR4KHf4MSi7/B7/CzfEyA8jH/FkHH3+Rzfoff5XOeM8HJa+F7lHjqefP7vD6eg2gHGz01yKnavAzZoJSWYMuS6d8OxZbjPCZYx6UpzOm0Kvz1cRROZVRLuzRKt8uUTmQz0NlxvtqEP7/OlE0zuHdR7mXiNBDsXEH0CHCm3IyA7jnc7ZjCqVITTha3iVnyfkgmrpR34F69FUeTy/D7KwF4Ud8p/odH+VWSZcJE8KahSYnxjvgVqTa34RyhFBN69w2g0eSaX1kUoClCZqugUdc6j4rQ4We+MTZAR2HEofbl+/bxvwg+gpAI3ziSc56VuASdfwN88ngLAPn+5ncUFZYJ3KtrPnhWFXuSOjI/xSp6tQWZk41KbIOosY3gXlIhHhc1YWdQCg7GlWNvUh0O5bXjj2Hl2Jbegnutk5ImtDNVI8BjKCN2FIgeXRdDm56vW819OJTfiPBBD552T+Ju2wAOFzTieqNDJOInoTngOJFTj9u1XdIbPcIyLl61/EkfyhaAhlWgcQ3QrQJ1S6TRWBdA0jvXsqyAr27KJxKHC1h1htA7ycXLxc/XuXi5sClduOgJUoKLg4udoCEYCVAVxFRR+TkCmNKTACWA+HmCho/5+3zM76nA4fv8+3zOv0XQ8FwIPH6Hr/Pv8m9SChL0VFUJaL6nSlU6dxjop1rNcyGvCdt7cxjXAdpu7NnA/g2tdGgBqOB5DixI+7ML+fW4Wd2JMwWN+LKwRdKwdsaXYm9mLa5qbbhQa8aJUgMCLROIGvHhXvsQ9mXXy/1LngWy3MBz6wKihoG/x5bhk6RqXNUP4mCuAV8kVuNgtg7vBmVIJlWA1oGvSprx6b0QvKrSo35wGu2TcxhbWxcNTAEZIUDTySvCQSrL19akqYkqqdb8HiG2Jbg2BQrZxtQ1Lkfpzr5ljav4UAWWYp7978Gn9mr4TxLw26oon6sN4FUA8qRUibdRHi8l8mRo8mLdz9KJr4OLCoCV31lcmFEuzrsidGp8lZdAFy07I1H3zjc6sedRBO4VtSBA48CR9Ab8+n4idiTUYWeiBodzDLjdNCh6/Hvhhbim7QNvWsIUEDnux/vxxXhoGUeqG0iYA57YpxE3Axwrb8NPHsXio9gSXGbyd5MLxwubcTK/CTequ8SjdjpHI562GPskcifXBIhcWBzVc0CrH6ibAaomfKKq8khGtpB6M4I1nWDBMduZseqfryd2sHdDrzC/lY2sCGi4+CmhKNFUkBGcBAZf5yCY+T6BR2lKsFClpDQiSCmhOCgtVbWSQONvE4QcBDUBpAKVr/GcsuyT0l2Kj1PMw/KYR/ZsyLCOg7m9JAQqHlxSYrLzyvXyWtkpiu2zy6a9Ej/jRsWsk2MppfjdVyH4LDRL7DdWEtzW9+JKnQ1HCltko/zV0yRsy6jBM+ccIsfXEDK4jKgJP5IXgfMNVlzQ2gSAwb1u3Gkewu70BrwfWQze4w+jy3FT58Ldhl784WEMjiVXS/L/B/dDEVCiAzsLMbxBe42DoCMIPCsLWPPMAn7W0y0q1eQUKFvXpzCL0TPJtayucQqafzA2fCAKbP6Rj2QjtLfhM9mKJvWx0ijlHwFQ/cS3jqreqjRY2dL+iBchIlcxKElBz7G6ugqv14t1H3cY34ax6cfS7BQgOW5ewOfZuFiluaB3HRhd9Ir+TRB2LgOPCnW4ka3BudQqSYrdn1In4PsgqgT/4+ILhA+s4WKtHR/GFONp9wyOlBpwtKwVGStA/CwQOuyR8WJgCe8nlSJo0IurraM4VGrCnoIWnK7uxvXGXhzN1+OtZ4n44HUW9iWX41J5Gx412hHSMYB45zTyN9RSctloKRkpCdjNhqrY9DpyeqYR3+5CqNYiCzq1a0QWcXRLD1gtwgXPBU2AUGJRKhFQBBcBRAlE4NBWo8Sj5KIdSDWXAKX0ohQikPiYn+FjSjR+hp/nY6rGBCN/j+ClRCNYCW6CL0zXLRtB0cCinDM3iQi9DTxPnj8fE5QkEuI1Ur3kNfKaSaJVRx6XeSC1f1761F8saMDJrFpcLm3BPZ0dVAffD8uVrKTzGgfO1jokTnvdMI7oaYBZSwG2KSTOA7HTEPCFj3qRtAD8JSoPQfZ5uZeH8lokqeLvEUV4+3kGbuqHwBjdy8Ye8VCei86VjCESM48B6FtVzJpR9yom3SuS1qVs69SzlgHfItZWZqSg1e9ZAYdS5rPR24v9vYgoYuKfDMHApiPymyD7tgxTn38LRvL03wT5Apx/DFH1y+px6/nwcr491PfVz6tH/jX1MY/8nOqa5XvsZb22RikJyQiYnJoTSciA5ciKX3axEQA5bRYElTUiuH0U2xKrcbLYiP917TU+iS/Dnsx6XGlw4GiRAT97Eot7naPgDeXO+tw1h5CRZezK1+BQRRtCJoGYRSB6BnjiXMUl/QB25TXhvZhS/C0iX7LVaYt81dgjkvBCaTOulDcLECPNI0KZTwlG6acuztZVBYgVY6siRbiQCUJKPIKQFIyUhgQfVVFKLFXlo3QieAgQqn8EpCqtCCiqlXyNjwkkApGfJxAJLkpLgplg4/sEHn9fBS+/T8+oateRp5LSmedGqUygEXQ8N0o8nmeBa17YyclQXj3JhOZVlA4vSxX3g6o2XC1pBEF3uawJ9+otEofjfDHT/4a+D7tz9PhzdCku6Afwahh43OfF8yEgaGANd7vGsD27GsFDSzIoBV/1L+FqkxMfJJTg5w9iRCvZn6OT+0mt5idfReNEsRFBLf14mFWK2m4naMORfH3Up0g6eiWdE1Mi8bg2xbxhH5J19p30YY0ambreuQhVsLFZ10ZbL1mDxOBGWI4fo0DYHBta2lZ3i/pYXeOykL/x39cqqaoBfmfw8aJW/RsXtwFC9QTkyPolBhn9G80CNzqRqSfHiWFvCLd3wybkBG30svaueASpMzMzAlj+3uj8okhCOmzY94+LjkQ1gXUW/PleGG6VG6Vi4nhWA27UdePvoTnYnVGLU1VmXG3pR+gEcN85j4NVZgQO+/Ck34vQaQV84eNAkHNJsiMO5+pwvtKEg+m1Eqy9UmXG2bJ27E2vFTWVquruxArcqmyXHT/eMYm8kRUUT67JKJ8FaljdPOYVeoyAaiNeaLuFUIekOmzNxUHi4cQOlxzZuYhgIN0BJU4pwwLDy9J1lURW6d0jIkXZ5YjqYGrXkHwujw4Z67i0IWNz0gLXrAAp2zEhEiq/b0YkWYZ1VI5sWUZgpdDzaB5FjGlYOFTJoxrS1CNZSsF6B1Lt06icASrngKp5oHQKyOhbQHhbv/D5MKGBttv2pAqZlxPFzRKHu6Nz4Ga9VWy7h4Z+3DMMiDZxsrJLpF7EJBAxCzwfBp4OenHJOIRjrIMb9uB2xyj2FunxYWIpPokvwYehOWLLMdvkQl6jpDDuicjDy5Z+ZFrGNlXK2VUfZn1eEQKLPp+kdKlrizE4Vo8zb5kA4pGZXLIG19fh86zC5/EJFgg8j8eLFY93Kx7lsyroZL1/a80LMLcIStWx8g3cyZN/BL7//Kn/0isqiP7Z8X/3I1u/91/9rApuTq6S/uZHg2MASbXNeJJVhtspRdJP4kaBHj+/9hIs/ThRbcWeEjN2Vtjwt/xO7Kwfxt1B3vx1PHMsINcDRA15JGXpRnUbknvnkD6whMS+BZF4lypM+CixBm9HlOLDLCM+yO/G4YYhHK/twomqVhyrNOBSvRn3OwYQ7JxFzIgHSWM+lPuAgjkg3uVGcPswAhrseKJ1INQwKHyR0R2DEup43dwjnV9JTsXQh/o81T6lkPM4Z5HTPy/kVVl9s1LMzMaVSd3jQlmXN+hGvHkIsZ3D4PvMFCGpT4ptUn43yjgg7/PvhTTZJBUw1NCH1x2jeN42jIAmFwLJKGcaR5RjAQkDq0geXpMjExwCO0YEWCfz9RLspneSCc2nWiaxXzOMNyKr8JfYShzMbcaFsnYEd44gyjqG3PFVsALl/2fvLcCsutJ879xvnnvvzNyRnp6WiXRIJwEClLu7oVV4cIfg7u5WFFI4BAsQCO7uWkW5u7ue8lP6u8+7Th0gSSedTvc3TO5wnmfV2rVl7b3XXv/1vuvV/clFSrWzOjSdnenV7MtvUZPetgoY8jgLq0O36XkpjD7ngvE9epfJ18MZfljnWycBi9ZefMyWy4/Ye/0Jl8OSlSxApOUyBl4fQ39uW8aYnPNzfj/WtrT3c9v9E3q+n/N4//nXyAwjLy0foUTbTGxeGZdC4tl88R6zv7pMn4Ajyu1p/LUohl6Jou+laHpcjMHy2HMmRVSyPKGa7dmNbEmpYktCCcseRBMYls6VshaOpZXxVXIpp4tQIu2xl8OZ8SyPwddTGPmwkMF3M5gUlMn0kBRmBCcz8VEMY2+HMvFOOPNFQRyVy+b4YvZn1yljgJMFqIG9PSyPbSE57ArPRVhXSb/8ZWQOB+LzORJXqAQWh2LyOZxUpPZvCU5SeikZxDuDU5E87xJNQK7bLum9Wq/bHpamqJI898lUDXtjcjgQpcupfjA673v/74nJV24z4nmy5lkm22JKlbHCsWLYm6FlfXQRK0NzlG5NOIcpt6OZ9SCBOY+SmHIvlpE3YxkfXMKIB3lMeFrAjGc5jLoQrNQFX2VVKuuTI/F5nBLD7cJ61j5PYPbdCHZm17Ejp4GVKdVMCC/F81IU1gfv4nD4LmPuJDD0zFO6bj1BwNMkhm4+wpYrTzn+OIJnaflklddTWq/73nlF5T97wP/nj9QfvuMvFnzySgI+oYYi0ZIYGbElVdyS5IwhSXRdEqAcJYV9HHzqMWNvxOJ64CY+J54y4GYi/S5HMTdKw45ilOBl7OVQ5Z0szsGnS+FQei0Hs7QKfGvCCtibB0tCi1kcVcGkh+kMuxbGyFuhTLwXxfTH8cx6msi0h7FKyDP68nOmXw9j1q1IFTdkU2iucsbcG68hMKIQ/+BMtoaksz08g51hWWwNSSXwxav/t7xIYUdoJpueJ7InMpfd0Tlsfpas6qMpGraFprEvOh+x1DmSVKYmDbleztsdkaPyq0v9ZUIhB+KKlGmd3GevCH9iCtgWkqXAtym8QIXzWB+cw8rgLBY/TlFuYGJTKxRo8q0oZtyLU8Cb/iBeAW/y3Rgm3otjYUQps4Pz2ZbRzI7MBhY/S2Heg1g2hGVyIKOCE4UN7EurIDC5nE2JGqY9TmZ1Sh0zwosYcS+Jz69F4X3iIZaBZxlyLojBJ+6peD6HEkoYEnCYNWfvKsuT9Dqd4lvWclX1uiWKqKv+X/j9YsEnC2dJs6ttbKCmuVmxoWIKJLamyY0ob/EVlx4oqwfRNYmli0hCu+2/ooA4O7qSgbdT+dD/FL0vhLMxq4Vt2bCvCKXMFempDAgRHBzMbVYUQeotiRr8E8pZHJHLzKeJjL0ZyqhrwYy/FcaU+9FMvx/D1LtRajCKWZSsIUWNIY7FYgI3/3Y0U88/V3rFjUFpbHqRwbqnyci2eFPvii1ia3gOW8Ky1bHtUflK/yjHZXtfYpkyt5Pjcq7+fLlmT3yJKoGReepciSUi23LtmseJqqx8EMfCW1EIO73gdhwL78Qz82YUky6HMO5iEBOvhjLpZiQTrocr4M1/msq852nMfpKsyqKQLFZGFyqD98CUCnYkV7AzpZLDBU0sDUpl8Ik7bIorVmvogNQaZJ0XkAu+54Jx//oxvpeiGHIzAc89F5h9L4Y++y/RM/AbAkOzWXc7nFlHLnE3p1Lle5D4rWIdJakMxD1H5Afya2x8C743OPnIV9CZuslqWc9+ihWN6HZEKpomQAQelNSx7sYz5p29w5hD5+m95TBTr4fQ5fhj+t1OY3xoOe+sOo7TsafMjdeyJhvWZcHC6HJ8j95ne0a9UgDvSCjlfIWwj2V8XdCo/A135jayOa2apeG5TL0fx9hroWrQCqsmTp7i/KsvM+/EMPVmpBrk4y88Ux7SYoO68G4M829HKUGFrK+2xRbhH5HL6qA0VdaHZrEmOJ3lT5IQIYYcE8GG7JNjG8KyWfsiQ5WN4TnquOwX20gRPIlBshSxk5x+OVhNQhICRNbDIimefCWc6TeimXcvkfkPU5Tf5aSb0Yh6YNqDRGY9TmFpeD4CpB35LbqSVcvR3FqOZFawJ7mEbbEFiDWKCK2GXgpmRnAu82M1rEhvYnMpjH2WR/s9N3h/20W8L0TS+dgDZZXSe/1+ZWgvof3WXXms4pnKxJnd0mqF0rq2l6hfSjLeqs5SCvA3OPr+Vrf+hVI+HfgU09nSoETIYhYkFFAU9AJAsdfLlvASWp3Xxdn4dKbuPsKy09eYe+auYnV8L0TgdSIYywP3GP4kH+uvnjAxvIoZsXVKOLM4oVapJAKSKtidUc2pwiaOZ1bwdV4tWxLL2JZZh0hK9xej1jJr40pY+DxdUYyJNyIYfzNCsW6yThK2bcbDBHVs2t1YRWEEjFIUiyeU5nY0epCKx/7cBwkqTojsm3YrSgFZ9sk1i56mqjWZGAnoPfzlnCkSUeB6uHLHGnP+GWMvPFf75BpRcosaRtoTx9HZt+NUEdMtKVPvxDHnUYrykVsUksPyyEI2JlUSmNvEHlkPlsDOAtiVo+VAaimHxJ0nt4adaRoCUjRKkrkyvYF+NxKYn9rM2OASJeByPxuG/ZFHGOy6Sq/zYfQ4cI0Zx66pjL+zdh8j4NJdpaMTPZ2YHYpAJUtTTUVrqnK1vGjQUldbCc0iCRfK10oG/1ZIeAPt/GLBp5LKi3L+5Yf4NgUsqW9U0a4FiBIeUD6qAPLUsxC2XnuoWDAxVxp49jlO+68z8mEmfa4l0vVqIr3vZPDJntssTEfN3quSqtiZVa+kmV/lVCkfMrE/3JRYyfq4cjYnV7Mrr0WxrFJvzdCyIbGCJZEFzHmaxpSHiS/LpPvxfHE7Wg3w2U9SlcPwzEfJTL2fwPibUYy9Fq5q2ZZ9k+/GMe56hCoTb8eoY2OuhjHqcogyDpBajsv5UibcilbXyH4pcq7sn3QnVu2XNoWqjTkXpAC34FGqApwYGcx9nKpYbmG918WXsyWrXoFOdKKiGlifVqPKtqwadqWUqH7Yl1XNjqxaVidX418IizLA9Mgj+t7LouetNPwux9L/eryidtabTzLi3FPWPYpTSUf3XLxFeF6pApveGVV84yoalVUlMqFqNGW6lFpqdS8mXw00tMZAeQN4+Zve8hcKvtbgoxJ2W1zylVu+zoJG7EclWI3oIcVuVGZPYUdlNi2qr1e1RC6TIELLb4Yw/NAVeuw6y8BTz+n69RM+v5XCgIe5/GbrZbwvxTEutFSxomtTatRaZ3dmjbITFRZLpKX78mFPAQRmNbAppRr/5Co2pFSxMbWabTmNik3bkF7Lgoh8ZgZlMC8sl+XxZYy6FcPgy6EMvRrO+PuJTHyYzNg7cYy7G8+0Zxl8cS+BqU/TmfQohdG3Y9UxOU/OGXkzWl0j+6Ud2Sfbw65FqPZG3IhS++TayY9TVVv69qTtKfeTVPzKZaF5+CdUsC2tTrHXMmlsSa8jIKNOUTt57pWJGlUEeBuz6/HPacA/u04pxPflaBXLLX2zuRhmJmjpcSOJv990Hpuvg+l/M5luJ54y9HwwAw5fZ+I3OgdnSY8tKiKJZVla36LyGNSob6UDXUFpmS6RpBiGCaUT4LXU01wvsU/E1Ev2vaV8f9OZ4C9qTLSbyv6u1QxIeBN9aW1I/68wKVJELSFFwCiUUKJMSx7tpRceMOPCU8WWfX4uBJ9TwfzThtP0up3OiKAiul+NY/yLfDYVgH9OE5uyGtmc0aAsNSTERWBOi9qWfVJEgb8utZb1aXVsSNeyPrOeDVkNbMxuVNdLGysSq1kWX8mCqFJmheQz+Wkm4+4nM+p2PMNuxKhatn9umfAojUlPMpj2PFu1Pz+yhMWxGpYnVCGUfFce7MyF7dnNL4tYnmzJbCQgvV69z8aMegRYq1JrWJtex7rsRjbkNhOQ16LeZVsBCJs5J66G3reSGfAwG/uTIarvpA97HH+kWNxldyOZfPAMy05e4HZatkqEI99A/130tXwb+axKjaR84GRL5zXwLUNnldf8Lfj+Irz8TU9W4HvN/k6PtD9VvwZG2ZRTqpsaKGmsJ6uhSYVCl5zpc88/ZOTxO3Q/eJsOm88w7EEWnS9E43IujCGPc/j8XioTQwvZWCDWMloFMAFXQHYTW3JbFCiF/VoaW4YMXCmvA+918K3KaEBfVqbXI2VFmvZlWRhfwV9T1mU3I2VNVhOrMxvVvfT3kWdXQEuvZ1NKLf6pdQpwMnFsStMqwKnJI1MoXZMCnABvbVYD63OaWJ8Pi1LrGfk4lxHP8lUfOZ8OVXWfawl8sPZrxUlslGw/T+JZdf4OFyLiSK+rQ4wG61qFZH/qU+lth/VeBqoWAIrdsEydra48bynf3xRNf2FjKu69sJ+tHIhMhN8qP0AR5YuLU0krC9NAM+UtLSpBiiQ0WXn1ORO/uYdbwEk8Dt5kzIN0elyMxP1sCL3vpmJz8jmWXz1gYbwo6quU7mp9RiObcmBz3quyMqmGVcm16vjatHrknI1ZzWzO0YneBXgrMl+V5Rn16MuydO23jr1+3k/d1rcltbS3NK1OlSWptSxLqVUTw0tKnVrHusQqlsdrVFmWWMHWQvDPTUWxSgAAIABJREFUR4FtVYaWpclVLEjUMC++jNlxGkSI0uNGCn43U7E//lypbXqdj8D70B3s1h5RFjPTj15lx61npGl1Fkl1itZpaWqs/VGzEAGg/L4NRHEG0juo6myA/8IR81/u9F/umk8/bQrgZPt79Y9QRTm5RUtdVYmSoAnbI2yQGOk+L6lRNpW9Nx1Uovwxl4LpceIBfS6H4/7NUwY9zGB2Yg2WB2/gdymEyaF5yIAWqrIkqZpFCZWKnRTqIkUUy/qyJqUOKQqUmY0vAaYHh7SzOKVGFT1Yfm69KLn6ZVvSrrQj95EizypAE4q3LbtZscnCii5N0LAmrZZNuc2sTK9jRZq8Vx0rswTAtUwNz6OXGK0fvsWwp3m4nw7D5tADfM+G0f3YQ7WOXHgvlqG7TzPj0Dkia3SS58wyjVqHNzTWUF2ep/pefTAdxv4sKASEQvekCACl/L/w++WCT9/7+g/43VrwpSzV9Qf0F0jdTEu9zL6NKlNofb1uThYrCgkMpSKzaWH15fvMu/iQqRceMfz8Y4ZdfoH9vktYfnmV8S9y8b0RhfPXD/A49YSRD1NZlFTD2hyhFihK6J8N/hnNrE9tYE1SHWviq1kVW8nSWI0C6uKUKpakVrM0rUYN7uUZdazI1KrBLvVfUwQwUqQNaVfAI/dR90qpZmlcBSvU+q+Gtala5XEglFkouFC8pck1qsyIKmbArRjsj9zC7Mur+Jx9xvAHSVjtucboO8mMuhrF9HsJKqrcvuhcttwJ4XhIvFpTSy6GnIoqtc7WzY4iHBMbMXG8fv17/PltPfj09Z+/4r/+Gb988P2EPtZ/Z30tlzQ1tSgrdv3lyv+wQRf2TYy2xQNahDLn4tIIfBzBkpvB9Nl7ipFnHjDzRTqWB6/jdjGYXvfi8bsZjdOpxwqIva5FMiEoh9lRpUpRvyymgpXx1axPqsM/tYGA9CYFyOWprUBIr1XAEHAISPRF/v9bFH17elALIFdn1iurk1VJNSyIKGZhZIkSAAmrPCuymPFPMxj7OI2el0Nx/fo+3qef8PntWIY+SKL7xRfYHrrB0AsvVAi+NcEZrL4frXLgSej55AYdtZOJTAQo0ucSmrK5uVn5ddbViRe4jqXU9/1PqfWg09c/5Zr/6uf84sEnH/fPFWErX3f9UBLPRokmDJW1zdTWyRny04m2G5rqqG3RCWTEVyyksoajUcnsiUhi0Y2n9PvqMqOepeJ5PQrTk4+w++YJ3a5H8/m9ZHpfj8Hn1HM+vxrDsBvxjLuTwoxH2SwKKmJlRAXrYmsVEMW4eFlqpSrL06qQsiK9+mVZkqzhrymLk8qRIm0sTan49n2EnRTgRZUyPSiHiY/TGf8wlTF3E+l3JZzuZ55hffA6Xc4+U1Svz/VIvM88xfP0E3reilZG5fMexhMQlELg80QOhiaS0SpBlhiv4tojMXyEo9BqaxX4GltTZIn6J7dQo76H8qv79kK9df0ga4jv/16tAV+fRr9/3i9lz3878Il94Mv4MbLd6jCpW+QLr9pAY0ONkqxJ1KqyxgblrCnWF5Il6UFhBYcTchh06i79Lj5nwJUXqvY9/Zju3zyk15nnDLgURt/zIfS7EM7ACxEMvhTD0CtxjLiaxMhryYy4kcSA69EMFGpyP5Exos8LyUVYvHnxGuYlVrJUhCQ/UhZmaPmhItdNDi9gYmgeXwRnM+ppuqJaA+7E0e9mNAImceMZfDuRUQ9SGHwrjt5ng+l24hG9zz1j8LVwep16iN+pe/Q684AhIoRqNSCf9EBC8AUp96TrmSUqgLCYg0l0OqVPlZzjClCNulgoahu09c3USoQGMRkTFzq1JNAJUHTnf0ta9oP40QPwB0/4BR34xYPvp/S1fp58vX6dWn67jVeDQM4RmigDRjwnZHBJEauZB4VVBD6LYcaJa0w5eYNF14NUyAnxohBP+B4HbqgAraNuJDH8Tjq9LyXgejwUm6PBOJ8MVaoL8Wcb/CibgQ8y6Xs/XUlT/W4n0/VWEo7nw1WxOR+G9blQLM+GYnEmBJPTL1TpeDaEdudCaH8+lA4XwjA6H4rxhTBVLC+E4XozHq+7yfg+zKD3k2x6Pc6i271UvK/H43opive2X8Hi6BN8rycw6nE2XzzOUvrF3ifv03nfOQafvMnsW0GsfRbHsjvPmXXqCgvPXWd/WBwPijWqD/T9oQtOpOsrfR+/AtSr3v3hPn91zn+nrf8W4Ptbf1ABo4QtkEjdyc1wMy2fgGsPmXn4PDOPX1fJQCUQ05gzz/Deew3rwIs4HLhPr4uxfPG8lHkJDXQ9F4HPmRA8v3mBy/Fn2B5+iOGXd5QBcpvd17D7JgirU8HYngnB7kI4rpeicbsWh8eNBNxvJuJ8OwnbWwnYXIvF9GIE7U8H8eHXj/nwq/u8e/guv957nX/afZV/3XGZX++8wicH7ig1ic+VGHreSVGgF+di8703+OOGExgHnKTn0dvKJ88/NJ1Z5+8z++RlFp++yp6HwdzPK1J5D4UDyBW28m/dqf8N23sLvp/x0YUa6mOPZjc2KxCK3aiEyhdd4fLztxmx4xhTvr7F0ruxrAvJYtmzTMQpV8BosuYr7LeewmXXBbodvsPAs8GMv53AjKAcFkeXKf2hrMUmBWUz4VkWY59kMOZRGiMepDDsXhKD7iUy/H4ywx6mMOpRmjr+xbMsJeiZ8iIXKVOfZal13IgbMfQ7F0zXY3fx/vIa7nsu4bzzPL2O3VMxa8TOc01orvKOWH4viqknbqpn3/k4gmtpeSozrABOWMvM+noKxYC9lSP4GV339pLXeuAt+F7rjJ+6KexTZYOWWlpUGHGxGc3VapEUUSIhFW+KZBHUVKOCIYnLzOLzD1l04THLb4ax5kGM8sOTcPZrxF/uVqTK6Dvw4BX8dpzCc8sxuu86Tdfdp+m25yw+e8/Sfe85uuw/r4pE95IAs1K67j6nzpHjEi2s194L9Nx/XuWpExZYclhIlmDJbyF+fVKL/6DksFh8NZh5Z+6z8Ox9Nt0NU4GX5Jkls29aa14CYbH1kZwrWpqpbG5oTfT4U3vr7Xk/1ANvwfdDPfOj+2Vd2EBzi5aa+kqqG6rlP7UuFBF7gTKj0oWyy5YEMq3JZMTH8GlRFediM9h04yn+N56z8XoQa68/Z/3VZ6y++pQVlx+z/PJj1t4MZs3tF0iUsNX3wll/T5cua/2jaKQEPk1gx5MEtj9OYNvDWLbcj2bbvQi23JFcGKFsuPKMTdeC2H47RCWsOfw0nuMvJDNuKqci0wnVNBNdBylNuslCJg2R7OqLvIes6YTKiSleTWOdkmC+ssj80Q56e/An9MBb8P2ETvr+Kc001ml0wVdfimG0aJtqVM5tbYuWepoUlSip1yJFvOyFgkgtHtqyXhQKKSVT4k0269hWAYM4lD4rrlZAfVhQxb1cDbezSrmRXsSVtAKuJOfxJKeSZ7mVBOVXE1qsJbq0gThNMwlVzSRWtygqLIlqssU5tUFXJLVbsXiHtwqNhHWW5ymX8HuNICHUq1ugtqVFl31Hwu0puxIJgFxPkwCwtoLaCqGHf1od8P2+ervnh3rgLfh+qGd+dL8MPPElrNIBsLFS1S0tQivE3UVLU3Ndq0W+eNw3Ut1Qi6a2UlEQkQ5KMo7CphaKWnMH6CmODGvZLm71PxSKpM+c8/o5AiJJxihhFgRAQqmkCKWSot+WJ5L76Yvo2eqaRdzfolQusn7VF1FgS1iO2tpqZcgsYBMH1rraCloapFWdYbOyUnkLvh8dIT/l4Fvw/ZRe+t45og8UE6kaXd0kOStagddSR7PksECsOmqUzlDF/FfyQR2r2txS/1KFIQNfJIdSxPZDih5A+looZlUzyktf09yiKJQEE66qB0nIKPFNBFACLH1b+nZFrykBYyUvgRQJTKwrDSqArMTBkSIBZfX6OeW+o4ekRApo0qqic+vRQ/Ut5fvesPgLd7wF31/YYbrTZeDpB+F369bh/1rWppcJN17uk/wWrQrm1nxteuWx1EKBXteJyR3kf/2d9AB7vdYf018nbXzbC0Ce+fWiv+K79evn/Nj2z+q4txe91gNvwfdaZ/wlm3ow6Af7q1o3YPX+aLpw/K3smsp8892kG5KQ4/s5L14B5ftPJffSA0/v1qi3edRb/b+8/0vIfhdk3/3/FdAEtq/KK9Drr5D7v/399T3wFnw/ow/1g19YRD0IXq+V6VQrtfp2868G+MvwF/owGK/VL7M7SbQuPbpeq4U6qpRrknattej8vV+53LwCzysgvQJ06wTRSgnlXPnpJxABmb49eS89O6yvZd9bAH77y/6c/96C72f02nfB96dAqB/I+vp7t1FJLFrjz7wGPAGlAp8AQn/xd2thQb8DOj1YXlK+l9RLmtEFl9KDTED4Cpzfvo2euv0p0MmqVg9AeaS3v7+uB96C72f2nxAiGaBSy4D9E/j48ZZfo2R/irr9OdKiZzO/W//4TV8d/e7zvv6/HoDfreV99fvegu9VX/7crbfg+5k997qA5Eeb0I/S1+vXR/oPbf9oozp/OAGeXkDzvdNbnYkVAZV7fPf/11jH1x9N2nn1SK8opm6f/v/v3e3tjp/RA2/B9zM6TS751rpMH0lZrZ1a13WvRvDro/nb23/BvV9vTt1fRffShcoQAL6inq1CTX1sm9dr2RbSJbU0qBpqrV9/dmFLWwMW/cla3vft76/ugV8G+F4feX9qu7UbXq1jXq1pXgoZvnvdy8H2w32oWyPphSQvb6IbuJJLUHIG6NdregDq2cnv3k///3ea0e+W+vWfLgTGK+2A/n99LWs+fREv8W8BULChL3o+UQ86/f7Xbybb6gH07ypkUiSwIqV9VaswfnoVif7BX6OUcovXdr/657Wd+k2pdd+mtVY7Wte5ikzrn0mdqP58+9pX+3+pW28OfCJwEGuL1vTR0oEysORXL1loZFvGggwW/cCRWlb8dS0gUVZVnnpdOzV11RRpiiTVPUV1pVRSQ02LmD7rViq1FRqob5JUNyAJEUV5TL1uhtd/Vblf6zOI4KKiTqOur22ooq5OFOrQpDJ26J6pvrhCPaO2RoumoorSyip1ubxHc4OAs/UdWp9fcFnd1ERFU6N6jfK6OpWwUb2WHKsROxTdr6ZSdz/VYGtfNUsyxyqxXWlGrEmrW8Pw1TTXU1dfq6PGzeIhLG7jshiVB1aBMNVzqudqJZK1jU3fWr/pnlnX73IfGhp1uclVfzRTWyt9qVPWqyesa6RFKx8HqrT15FWUUd1q31rTIP0q923tA3nBVgdaMQQQ4wExM5CAuI2N9crptqVeq4vtoiY0UcfItaLgVytrpbOsbtIi7ypfrqmlkcpKjbpeXq6xuQFtg1gVyZB5pSeV55NHUe+nH0+6x1bP/ib/vDnwCfCqa1RcD+mAyspqFVdFYqtIDzY2gLauCW1tIw21zTQL6NQoFcOSVrfpOmisaaK+th4BXyONVLRUU1RfRkFNMdXUUFVfqT6U+irS+ZWNtNQ2UFNbQbW2guq6WmprGqitaX5Zamob1OCo1FYgnmsCYAGfAEpb0UhzVQtNpVqq8srVoJa2ZYhUNwicQVNRQ1VFre6YuMoL8Wg9RySGmuYmsspK1TViR6nRanWvJudIuPTKWhrqW9RzaUo1vARiYxMNNdVqwIl3QVZFKdkVpdQqFlFGXTM64IjJSxMIOLRNCiSN9S2qzXqxiGlseWluViFuQmXlVFRWU1NTR111XaubuWC8Famiemho0FnKqI5s/RY1zVRoaqjU6tyMJA5qaWscHJVlWN69VhmLSrA49W5VTTobUjUftTS2gq81N7pWTmqQrCgyAyOAbKrTqjAUAqhGBe5mymor1UQgmaokTIV8m/pG7Uuprljy6OdTPbj0APwJDI/+kv/f6zcHPvm2EsKhGTSaSvVhpMPyC0p48vQFq9dsZN78JYz+YjKfDx5F7/5D6ddvKH37DqFvn8EMGzSWof1HMKDvYIYPG83ufXvRShx/ZCBoySnNVdtFlWXcffSQgMCdTJk6ixEjJjJy1BcMGjqEAcMG8fmQ4QwaNIpBg8a9VkYxZ+Eitu4K5OnzJzx8/ICtWwOZNnU2I4dMZOSg8UweNYMRA8cycMAIen4+FL8Bw+j6+UAGjfmCvgOGEhudoKPaAgDF6unYRAFpVYvOGVXSFu/Y+yU9evejs28vfPsOoO+gYXw+dCQDho9V7y1t9R80nBEjxzJ7zgKOfPU10TEJCGhUW42N3H/yFP9Nm5k8eSojho1m8MBh9O898FulT+9B6ItfnwF4+fXCu09fegwaTPf+AxgwdAQTJk5lk/9WCvMKdc8sk1Wz4EFHKmRIS/4ESZ9cU1ChJsPaynpehMew86tjjJ4xi36jxjBw+Gj69hnI570GMNBvkCr9eg2iT5/BdO83lG59B6k+GjBwKAMHDWPY0FGMGT2eKZOmM3vGbObPmc/Wzdu4df0W+Tn5NNSJKZxOuCRcUWVl5ctJWxAiKcOE0koR0zlFdX8AOi9B+APH/zN3vzHwySyrfpJVqFzHrt19+Iy5C5dh6+KFgbktHczsVOlo5YihrRuGdu50tHbhMwtHrGw9sbFxw9DQEkMjcz4fMITImGjqmut17i80c+vRA4ZPmoiJnQPvtevEu+1N6GjtipmzD4bWtqqYWDphYumKiYUnxuYeGJu7YWzhjJGlPZ8Zm2Fl74ClnT1t23WifXtTjI2c6NTRAYMOdpgYO9Le2B4DWzcMHN1pb+uMlWdnLB1c2LvnIHUVQpp1VKJFqFazjtUTSlVZp+VxUAj9Bw+jg6EZ7QxN6SjvbOlAJzsX2ls40sbQiramdpg7e2Hh4o2BjTMmtq44uHdm09adHD7yNSvX+uPVxZeORuaYWNhibu2EoZk9lrZuWNp4vCw2Nh7YWHtia+2JhbU7RnbOfGRugYG9I4Z2DnzUyYj323yKrZ0T9+4+oq62kSZhX4VNbP1WMjnWaOt0/9dByN0XzJ+9DDcvX9qb29HWwk49e1tTG3V/Gyt3bC3cVLG2dsfcxh0jWw+M7NwxMHXAwMT2ZTE0tcPIzBYTC3tMLR3UdvtOJhgZW9CrZ3+2b9tFXEyiju1/fXmgJnDZoVvCCDB/Kb83Bj6RU8gHrqwSdgGeB4Xh12cQZvauyMezcuuKuUtnOjl5087Jk0+dvGnr1oVOPr0w69qHdlZuWDh3wdatG+5d/LBzcmf1mg1k5+Sp9jJy8xj5xUQ+MjSmg50LBh5d+djZm/ecOvMHR286OnkqwBg7+GBs3w1jO1+MbHtgZNsNE9vO2Hn6YWrnhpGlLaY2ThhZu2Lh0AUH9/5Y2PtiYOWDmVN32tt584mjFx/au/KRvatq19LVh8FDRqrBoticBuGjdYlcZG0igZnknffsPYCjqxeOHl0wd/DA0q2ret+Obl0x6dKXTxx9aOvcBSOfnnT06M7HDp58aO3CxyZ2WFi44OneAxeXbphZumJs40YnaxfaWrtg4t6NDraedLAVwHpjaO2NsbU35padsbLojJmVN0bO3rxrbkVbWwesOnfD2t0HC0d3DE2tWLlqnWJ5hfWXX1WVrNJ0y+FaWZuJJ0VeFTMnLcDIwBYjcycMbN0xdumMqWt3Otp5YWznjYmNj7qX3E+2jW186GinK7auPZFi4+KHlbMvpk5dMHDwUc/dzsaVduaOmDp6YevWBSs7d8xNHfDr3JftG3YQ8TRSLTfkOWRJqGOVdVS6qV6ERPK0rWRbPblul+zWl9bdb7R6Y+CTXqiuqkdTUavWQ2MnTKe9gaXqbBvPHnxq5awG2u8snPjfRta808Gcdwws+R8WTvyrvRe/s3blXTN73jOwpIOlEx+3N8HN3YdLF69RUqxh+oy5mNu5YOzkgVmXnvzRozv/4uTDO9aevNPJmn80seVXRjb8ytCeXxk48ysDd1X+vZMrv+noiIFDN8zcuymqZmTvQSd7bz628OBjm260sezKe8Ye/N7ElX82cuLvDe34n2YOvO/sw2/MbDBw9FSAPXL4a+o1daDApxsMjc1aJTzIyclj6LDRdDC0wMGzOx8ZWWPg3EU90//qaM1vHTvzjxZu/B9Ld/7e3JX/YWDDP1u50ca1B5/ae9P2M2s8XXxxdupBRzMXNRlJf/yvDub8s7kTv7Z0U+U3Fh68a+bOhybufGLkSTsDT9oauvNvBtb8bwNTfm9lR0c3H9qY2mLj0VVRX3fvbqRn5KqR2iLLtlpxk9L91LTRAkvmr8XG0gszSw+cOvejo2MX/mDtxu9Mnfi1gT3vm7vxnpmruu+HJlK76vaZu/Gu7Dd05SNjT/5o5sNHlj58YOPD76w9+DcLV/7JzJH37L1539KFjwTY1m6YmLtgauyIu60PfbsO5PiRU6QlZb5ccyu5jB5ZIuh5DXzChuqXr/pa/z5vsn5j4BOqV68VPh2ePAnFTiicsS0dLV1438CGMQvXMnvzftaeus6u+y/Y+SyabU+jCXgczeZHEey4G8SGU9cYtnA17e3c1cxvbu3CF+OmsjlgJ35+A7Fz7sIn5s78wdYLr6mLmX78Eusfx7DxSTRb7gaz/XYwgXfCCbwTxdY7cQTejmXXrWj234xg6Z6TDJ69gt8a2PIbYzv8Js5nzs6v8T/7iM2Xgjh4P56dt8L58lEC2+9GsPHaY5aeuISh7+e0dfRQbNiYMZNJjU/VxSeUdVNLa1zQBi1Xr15Xk4VMOAYy09t6sPLLb9h04T7HQlLYejeSVZefsf5GiPJS33o3nNUXH9BraQACKGf3fnT2GoChqRuGtl0Ys9SfwKuP2Hb3BQH3XuB/PxT/e+GqnZ23I9U7Hb4WwbHLERy5Gs6+m8/YfusR26/cY82xM1h076coprD37U1s2LHnkJJ7iM23rPHkpwZxcyORUXF09xuMpW0XPjF0xMjFj35TFrPs0Bm2X3vKzlsh7Lodzs5bYey6ISWE3TdDVZFjsr33aigH5DluRKh+3HQ9hDWXHrPo7G3mfXOVsTsO4zNjMe069+F9SzfamrpgaumFnXUXnGy74O7ag3VrN5OclKUjZ00iLG1A2Htd/mgdAPUG5jJp6OxgWw+/SdS13vuNgU+vHhOBy8SJMzGxcOQzEwfsvXozfv5aroancC0uh+vppZzPLOd4eikHUks4kFHOV1kVnEgr4m5hNVsu3efXJnaYOHbGyt4bc3NnPNx8sTB3xczKk3ZWHvSesZRjkRkcTy9nb3Iph3OrOJFZzulMDScza/g6s55jmQ2cyGrkTEYDl9JruZRQzP5bwfSetZSBC9ey934Yl1LLOZdZzcmkSi5m1HM4opBzGbWczqjibHY1x+JysBg2gT+6dsXI3hMbB0+ePHiuU43IAFZ2m/XU1FQxedJ0DEyssffogaVnT6x7DeNsZAbfxORxJb+Bb7JqOZJSybH0Go6lVvB1chmX87R8GZrBlG1H+KijI0YmHpg59GDY7FUceRLDhbRSDiflcbKkjoPZGg5nVajUzd+kVXEuuZrLiVXcjK/hWkIF17MrOZWYzcXkPK4k5eI+cgptnX0wkEnQzJ6ufgOoqGlSFEPAJ9JLAZ9IFnft3ouhlQvG9l34yMyNbuNm8+XtF1xMLOSb+AK+SSnjTHolct9TKZWcStVwOq2C02kazqRqOJ+q4Ux0Eedjy7mYXM2FzDpO52g5mVOjvu3BrFK+TMxT3/hASALTdh3DeeAXtLftgrFtNzXxtPnYGHt7T/z9d5KdVaQA2KBtfrlO1VM+Pfj0trDa5hal3lGc6RsG4BsDn4jSFetZ00D//sP49DNTrB18cPDuw+YjZ7kZk8WluFzOpZRyNLGIr7Iq2ZFWzI70MgJTiziUreFgXBZXsiqYtv0w75m50N7UFUcXX6ws3TEydMTUtjNmHn1YevAs13JqOCKpjHOqOZhXy8HsClUCUzRsS6tRiS0Dkqr4Ml3L3pgSTiaWcCoul63XHrH+4h1OJOZzNr+OM2WwM7GMfbFlHM+o52BqNV9lVrMnoUBNEBtvP+cfLJ3p6OiDgaUzUybPJi8jX0kP60QP2NzIo0eP+OAPH+Pg2gVbLz/aWLmx5MAZrmdVczypnENpVRzJ1LInpZLT5bA/WQfCEykVnM2oYvedCGx9BmLv1pd//dicA7eDuJVXxTfZ5exOK2BFdCoBGcUEZJTyZXEjh/Ib2R1bxtHkGs6nNnIovIjjSaWcEXBGZ3IprZjVp27wH7aedHLrQUcHT8XKnzx3Rbd8UsIM8UHUWfbMmDtPCYSMPHsqrmLixt1cTS3lZFIRX6dXqLz1+9MrCYgrIDC5lN3JZexOLWVPUpFKJ31MJrEMLadT6/g6qZqDieXsSS5je0qJ7vtmlbE1KZ+jBTUcSSvmm5QSFdxp2vajdPQZSHtHX7Uut3fphrGZE1u27KVOq9P3itpJUT9hOyWdWKtRgB58Muxah94bhh68MfCJ6Lhe26xm1kmTZyjJ5WeGNvj0Hk7AgbPcTcjjRkopJ2LzOBhfyL7UMnZnVRGQVkZgdhWBqSVqZj8Yk8u2u6H0nbGCNqauamFvYdMZKbKgt/T+nIW7T3AxpYzjySXsSyzBPzJTfeQ1CblsyKxiS0ELG/NaVDLLNdEl7Igt4VBMPpcyyhVruvz8Tb5OLWRvahHbMsvZkFzK9qRKDmU1siNZl689MLmYI9mV7A5NwX70DNrYemFo44mNvTc3rtxVE7Eo4+U3cdIU2htZYOrgrQQ2joPHE3D1OWcyqzkq6aeTK5A88FtSqtib3UBgXAk7ogs4lljGN0llbL8RQpdBk7B07YWpTz8uRqZzMj6bXdFpHC6UrLj5LI5NZ31mKauSS1iXUsrWpAp2JVZyLAv2xleqwa5SXMfkcEY4gqexuH8xh05evTFy7aYEHuOmzaNaqIlwcAI8Yelampg5bz6mbj78wc4Nw279WH3yKheFK4nMZm9CMVsSitiRW0dAZiXbcmu5MaJUAAAgAElEQVTZlFHO+oQCNsTmsDkmi31JRRxNqeRIkoYv40vZGV/MjoRitiYXsSW9VPXx3oJqdmWWsS+9hP3JRRxJLuZkcjErzj3EY/x8PrH05DNzF2xcumFi6cLDp6FKXaX0i/r13mvgE7ZTB8C34FODUKezqWbU6C8wMbFRUi17d1+Wb9rPnZhsHubWci6lXM2mB7Nq2Jldy+rEIjbn1rI5q4rt2VVsiczmm3QNm648wcJ3GG1MXLB28VMSPnOHbpg492TCqu2ceJHCpYwKrhY0cDillMMFWgIyNWzKq2NtbgNr8ptVLrqA1Bq+LoITSaWcjMlm2p6jjNi0W1HZPemFBOZqWJ1SqoCxL7uZDYnlbEwpZ0t6OQdya/gqrYxZRy7wG0s3zN170rajFXPmLFNGA8Jqh0XHYWBurVQHsh79wMaTCVsPciAskyMZVRwpaGF9gkbly5MUXv4J5YoCfpVaxckkDceicll98iaGzr58Yu5KG1sPVnx1jktphVwuquZofiVbUwvYllPOztJ61qVrCMipYXteIwGpVezJbGS7pKxO1rAvt1ax4ccyKjgWX8iUncf52KOnkrKKNLmjuSPPQ6LV2k/AV18rwqN6ArZuoZ2tAx/Zu/BHJy+GLt3IubgcLufVsjuuULW7Ia2cdTJZljSxuaCWLTIx5dewN62Er/NqOZquUez04ZRyHaVMK+dAloYv86o4VFjL3mwNgSmF7M+tZE9WOVtiszmSW4lMGGtuBOE2fBrvdbLH0M6L9z42ovfnIyir1KmvxGrmlVmcjvq9Bd9rhF4XM0SyBTVx9OhxDA3MsLV1x8DYAWefz1m/9xR7rgex+2EcW58k8VWulk3JZSyLzlMfNbAYVsUVsitDx/bJWmjsxn186tIDE7defGbhTkcrTz618MBryCQWbD/K9utBnAjNYNezJFY/jWNvUYOifIuTSlWqLsnesy+/hZ0xxay/GsSs3V9jO3AcnfoMY+KXJ5l99T478jSszyzHP7lC5WFfkSjUpZRNGfK/RlG/PSEpmPYbjbFXXwysvLC08SQyMlWp/GYuWMZnFvZYevkqQY6x3xAV6k+o+5cZNWzPrleZbSVVl6RkXhdbxv70Gi4WwdpLz1lw5DI9pyzB0LErnWzc+H0nK2z7DmPJV2fZHxxDYHAca5/F4B+bxfygeDYkF7O3tIUd+Q1syarDX3Krp1ayPlkAXsKOtEq+TK9kb1SeemfDPqP50M6bDg7evNvWiJVrAxCrGJ3JXxNNdbU8fvwQC1d3jN19+MTeVYF1xPIAJbza+CiW7fFFLIvJZVlSEWtza1ifX8POwlqOlTexITSJTcHx7ApJZVdwCjueJ7E9KImdL1LYG57B3pgc9sfnczCtTK3vAxPy2BgjnEoJu/Iq2ZxZwq6kfJYfv4ZF14F8aOqEuUsXfvvHz7j98Cm1dfU6kzN91IDWWthPAeBbaSfNaOtk/VOv1kBiZta1cw/+8MGneHn1wty+Mw7dBuMxbCq+s9fjtWALXyZr2BCdz5qEYlalaFiTrWVhTBE78+rZmaZhT2S2ilvZc/ZKPnIQ/WBXpTf61MKNTvadsekykK4jpjFwxkq6TlmOxeQl7M/QsDqugKVxRaxOrWJVfBn70qrps/YgrqPnYttzOJ/ZdVEi70+69eeT4RNYFRrPxtQi1iSUsiG9lhXJ5axMLWN1ejnrEgvZmVzMsaRipu04TjtnPzpZ+/DuH01ZuXYnccn5WDl3ppOjFx1cu/BbWw/6LfHnYFQOW6PyCMyoZnl8GfNjy9lcBIvjylgbU8q2qCK+Sa7AaugM7AdM5A8Wbti491C6R6mtfXpi7fs5PuOmM2CZPz7zVtFj9XYMpyxh5o0gdqRrWBNfxJasGtYllbMmtYINWVrmheWyMUnD9hQNW8KyORSdR+9Fm/jAsQttHXwU69mj92AyMvOUhYninRvq0ZSXMmLsONqamOPo1QOnrn1pa+2N67DpdJmzgY4TlrExpkBxKSuTilmRVMCmlAL2pBTi578X55nL8V20np4L1uE7bw09562h9/z1DFi8iUHLAxmyehczD19m6+M4vkwoRAAYkFrMlmwN67Jl4svnSEga45Zvpa1zNz62dMHCvTNjps6gpEKU7Lr13qvYOa+o31vwiUmztkqlB66rLFeGnGdPnMbGzBbDTjbYOnRV4vM/WHnzH069+TvXfmptsC2pjM1p1SxLLGd2VAmS425NciXbM6vZGV/IgegsVl+4y8dd+vCZW3c6OXVWylsjWy/aGjvT0cILU9HTWXjzjoWnYj+3RBewIaGEwCwt/rElHE6uwmjgdP5o153PzDywcuqBKOJ/a+7IOxZOKmnIuugMVsfrALsivZLlaZKOq5hlMdlsjM7mQHw+O+9GYNFjBO2tfOhk6a3ambVog2KTRJ/Xxt4Ho34jWXLqplrTrovIYUNKBXOji5kTr2FVdhPzo4pYH1vClrBcvgrP4e86iE6up6Lotg4+2Ni4KAsRWSuLLuwzGw/aOXblQ6euvO/Rh991GcicU3cVK7gmLEuBe51Q+dhCtcZdnFjB+rQatgobGlWopJNzj1zlQxdf/mjjhamTD3bOPpw+c1HHs4jeQcTTLc3cvnETZ2dXPv5jB2xtPTG374qBU0/+zbwz73zmqBOgpMn6uJj1CXkKQHuiMzEfNYNfOXTm9y5dlLGDUFlZH39s68Nndt3p5OhHR5c+mPmNxu2LRSw8dU+tEVeFpzE7LIklGaVsEIFbZKYSUpn3GMwHVq5YeHbH2MFJGXmLUbwuf7uwn/oiJnKyeFXLV937vOG/b0jg0qzLy61iX4oIvh4amzmy/wh2Vq6YmTpj79GPz5z8+K11V/7O3le3OM+oUWutFQnlzIkr16U9jitjU3olWxML2RWXy64XcQxes4W2Xt352M5VsSS2rr5Y2nhjb9cNR7vuGFl25h+NXTgpkrioAgKjiziQUa8kgqcSK3EZNkdZvFhaeCmdkr2dD8bOXfmdnScb7wUTEJ2hWLblSRpWZFWzOLWUWbG5LIrNZn1MNnticjkalsXo5YEYu/bB1r0fH3V0oIO5OyYuPejo2l1Z2vRcspFtT2LZHZ+Pv4AivlSlB5vZmiJsUWwp66IK2RtTxMnofP5ne2ssPPooIcPYMZPZuNqf/r0HY2ZkjbWlm5LyiomclVtv3jdxp/+cDey4F6MENbtii5DJS+4z6XECva+GsjCpivWSKDO1Rq0rDyWUsONhLPbDp/CpU1elvjG1cmba9DmUFpXqrN2bROgirlTNnP3qOL7u3TBpZ46Lox/WTn34DxMvfuPSl33RIiTTsCO1nO2J+RxILOREYqFqW/Su7Vw608HBk042HnS0dMPIzB1Tc7HC6YKFtVga+fFPbe35tMdIJh66xPrITFYk5TE7KY/5UWnsi8gk4NJjnIdNooOXH++bWNPWworU3FxlZC3hGV8Br3UN2Aq+N4y5l7d/Y+ATP4Dm+mrdh2xuoqKwVE1Mz59HsHSlPyZil+jqx8f2XXjPq7+Sou3K0K2BJK/5hnyYGlmskjyujCtlZaywNkUsC4plc3A0HXoNoY2NSD89cHTogp21Dy6OPXBz8MPSuhv/bujCwZB0xW6tj8hjV2oNWyOL2ReSh9vohRhbd8fO0gtzAzsM2lti69iND2082XD3hVp/rEmrZJ6AL7OWRSllzI7IZEVcPhtapX2HsqpYcTWITzsPpr1NDxw9+vOZgb2ScMp66n03PybsO8vW8CwC4ovZmt/IrJhilmc2IuBbldOsKPvs0HQlrheByN8bOtDB0ouPPjFhk/92Sgs1VBSU883hE3Rz6YylkR3OTt1oa+zKrwxcWXHyLvvC89ibqGFnWqVi2zcmFTHi8lPeGbuISY9SWJZYwcrEal1u9pgyjmbUM277STp491ds+2cG5nTt3I2gx4/Ut9J/M21RmXLlKE3NJnDtFrzdemJk5qko/a/MvAh4ksbmhFIFdpFyBkZlcTw6R+nrlOmboxvt7RzpZGGHsbEtZp1ssexoj20nJ2wM3TAz9MDEypc/2Pji+MVSVj9KUBLUhQmFrE0rZ3t4Bl9HZuM3dzW/FwC7deYzC1vOXBH1iEjR9eBrjRynWNGX4/6/xMYbBJ/eAqHlpe+bcDUSFPZZXBy+fforQ2ELR28+cu/B9tQiliYWsTquipXxtazOhS+CstiYUs+SiFLmJ1QwNb6EOblVrM0qY8HZWxh691HAM+topyiYm3MvTI09sHXoyUem3oo6yZpvVmy+ypO+NqacvSk1GI6YowaRs2NXHG09VHF28FWmUsvvRDA/OocFWfVMSa5idlw5q5KqWB6Uzaa4UhZFFTInoYRZuXXMTizEdc1e3nfopRTiHnbeWFlYKwPprlNWsj04n6UhuazL1gFudGgBK7NhQXId8xKrmJdezfTkIuYk5LI5IYd3jBwwsumKqYkba/13UVCi8yesLSghLz4R03adcHLryofWXlhNXM78hyksjK9QYF6cUsHK1FLmPovGeP5a3nHoRr/d51gVW87c+FomJzUxJxPmx9Sy7Gk2pgOn8l4nW5yd3HG3tWbVwpnUaHIl9jYNjTW6ENgSW76+mZyUNEaMmUInc2fM7D35FxNHdiTXsCChholhWazMqFAT05GkEnqOmIq1kwcGbs64D+zFkTMnKCsroya/lKrUfHKfxXNu21F62/fEwcSHdgbevGfhy/rrMQREFOOfWs/q5GoC44pZ9yCaPisCedelGwYe3elk7cS+g0dbgSXjS/wTX7Gb6oDs1jlpvHEAviHwyXvr+G9ZACsD3laroBKaeZwQjV+/XlhYWGFv764MqgPSCpibWMyy2FqWx9WpQb8ktZphp1/gH69lRkQpU9Nr+Ty5hCmpRSqp44R1O2jfyQFnu844OXbHxMwDMwsfte4T8B0Jz2JJQgHj4gqZG6theayI6Wv5dNRcPrXyxsmxK/Z2btjZyADsoWwjF9+JYXpMAZNSahiXUMGyjAaWhBey/FEmmyNLWBhZxJSUSnqlVzA0o4JB55/QpsdI7Bz8cDB2xN7GFnM3L8ZuOor/ixLWpjUwNbaMqSm1jIosVYkqZdDOTahkdloV41KKmZyYw9rEHN4xdlAU2czYjTWb91AkjsFiqtHUzJbly7E1MsXA1I6P3HrSc9tJJj/NZEZqEyOjypibUKG4g7k3gvh48Hj+2c4bx0lLWR2Sw7y4GiYlw5DYRqYkwLznBfReuY9P7Ttjb+eiwDeoVzcSYl7QiFa5bqmo+GJv3VBPTloyw8dOUB4ZVnau/MbYgYC4aiZFVzM6upCZqRomhWSyNSoHz89HYW3vQid3R9yG9GLXsQNkZKVTmV9EQ04JVfHZhJ6/T297XzxsfDGx6snHToNYfjGcbfG1rEtvZnZogaKqW16k0XvVLv7VxgtjN19ldXPw0DFlsqj6pTUchn6sKbQJ8P67g09EvwqCevCJp7PKW9AKvr59FPis7d342K0bG1MLmJFYzOLoapbE1DA+Mo/VuXV8Mn0za58VKGo4I7mKHmEZjE8sZFNCPoH3wrDuPBALMZJ27EInc1fsHX0V+D409uRAWBYL4gsYHVfErNgKFsdWqPXPxyNmK/DZO3XF1tb1JfjaGHkg4JsWnc+omFK+SKxU4FsUVsCEb4JY+zSbZZHFzE6rwS+phJFZtcwKzcZ55kYcvAdjbuqMsZUdroOGs+JyCBuiNKzPaWF8RCHTkyqZEl2O4bbzLE+oZX6shvlJVUxMLGFqQh7rhfIZO2HYSvnWbf+SHI3O20BbVY2TuQUOds60MbTGrP84Ft2IYmFoIXPjtcyM1LAgKA//oCzGbz/JB/Zd+cTKnfYuvkz/6gZbEqqZHVvH6PBqpsVoVf74xeeCMOs2DEs7L+ysHHGwsuPgwYPKh1DyPIgEXwGwsUGBb8S4iXSycFD99TsjB5Y9zWNEUBHTU2uYX9jM7JQKdqZX4TRkPOL10cbOhg9tLbHx8aJr79506dyD7t496O7eA0crD1ycfdW7fuDYk48HTGPshecsjC9nVoaWCTGFrIzMYfOzRLot9OdfrD0x9+qt7HsvXrr+PfDpwoGo4aYD3lvw/QnwNYGe8vXu1xcLcxus7T2UreSGlHwmJxQzN6qauVGVTEksYW5CAe90G8OgHVfYndbCnOgyBoTnMjlNw5KobPyfJTB77ynaufoqi3sTF7EL7IWFfQ/llbAvJIuZcQUMjy1maoyGhdHlbEyt5qPhs/ijjTd2jl1egs/ZtjttDL1YdDuaadGFjI4qYUpyHdOiSlgdp8Ft1WEmn3rOhvhKFqRUMiCtkiGZ1UwNz2PU4ZvY9pxAJ6vOvG9hz4CVm9gUmsvy+ErFLs9KqlSUSRJcvjNuNRsSalkYUc78+EomxRUzPTaXdfG5Cnyd7MSkypUNOw+SWlimJvhTp87wWbsO2Dh70s6xM74LN+EfksOq2ErmhJaxLqGB5fczWXcpks7DFtLOyANTEyflDeE1Zj57Y0pZHFXBnDgtk8M0LA0vx/9JJu5fLKGDTRfl72hn58Hw0ZPJ1zRQpRX9LKj0Di0N5GQkM3LcBOUDaWfrzHsGDuyIreOLEI3iEMYkljM4LJfFMQW07zeKTx3c+dTGUSnqDexdMbN3x9LOXfloik7U2NqTtpae/JupO+91H4aP/yEmP4hjQlQ+I+NKmJ5SztLgZJZeeYzFyOn8wbkbFh5+mDt4ERef8i3w6SSfrcBTs/1byqfcaoRjesl2CuVrgvKWJh4nxCLgs7KwVeD7yKUba5LyFXs4I7yC6RHlTEopYlp0Bu+4DaRt/7msvJXG+pgqpiVWMDm1mvFBacx5nszOmHycZ67knx29+cSlixJ4mNp14ffGnuwOyWZKXCH9Y4qYGK1hrlCi5Eo+GD6Tj8TxtFWcb2vthrOtLx8YerLgTjQTowuYGl/NlLgqJgbnsjKmDMNpm7Cbs41AWavFlDAisxbfuCLGRxcz434yjhPW8H/MOvNb7z7Mu/KQFbElzIguZWxoLgtTq5RwxWPvZd4ZMJeA2BqWvChhYXQF06OKmRGdy8a4fAW+DvbdMLBwY23gfvLKa6isbWTw8DGY2TrS0cEDwx6DmHHsOitf5LI4qpyFERVsjKpl+6N8Jq4+galVf2xMu+Js5Iydpbui8KsvPGdrYg2LE7RMi6hgQZSGdaFFjN51gX+37KpUAGLAbePci+v3otBodSZajRLyAy2ZmYkKfOII62DjTJtODgS8KGPks1ImJNYwKq2WYWla5qRW8tGIqcpdyMTFD2tnX8xsu2Fs1VnVpvbdMbHvgaF7X9o4+dHOdxRey3cw/2GcUo9MjSpgSGg2U6PyCIjOZNLhs3zg05fP3P2UH6Orly91EmNHt6JRiBOlw7eMqN+u+aR/lL2BDnwqEpgefCJwiaFP/3468Nl5qZlNxMwjYwvVzDwlrJThMZksSMnlH7yH8vdmfnSftwf/50UsSKhiTFw5I0NzmR5TpPRxs+6E0mb4JP7R3pM2pnZKT/avRp5sfZHD2NgiekUXMya6nJmRZaxKquDdodNpYyWCGZ0uzdraFQfbHrxr6M0cAV9UETOS6hkdWsK08BLmv8hVwHvHYziLb8YyLziHUcmVuAVnMjW1ninPcukbeIl37PpgPmcj6+IKmRRdzNDQfAW+GVH5LI3K5/8buZhfDVlIQFg5S56XKOBI+zMjCpTSWtjOtk7dMbR0ZXXAThULKjgsVvlAinOsOAkbj57ByscJzHqawZTgAlYk1LP0aRGb72bh0HsOHTv1xMWyNx7mnoq9E786vwVb2RpfwazwUqbHVTM5SsOSmHJWPknn151H0Maln/K7M7HpwdwFW8kvblLxq8QjX1JoZmTFM3LcF8oL3cnGWXlcbA+rZnpEPWMTa+mbWIlPnIZeQem8M2Iq79h682tTH35r6Mm/tHfmH9o58k/Gnvybgx/vdh7Ch33G4bZ4K/32nWPyvSjmReYyJTKX8dEFjIopYnJEFpuj0um3Zhu/dfLhU6fOfGhgxcSp81rXwK8o3VvwveqLl1vfA5+sIV5KO2Po2+/zb4FvaWI+w2KKGBOqYUxYKQOjUlmQmsOHvqP4jVFXOniOYcSW88x8koVIDUfHaJRAZExYNkuSS/Dad4x/7TmA9yyE3fHifxl5szFY1m7FdIkpYWSUhmkR5axM1PDrIdP4g7UHNo4+WNq6IOCzt+3B7429mXU3li+iihgfUcHY4BKmRpYiaz73pft4x9IPt3nbWPw0gy9iS/F+8X/bOw/oqI5sXdf42hM8zhmMMRkJBSS11EHqoJxzFhmTccDGOYzDGNvjGTw4B8ABY2xjHHDAZCRQzgGREUGAclarlfW9VdUS45l331vv3jvrcec9eq3SOX10us45deqvvWvX3v++wMLj3czNr+OBPacZdd9rzPwun0ePtpBUWsusQy0sKLnAw0VnSP1ku5Lid815mjWFzTyT08BTJR2sKGnmsZIGXjtYj5juy0RLJE5aP1577T1qa1t59bV30fpFqoXq28NSCP/LRzxdcpaFheeYX1rPg4c6ebSgnnkf7OZ2w2wc3VPw8kzEbIjFxT2Qu71juCvpPpUv/r6SBuZXtquy4kgHzx9uJfCVj/m1KYE7tRF4mOIxWRLJyj2s8v+1S/Y3bJw+e1iBT+NpwFfrxwRHE2+X2HjiECSXtGAubcAoB8UaeCj/OKuyD/HCviP8Mf0kq3KqeblYWn3P8VhJNSukm2DBSZIyD7HwcB2LTrUTW3KOiNLzRB+qJ/lEK8sqa1nw2fd4zFik7AHSw8XNEMD23QfokbnS/h3Jd1H6XZZ8f5N8cmRSnugSfJK5awjyDx8iOTkVvaePitEb5RvNU8fqmHGwgXlF7cwrbmbWkWpWHDzOlMQlTPKMZYo2melxD7JsazHLCmtZdLSThNJ60ioamFNSzZLcShwefZY7/MLVHFC4hfFKUb0CQODBZuaWt3Ffeata97ph1goFPp0xBE+9RXGe6L1juMU1hBV7D6v5XlJWDfdWdLGosJ4/n+gm8Nn3+b1lBld6J6n50sqKRmZWNhORf4HUwgYeregiYnMxDx7qIrmwhiA5QFQPMC//FM+VncPlvj8iTImMSX6QNYWNPJXdyOMSfEWtPFrcyF8qGuzg8w1XdBFvrXmf0rxKklIX4hkYz/X6UMakLGfh9gIWFleTVlFP2rFOYgrO89hxG3c9uAbhM4u7fGYzTpOEoylVSZ+bg+eoefO01V+y+FA7wUV1JBzrYvaRdhaV1vJI7kmENowpwTNUFMX4cW58+skWlWVXgq+PTqoU+BbjodHjr8Bn4fnd1TxyGFLKO/E72Mbkg+0EHmxhSf4Jniw4yQsVLTxc0MiKwkbuLWpkTt455pTVM/9YBylHWlVJPdHB7JNW4ioaWHSyi+SyOlKLLrAsrwr3+57gOo0Rt/AEJniaiIyboeZ6bU2df+fCMiL5LoPvotyT7TOocnxfbBQZbdNnT0t8oLSMpMQ09J4mtbh9h18cjx6uIbz4Asl5LcwobiHl0DkeOXya8RFzcfKIwUOfxAR9Ii73vsy9WadJyzvPvOM2Uo9aCcg6zvyKamb9tI8JsxYxJjQFYUjk9RN9hBfXYTjYSlR+PfMK6llZWsv1cx9SPoNan2AM5hBF/CPXBkfpYpj/czFpBTXMK+1iXlEn8wsbeKKsEd3K1VzhEcbEkHl4LXmBZ8vrlPQLzakmqbSVpQd71PnzDvUQUdJK+GErCZUt3F98ngXf7Oem6HlcbY7HcdZj/DmnhicLWniwyMr9RZ08XNDMC3nVCG0oo7wDlYHigzVrWfXYi4QEJ+NkiubW4BnctfwFnjrWQUTuaXQF1fgebyXhXC/TfixA3P8yYv4zuK74Ky4L/sj0RauYtuxP3LhoFeL+v/Dbt37AlH0W05EOxuedZ3pxLfNOdyt1z/TqWm7xi8bVEorrNHdMOhM1bR009naqdb/T546SMHMmLu56Qs1hTJ0exGv5HSwqsBFe0IK+vI2JlZ3oixtYeaie5w/W8XhJOytLbDxYamNZaRcLyzuZX9bB3HJ7mVXSzPLDXdxb1saC/ed4LLeel0o7WbH9GHGrv+TXukBcwmIYrzWpddOKw1V20EnruQzYU5H39oQyIwBUB6WRQcVI/aIzXqLdS7TOZ2eU7huQasuws52MBhkGX1ZJGcm/AN+t/gnKKhlUXENcfivJxW2Elp1lxaGzTI6aj4smEm9dPI6aKCak3EfEuh+QKpR8gWGFDYSWNpBSUcu8nEOEvfkh/xYzF+EUyh8rrIRVtGI43ElQXj0LCpt4pLyR389eoeZWXt5BvwBfArdpY5nzcylJBbXMK+9hVrGVFAnYikb0j/2Vq70icPKfgTZtJQ/8kM99JbXEF9YpsM0os5FQZCW+ohff4jYCD1lJKm9mRU4VoS+tY0xoGqMs8UxMvZ9VmWcU4JYVdbG4qIsHC9p4Ife8kkAyhk6STD206AHun3sfXrowHH2TuTViEfGf7lWGo8jKVnyquphyrAVDVSt+h+sIyz3JsjI5B+zkqfxaHs2p4+lyK49X2lhQ1kZCSQvhh7swnOzB9YSNKYdasBxtY25lHaGffMeNMTMYb7DgpdFi8NTw3bYdtA310dXbQtXZo9yzfDkeWhPeGhNT3INZldnEPUW9xFZ04X3Exh1lrThlVzM36zj3ZR5nSV4Ds/PbmFHQRkp+KwkFzarE5TeRlN/EnMJm7i/v5KHiVh45cIHnMs7zxNaDmB58B+EcwqTAWG52dcczIIQ/vfEe1i7pMWXvQ4rPZdiYJ6kjJPPqxc8I+H5x6OL//i/v/PcCX689vbECX3waOo0ZL1MUt/jF88DhOvyLagnNbyO6uAOf/NMsO1jN5JiFuHtGYNJFMV0TzGi/OMYueoIl2yu5t6iZ+Jx6IooaiS5rYE75BRZnlDD58dUIp3AezBjheIwAACAASURBVG0g6HAX04/aCMxvYn5JiwLSFbMfYII5UnlraC0hav3IyxivwDdreynRhXXMPDhIXEkPoQW1ygBjeOYNbvGJxdWYhHvoPKJf/ZjlUuJWthJa1Ex4QSthhVYCS3vxKeokqNzK3NJmFn2Xz9SUe5niH89431hlbHgm84SaT0pwzynqYXlBJ8/nXLgIPo3Jl1BLCNGBcThrgrnTEIfL0pf5Q3ErswqbCT1k5eaSWkR+FaK4CrfK84RW1pBUUcvM4vMkZp0hNa+B1MIWZpa0k1LeTmRpG16F9dxZ2MBvSxoZe9zGqLJ6Yg81kbArH4d7H+MmrTfeJiM6D3eiE1Oob+2gu9/KyTPHmL1kGZLq0XmaF3fJ9dAD9cwr6SOiwopXZScTyjrwL2vlkaJaZemdU9JAbFkzUeWtagAMLW9BloiyJuJLGplV1szM7GqWZZ/jkcyzJH2wnVEzn0CYZzI6aAZj9Gbly3n/409x5ny9knpDkg5bAnB4zidx9j+Db2A4z8b/ZaT9O5e7JOBTvncMKI5NdU9yFBpO/iYtxZnFpSTFpaL1MKkF8mt9E7j3cD26klqC8loJKe7EI7eaxWUXmBS9iOkeYfhpQ5A8kWP1flwZEIf3s+/zsJyXlXYRnllHSHEjESV1JOceJ3l7ESLqQRYeqEV3yIrLsR5CituZXy6NLvVcNWeFAp+7dyBe5mCm6wKQ4LtBG0PKz2WEFtQTe3CI8JJezNJoU1GH+fl3GGtJUE7BLl5RaO55jHt+yGH5kXbCSpoIzG8mpKgbc0kvxuIeIoqtLCtuJfjlDYyyJOLqG6dU3bGJi3ki75SSqBHFNhIK+1iUZ1WL1sIrQtETSvAZdEb0Wj+cfWL4jSaKlHd28HhRJ0m5LejzGnE/0onb8XZ0J1sIPtVK1IlmoirriC86T1JxA8mHbESWdhCV30hsYaNSjaMr2jAfsuF+rIfRR7q5trQJ34pmkgtO4f/WR1xrCcTdbEKn0zHZ0Y3s/BI1UT999iTJ8xbg6u2niLBGa4J5eN8FEgu68C5swrW0FddKGzOO9/Ng+kmeSD/C8oKzzC46rwaDGUUXkGVmwXnmFlSzOK+aGTsPkrIlG/OfNnLbnMf5lX+aMvzcakqwOwnojDz2xxfIyi+QQRb0Sm+fYY7UEUFnB59UqIaXG2Q/k+tZMqr5/1fJNwI+28AwJZ1sCOms0QPd/ZBTVEZibBpebmY03lFcY4lXSwJyHuKb14ZvkQ3P/AZlzRsbuQQXtyB8tQH4G/1x9rFwm3cA14fMJf7NbfyhtJe5+R1YchvRFtVjyKpiXkUjk17ZwpzMeiaUtHCLBF9FF3PK2llWeJ7fzXuI8aYIJPg8JL+nzh+NTxzX6uJI+rkc/8JG/MsH0Jf04pRfx8yyGryff5MJkofSKxxXZ38cQmeR8O5XLC2tJaa0iaCCFsKKe7AU9xFW3EdsQQeL919gcsqjTDElqeh7yQE6Jm2pMq0HFdbjUWIjuLCX2XldPJ9Vi/CMQEZqeJp90Rktyp1qvE80t4UsYOX2UyzYW09qnhVzZhOGgka8S+oxFFdjzj9JZOFZEoovkFIkVeF6AnNrlEouVWgpCZMyqkjMrCa2sBnf8k5GlVq5+VC3ah85L565LZfRaQuYZPFHZ/bH1dWb5/7wJ/pt3Zw7d46UBUsVzaIxKIbfuJhZnn6eyAIr2rx63IubMVV2kVrWhunFDbgvfg6nZc8xaflzOCx9Foelz6viuPg5XBc9i9uiZ5mcdD8To+7hTr9kxujCVciRiylKkTZN01p49LkXKDt6WFFDSEnX1dz+N+8VKfmGme7l9E/a8hTWLoNPNsSgWue7CD7ZWP8AvoSYVAU+uQh7jSWBRZX1uBTVoc9rxbeoB8/iTmYWNXJnxBKcPIKxaM2EmiSnhy9TzIEqrmx07CMs33qShw6Cd1YTrsUtTC2sVYaFuB+PMyuzkduLmhGHbPiWdymz+MLcM/x+/koFPmm+HgGfuzGO32ljSdxWpkZzTWE3TqW9Sk2LKa7G45nXlBXV4hWO1tmPSaZoPB96keQdxcSXNBBU0ExwoQ1Tno2wgl7i9jcT/WEWNxtn4WVJw9sYreLxRs1ayspDtTgV1ioAaAp7Scmz8WxmnQLfRB9/NL5+TDeamOLtx7X6UCxPvM3De2uZs6uBWfl9JOTbMO+pJji7mtTyeuZX1DEj/yyzcs4yO7eGuMxq/PZXEZJ1illZVSzJPs3K/PM8UlTHgsIWwvJbGFvYyeTKAW7Kb1fPuzjvLJ7PruGukHjFZ+ribCTYEsW5E6dpb+9k+RPPcreHZO8OQLhYeLi4naRDQ3jmN+Jc0IBfSTuzCpoYP/95pUHc6R3JaJ9QxnqHc5chjLv1EYzXRTBOG85Ez3D0ITOZ4hGAg4c/Br8oXDVGxk5wJDA0ihf/9CpV1Wex9tkUE4JClqTllygbQdow6P4OfBKllyXf/wJ83X+TfEnRqXhONyk/zN+Y41l4sE51SE1uG8bCHrzK+kjLb+bOiGVM14Zj9jISYNBiNBtwNVmYYozlGs8UvB/7nAV7mgnI7eCWwhZERQtjM8+SmlFHYkY9o8utiLJ2PPKaiM1r5J7sU4h5D6lobklrLsEn19XcfGIV+OJ+toPvjpxOJpT2cUVxA4EFp5n02Cqlqgbow7B4BDBVF8L1kXPwWvct0fnnCM5txJzbisf+VgIzO4n++Tx33vc2d3rPQmOIR+cZpJieb5yxiKUHq7musBZR2sWkoj7i87p4JssOvikGCT4LTn6+3GHyUwGzyzbnsGJvHXP3tjIzu4e0nG4WFPeQsPcM8zJPc1/RBeanH2f2rqMsTD/HjD1VpOWdIW7fQebuKOLhvRU8nX6IR3YdYeHOKhLS6zDk27irsB+Ra8WjyEpqfh0xn+5iYuq9OPrF4qUJVar+p++tZ8+efSx48EkmSdYzYxBXeUcoZ4iEI+CeW4/DgXNK81hS2Mq0uc8ySR+vfG11xiB03sGqGPTB2Euo2kp6ebm+qtH4oNH7EJ0Qz6trXqWkslglr5FJcfoGurF2tqvgXiQvqmQwk6rnsOSTOLwMvn+YbKplBvqwDdiUBFQjl8yq0zuoGKik2hkbk4KLmwlHn2iEJYmFFQ1oCuqQ4DMV2AgtsTI3p4bbo5biaopDr5PuUlr0ei2eehO+gSk4+6RxZ8gDxLy3n7RCK9dkXEAUNeJ4pAe/fTUEZDQw5vAAoriTURl1hOU0sCjrtFpkn2AMU+t70rFbsmO5GOMRuniifq5AV9jMbw+0Mq6kF4eCRsJzTjH5wZe5y2iPFwzShuHiGcKv3f2UOro4/SDzMk6QsK+K0J0nSNpdRdrXJYiQJTj7z8HVPRS36X5IteqG5MUsLD7F3fnViNIWRhV3KGPN4znnkXO+id7BePiF4BIaze+NwUxd9gyPZp1lXnYjkfsaiD3QQezuRqK+OYKYuwrhlYTQxiE8oxD6RIRpBsI9FBGQgDCGI4wRSq3/tUc4wjEIEbgUseI9wgt7EfvbEHlWppb34p9VR+rOw0xetoo7TIn4BKViklT0jm6YLYE4eAcoT5PxpnCEewCJ248SUNDCtMzzTNt/BnPmeRbn1nF78kru0ITiIR22DRYMel970fmrOawMppZF46wlKSaZV176M3v37uXChXPKuNOLDdtgJ13ddroIlaRUJm9p6wCZWk4KN5me7e/UzhEXs8uST6mdnYMd9GBlSP61NsGgzAHQz4svvqjmM9N9/HGwRHFTQDIieC6LS5tw33Map7w2DJn1xO86zCOZR7g1finXeoXi7heHyTeKAGMoQYZAfDUB+OgjmKCJwGXe08zdeYTUIz2IgiZEYRuO+VZcC3oQeZ2Igi4mFnYRndfCiowzjE1cpjhA/XT+hOj9CAmKx8EvEeEZSdTOo2hzm5iY04ZnXqdS0Zbm1KN7/H1u9IhFb56Jj2c0Zp9Y9MYYReYUvPhh4l54jZAX1+D3ylt4P/cq7stWcndILNrgRDWvlRbbaT5JOMx5nCX7juCbX82Ug/WqmApO8VBpNcIzhAnGGJyM8dw4PZLf+c/DsuYbotNP4Jlbg1Nxs+rsIfvPY3p9G7dFPYST7z24eMahNcQqHlPJ9uVo8meKnwVHoxFvcxBB/gl462OZpkngVvM9iOhHuXlDDtoj/YiDnWrAkvO25Jw6ojZkIgLmMjEgFkmjr7UEIRPZyBwNMkriDr8EhFswSwtq0O49jkNGFeEVLQRnn2Z2dhW/WvAkV5mjcfeLwWAOQ8ZrypwMbiZJWxGC3i8CS2AUOi9fls6/l4zt6XZpJgkPBobo6x/E2mvP73FxTJdzuV+Wi//42+GLh0bOu3jg0u1cMmunTJLVPSTzrMkFPpnNx8pbb/6VsLAwnL18FMHQzaYohJQ4EYtJy2/EK6eR3xV2IHacJGH3EZbvLkckPYDwjuU35kTuNtsjFrTuvgTqgrB4BarsQ04RczGs+pDwfSdxPNiFKGxHFNoQxf2IPBsivxtR1ENQXjv37q9mXOIDuOjClCnfVzJfu/txg08MwjwDhy0lTM1rY3KRDde8Tnz3N5Ky5wIOj65H6GYyKWA+Uz3jcNfFojNEKTp3SZUg52q36IxcZ/RFeGqZFBXNNRodd3kHMsYrmDu0sdzoO5c7Fq5i/v4zBBTWMKG8lmtKznLn/oPEZ1Qg/JIRPglc75PK1UHL+c3clzFvysU/v5Zby1sQx7uUGuyVcQrx6PsI3wWMN6Qx2SkYrSYYoz4AsykAk8mEQa/BR6vBrNHj7WZB4xrCVM8krjXeg/BfypUbstXygChuRBTWM7q4Fd+8JgK/O4JY/ApCF8bvZeygd5CK+3MPSWOsJQlhSUVo41lQ1Iglsxr33DpCKjvVHDNmTyXinqcQ/slcpQlhtFcot+pDuMk7mNv9oxgflsA433DGTPfGVeuPxRLB8gUrOFJ2XAFQMlIr6tBLh5d/6pUvCfjkE0jqwN6+Lvp6u5XO3trQiNHbhIOzu2JMHm0MY3TiEsSi5xDPfICHtPZl1iOKuhA5LfiknyftwAXEK18gnlnLVU++zZj7V+ExdyWTfMLR+4Sj8/BDZ4hQxo8rY5fg8sEPmMqaETl1iLw2RHEvIr8XUdijwOeY38mczAv8JvURJhjjCIiYqch3HS1x3J36EGLlGsS3FYiiTkRZP6Kgk6sym/DJbuaO9/YgHnwD7dPr8XnoL2hmPYxb1ELG6kJVeNIkbTBjNBamWkKZ5BfB73T+XGmKYMqcB3G9/yWmPPwWv3niA8SrW/DLb+aOgkZEcTOioJ6r95/Gkn0G8ewHiAdf44ZH3+TGVV9w29p9GDNrcCtpRRTJ+WwnIq8Bses44s2fEI+/i8ujb+Ew82GmR83F0Rimojq0pgAMBh/0OqMyZEh6xekxi/Ba9jLjnliPePIjxOfFiNwWRHYDIk/eRwu35zbheqCWMe/swPPpd9Dc8wQTwubye48IpoYtwXPeCxif+pgJf9xMzIFGpu2r47rMFjxKetCkXyByfzXXv/SZun/3Z9ZjfuETPJ9fh8NjrzH18dW4PvoKd824lyu9ApWTwxR3M5MdPFm39lN6uwfo7+lX7vhy2vL/wueSgW/AJjOQyjTL9m36zgzcputUTJakg5sYPRfLi2sJ3ZyFbl8VNxQ0Iw7UIUq6EQfhtwfasRT0cP3uGiZnN+KQcRqP7/IIXPsN0+Y8hJMpCnfPAIw+EUwz2EmYrn/4Fdx+zEfsP2UHcmE3Qqqecn5TICVgO3HZdYhZT3G1MQEH/yQ0EXOIf/KvRH/wI/7bDyMyG+wDQFmfXWXNbuaKMhvX7jnDqG9KCN91jLQfS0n7dA/6h1dzS1AakwOT8QxOY7ohAh9LrKJ6v8EUj+OyF0j4aAcx3xdh3HWUW3edRPx8EnGwD5HThsjtQOS2cn12E9qSDibtO80NXxcz7ufDXL23it9mX+Du0g4FDCGtodmNdrDIgSrnArfsPkJYxjGCP9uB9snV3OIXq5KOSCZtkylE5e5z8AllfORsfFetI3RzJoG7TzJ5bzXipypEdiviQDMiW4KwCZHVoLSGO3ZXEf9DJTM2ZhLw0ueMX/QyYS9vYcGXZSzcXYPl+zM4ZrQjMtoQmVKttyEymvAr6UK37ThhO6oI336GuL01xGScJ2L3CWL3HCNpRznRH23D/7l3GBWUzERTOOOddcydu4S62qbhpJf99PbLReF/fQBeGvBJvVsu8UnLlNza4NmnXlLkspI06RbPYMKeeZOF3+YxI+sswYdsiBIrorgLUdqHKBlCZA0gMgcQWTaEBEKJVCVrCc48hn71x0wMS8PDJwKDVjpHh6mF2X+Lu4dbXn4Pp90ViL1nEfmdiPyuYeBZlUQNyK5HzH0W4ZfGVYZY9Aue4qkfiliQcYrocnn9bkRxt/2aee32jilV4ZwGxIHz3Jpfh25/FTOzz2B852uuS7qPO3yTcfKOReMegsUzDI1nJA6x9xOyZiuz9p3GLf00IqcWIS2vsv6KIUR2l/3Z0jsR+yQIWpT1U+w7g8itQRQ3IEoaEbmyNCOyWhAZDWoAEZV9iPIOROEFxME6jIVVmDZtQ8Qv4hp9OE7e0ZiNcbjpwhkXksLoxU8R8EMurtmnEUX1iPxhwOV2IiSIMjsQ+5sQ6bUI+azFHUzKOE9gRg1BO07h+WUpKVmNJOe1Y8mxItLbEEUgikEUDdrV+6x2RIkNkduEm3yPOxoQ+9q4JtvKuHwr0wtaCMi5QMK+Eyz4qYgbEpciHeol2dJkZw8OVh4eBlwfgzLH9GXw/SeFvwSfdAOSbSinfAOw8J4VuHkGMFkXyo36CFL/uon7dx8m5cBZdPkNCGmplGpQoRVR0I/Y34/YYUVk2BDyxUrQ5NdgKqnB8NF3jE9YoGj2vDztlHrTjJFc4xPOtXMeQLthO2LbYbuUyGlF5LYNj+z1+GXXIBY8jwidjzAmob13FX/Yc4zkncdxGwFsoQSs1a665rTYO78EQV69AoZUE/0PnMLviwwmLP8jt/ql4ugZga93LKl+KVj08bjGPULUuv0kZl5A7KlCZJxBlLYjyrqVhVFkdSMye7l+j5VRuzsQuxoRRVZEpnQbkyC4gCipV4AX+a04FXRx5e56xD67dBKlrYisk4jsI4wtPUvwriJ+teAJbvVLxt2Sis4rClfPKOWed9vjrxJYcIqrSi8g8s4h9p9TGsaNuV2Mz+jkbgmmvU2IfbV2sMuBLreZ8dnNOB2oZ/Le8wSUdfPrnecRu2oQFSBypEYxYB8oS1FGLalZCDV9aEDs70Qc6EFkd6vlDJHZyFV7qjD/fIiZ28qYuOx55VY4WR/EdXeMo7CohJ5eK7bu9uHFvMuS7z+HPgk+ab2yDTIkwTcIq1a9rlIsj9cEMM4/Ad9H/szCr3NI2XEIbzmH+fkYYu85JZ2UmnigF7FLqjQDiBwJPvlCT6NLP4LLG59yU+QsZBYdmajE6B2ClyGUCZ5BjAtKVYBw+7qQf9t3FnGgxl72nWNK+hkSDlQj5j+HCJ2nXJompK1k9oe7iP2ulIlbK+1qpwTc/hp7R5LqcK6cF0nDhNyvYVr2OYL3ncC8fjuj5j3JHX5JOHmFYvQMJkYfio97KOMC7iFo9Q/E7zzBlPRTiJxziMImREGbXcrsa2Hi/i60uzvwzbDiIIGV22SfB5Y1IrKqEBVNCrQSAKG5nWh2nGfcznOI3WcQxU2I/DOI/ZXcdKASyzf7ECn3It2z5KK+p1sEHp6xTIicj1j0JN7p5Yj8k4iCc4isc4wpaMMlowmfPU2YdjXgtqdeLceIA/Id1CIyzqNU3R1ViG/KcZeDz87TiJ9PIXLbEen19kFRSs8iqS1IFboekX0OkS7bXb6zPkS2HDxbEZlNal4fuucEKVsLGT37UcYEpTBFH4qTmw+VB4/S22PD2tnKkLSMX5Z8/znsqV9JAA7amcvk7tdbt6vkmJO9/JjgH4PzjPuZ8e63pH25n5jvSwhLP4Mhs5bbM+u4OaMBbXY7XulN+BR1c3v6Be7afZIxWwsxbslg2jN/5d/M4Uz1D8UcEkNgYDQ+hhAVAeCmi+JGXSwJn+0nYMdhLHuO47v3BH47jhC18zBL9h7nmjlPIPxSuTEghRt8Uwh79n2W/FRhX2bIvMBN6We4eftRXPZW4Z59Xs3F5HzMI+MMrjuOqHpjtxYy8ZE1CEM0ow0RaM2R6N1NBLl5qwjyMV7RmJ58l7jPD+C//SB3px9HpJ9E7D+LyKjFaXs14Xsbidley8x9zQT+fAqnn48wNfMMN0jgbStBU3ABj22H8P/pMLP3XWDG7vPKeSBw31nG7j7K1OxTTNlThvu36Xiu/gihD+d6t0C0xiQMHpEYdDHKH1UEJOO89mtGbc1idPpRrkk/gfeBCwTuPEPszmpifz5D3K5qog5cwGvPCRx3y//XYJTayPu7EQ+9yZ0f7cV/53H0e88yekcVv89qtA+U++vVgDUup1YtO5gyT6LZfVQZYyZltjNqXz3X/lyF055TRGScJvLbfALf3IzQhDI1OBU3Y5RKxHm26rxaN1DresPkW/+F3vff4qeXZs6nlmUGqWmqU9M+a28fLdZuwhNTuHOaG5qIRAVA19RlWB5+VUVTG1/bguvqLYxf/S1jXvuWO//8BeNXf8H017/G+50fML3xLW7PvMMtcx7iN0EJjA6OZozeB5+wCL7ftoe/vvoe7lN8CNbEovGI467oxfi8/CGR63/E5aUPcVv1IfFrfyTsxfWK6m+0TwwTjTFM9UvGIeoeHOY9ydTH32Tca18x9YNtTFzzFa5rvsLhdbndgsear9Gt+Rqf1V8R9OcvmXzP0wh9NKOMUdzlZiIsOoWFCxejdXPBbPbF0SeC2/ySGJNyH85Pv477G5uY/OZmbn3jKxze/pGxL36Gy8tf4vOX7wha8wN+b3yHbs1mHFZ/yrhX1qF54yv0r3+FbBff1Vvw+7O9mF/9Ct3qr5jw0icY3v0GnzUbGbvsaW4KSeFuc7RiBPNwCyJAH6UIhCVB0tXaYETcQsY++wbO725h7DvfMPntrYpJzfv1rRjXbMW85lu1pijbWRbzmq1MfPhdRNxDSPqM36euRPfUewT8ZTM+q7fg9cYPeLyxDffXf0Lz+vcYX/8W/79uJvy1zwhe8zk+727D9Z0dOL71A87v/IB+/c8Y3tzM2Htf4IrAZCYFpnLnNCP+gcl8+P7n1Jyut9sI5IDdI40F//qfSwI+aSruHOjCOmhTsdC2oT7lkrfhm68JiUvkpvFT8QiKZlpgHGPMUVyjj+RXXpGKA0UEzOaKiAWIqNmI0ASEKZor9BHcqI/iTmMsk/3imBoYzfXTNTj4+fGHNWto7eql4Vwr96U9gO94C5Zp4UzRRXFbQCLXBiQhfKL4lU8UN/gncLdfPOO9I5imDVEZhlz14UjSIklh9ytLvPK2EWbpHRKHkGt/PnEI7ziEIYEr9QlcrYtTvotOQbMYrwtTi+h3Obrxyuo1VFSWk5gUheN0R7RBETgHxDDeL4pbTRFcoQ9DeIUgDFEISyIiYKailZDePepaxhiEKYZfW2K4zjeOq/VR/E4fw5X6OFWk943QSy+cOIQ2mutCZ/MrXQRXuPkzWhusEr5IK6dBH0qgJZrt3+zh4fuewlMXzBRtMOMD4vm1RT5LFMI3wX4P8tomef0E+3P6xCojlDRE/dozVjma36iL5lZdlJLucqC5xSeaa3VRXGVI5ApDkipy/zp9tJrL364PUmt7V/smI3zTEKZ4hCECYQhDmCK5yhzJKOnz6ebLVCdvltzzEKXZlXbg9YGtQybX+dcHnnyCSwa+lu5WuumjbbBLlT76aeux8t7HHxMQFskUFw2TXfXItR4XQyjuvvG4BySrJBoyj8DVGg9u9dYpbw1JGafTBuPp7o+HmxkXDx9uHDeBpc88SWXdOWXT6e+GLe98SbJbDLHuMfiZ45jq5cfdHhbF6SLdtuS+o6cfRr8ofAzBmPSyhKA1BCtvenndOyxR3GKJZJxvlAoBmmKKVOB0NUTjbpBsXDFo9VEYdJGEBCcyYcI0/vTqa3T1dyufxIqTpWhMHkzxmI6DRouHwYKPbxiWwFj00mvEHKmSnchOepshmNt9ghljDGaiKZhp0gvEFKwy+MoFfK0hWrF9yUj2yeYYJpijVZlojFLtJSNCTMZoLN4RaKebMHpZWLF0JZs3fqWMXDu37mBe2gI8XHxwnm5Gsro5WKIZq2IoY7nWL0aVGy3R3GmKVNT9kjdUsmZ7yIQmhgicdMEqBbb0gXU3Bar7kwlWpnmHq/9PM0SprXyH0lfWzWBRZZrOT3GHTjCGMDEwgikh0Yz3D2W8wZcpGiMubkZWPvAkuTtz6G3suQg+RbAs5yn/D3wuGfja+zrpoBsb3XQN2egakp1zkLM1F9i9Zx9JyTMIDYtGp7Pg4qLD2VmPi4uBaY46JjlMZ5reHScfN7Q6Dzxd3NFOcEE7YTpGFz0Wg4U333uf8tPH6GKQ+u5O9fK6a6y8uvQFYt3C8JzqxXRXLR4eRjy0FnvxMKpjbo4atM46dE5aVTyc5PW1THLRMcZVq4qjhxFnd3sncXP1wcPFiJeLCZ2zCYOzEX+vACIDItj61bfU1dXR3NpAz1A3NZ31HK+tYvF9i4iICkfrbr9/n+k69M5eyGs7OXmp2DhHb18mG8xM8NKrdFyO01xxnuyI63hHTE7eGJ2Myvnc1d2Mg8asuEwmexhVbntfcyQmjT/ud7sy9eZxeDtqeGL5SrL2ZCBJdpXqNgj1J8+zbvU7JIfEo3c14eJkYJyDlrs9TIzSGLnN08jtGgNj3QzIbEhuzjpVPLz8mOrsxXgHZya7uODgOo3JTlOZ6uzEdE8d01y9mCbfl4s3Tq7e6ruLqwdOri64uDjhaw5A46FXThUy1dgEdw13u7oxxd1T+eb+adVfqCw8aI9SkEa5Sh6U7gAABqBJREFUDrkobHcj+2/CAvFfhv8lAp9MStRHp+IAkf7pg3T0WOnokr6e9o/VauPUybOk7z3AF5u+YsO6DWxav5HNn3zBV5s+Z/2Gt1j3yRt8vO5tNr3/AT98tIn8n9I5X1mFtalNVSKlqZUeOpR1zL6kcTijgu/XfcNHb65j44cb2fTxJta+/6Eqcn/T+s9Y/9Y6vv5kM99v+pbtW35i1/c7+WnrdrZ8vZVPNn3J2o8/5bONm/n80818seFLNn/yJVs+HilfsOXjLzh3tIoBq42hXulbb6fN6Orvoo9eugdtSgqerDrC7m0/sHXjZ3zz0ads/uBjNn2wQd3X2nUf8866j1iz/kPe/ugTPtn0Odu2fk/urt0cTM/ih/Wf8+1HX6hrb/z0Kz7cuJm1Gzez7tMv+XDDl7z3+lo+X7uRbZ9sIeu7nVRXShctu8PxwICdWGFoaAh6+qC9m/aTNZTvL+DHz75j3duf8OGGr3hv41e8+9mXvLtxE+s2bOKTjz/ji4838sVHm1ROhO937+VI9Wkae9o4UXeK7Vm7+HTLRj7ctIF1Gzey/tPP1f3Ie1L7GzewduN6Pt6wnvfWvMH7r7/NB++t5cOPPuGDDRv45Ost5BQW0djYTFdrJ3RJPVM63A8bNwegu6fvv01O9f8q+i4J+EZuuq+vj95e2bLQ1dU9nIARO+OwPCiROFKkni/55KVznwrClV7tEmSSPnmYf0I6PkgrtBwhGVSe71LaqA7fa6Olpc1uoZbzdXmOrFNu5feRY/K7fN9NVgZau8Emrzl8rhoZBu2eFr2D0CeDxkaKjCeTP+xX+QtktHS3TWZhGqC3txur1T6w2B9nkL6hboZkr5LptiT1sxzOR+5DBlrL6OwhsA4M0NnfT3dfr71e+fwSRDIKRNIm9A2pdpPRNLKfqr4q70m11/DzSfz39NHX3UN3r02pwF2DvWqriFPlM3cPMVjXwVCL9LMFuY7d1zuErV+WAXoH+hmQ6Zbl++rtVa9CVtsnibDooXOwjcauOtp7WpDDaU9/n8po29MDsnT1Dap65DxfhgKpdpLPK3O9Sz+LoSGae7ro6vsFr09fP1i7QA5gQ4P09NjUIN2rnMxUt/mX/nNpwCdbW3YO6VnWZR/Z+mQnl8RS/dBl66NHhhf1DaiOJVNHqxffJztGD4MD3fT2t2Drb6a716petMKkJCseLvICfTIFGT0MDHXaAUgvVgaobW1loHfA7tomQTTSUXsHGbANoLhAho9JXEgVTXbc/r4elU1X9U55QdnJFTCHUGmHh3rpGepRKrSUusdOn6CXftW5Oju77L1sUI4VA3R1W+kelAAcZHBwUF1DsW5JIAxBR2cPnT39dnwNjw2y2QZ6++y50e0oVp1vBLNyGJNFamnyWEd3D51WG32DA+q7BEsX/chALiuD2KRb+4D92hefxTZEX5PVXsk/PJ9MODmSTVie39/Vi62rk/4+GQktRz776DfY02VvGzkQypsZHhRlW8pnVRJXjl22QfWczd19iopQ1iJP75YGORmn12+PdKHPRpe1le7+DgX0bmRUg3xB/9qfSwc+2RNG1AnVgVGEp3JCLbk35KAnhYGkfVOds7+Xfhm53N897F7UozLmyM5tH4GHO16/VE3sKY/k+SNuNJLoRwKivrtddToZnqJQMQI8uR3u0EoQyY4i80DKMWGkow9J8h1pbZNSSEo4Ow2d7EySBLiXXgW89iEbTb3tSio0tbfR3mFVdfXY+tVNSnYtWaU0wsjwmBFqO1XlML2IfPaR51JNNcx41y/ZuAYHVAeW15W/lUrkSLF3XrvElM0rfys7c8dgH+0DvXQO9SK7cENXh/oum17ei9IALkpz2WzDkl1KWflCVGeXEwR7iuUh1cby8ABDvTb6u9sY6uu0h4bJRA6ybUaAN/Ia5M0Mt7NsC9m+8vryNKnHyBgXOThaFf3YIN22Dvq6OmCgWy2sy/AzKWWljeAy+P4rA8/FDj3y9v9PKvslUuz7/1iN6kgXq/r78+ULu9jZRs75+x+MHP3fbIfrHLnwL86U9f99Ge7YvzjH3tPtB/6dKn555shYcHH7d//8xZeRev5PtyNtMHL+xapGDvx7W3XSSHv+baCyP8/I8X9om/9lPRevePHZ5D398r7sZ/xDvb9o37/V8K+7d2kk379ue12+88st8E9rgcvg+6c15eWKLrfAf6wFLoPvP9Zel8++3AL/tBa4DL5/WlNeruhyC/zHWuAy+P5j7XX57Mst8E9rgf8Bqvx/oz+TKvUAAAAASUVORK5CYII=;" parent="4Wbo6gHmPg_REXFT99EW-1" vertex="1">
          <mxGeometry x="335" y="140" width="105.57" height="80" as="geometry" />
        </mxCell>
        <mxCell id="4Wbo6gHmPg_REXFT99EW-6" value="" style="shape=image;verticalLabelPosition=bottom;labelBackgroundColor=#ffffff;verticalAlign=top;aspect=fixed;imageAspect=0;image=data:image/png,iVBORw0KGgoAAAANSUhEUgAAAIMAAACgCAYAAAAvpd/+AAAgAElEQVR4Ae1d95cU1bZ+/8Fbb633w70GYIDpmUGfvnuvIAwTyQyCcpEkXFAMSNTLVcmI5KwoqHCJw5BRgiCohGcAFZQgSXL35GFyDl1V31vf6a6xp9NUd1d1zzDda9Wq6urTp87e5zt777P3Pqf+A+FPmAN2DvxHmBNhDqgcCINB5UT4jDAYwiCo50DIwKBUVaB0/RJk/6MXyja/D6Wmur5RLe1Cqa5E6bolyB7VB+Wpq6HUhoYXIQND3bVfkdHrMVgS2iEz5X9hvX21pWGgnt7a384io/fjsCS2R2bKk7DevV7/WzAvQgMGax2KV8+FudNDSO/5GMydHkHZplWALAeT9qbxLElC0bJpMHduJXhxr+NDKN38ASBLQW9fSMAglxUjq9+TsCRFIb17DCyJkcgd3RNKZVnQGRDqB8olBcgeGg9LosnGiyQTsgZ2BFVHsD8hAUPNL9/DEtdGEE8wpHeLFiKy7vcLwaY/5M+rvXAalri2ggeCFxwcCW1Rd/O3oLctJGAofG+CkAYq8TybuzyKsq2rAShBZ0LIHqgoKPl4IcxdWv0xMAQY2qN4xdSgNyvoYJBy05E1NB7pyTYVoQJCqIqX+kAuuh90JoTqgUpFGbKHJsCS0L4BGNITI5EzuhfkwtygNi3oYKj+9jDSE9o1EIsCEN2ikZ7UHrUXzwSVAaF8WN3tq7B0be0yMKg2CYias6eC2rzggkGyonj5VNeRQLvBbkiW/XtJUBkQsocpMoqXvQ1Lks1wVCWkeqa0KF07D1CCpzaDCga5MA85L/aFJb5tQ7FIMPToAEt8O+S9OgBKWVHI+ihYDxa8GNHd88CIi0DepKFQKkqD1aTguqNpOacntoOlm00SqKNAPVuEdGiPustng8aAUD2IKoAON9Ks0u94tlBVJEei7vr5oDUxqJKhZP1imLu6kQoODBHiccPSoDEgVA8q+XAOzLSdHGh3vjbHtUX5jo+D1sSggUGpKkf24DiPOlJlBF2yeeMHQamtCRoTgv0gOt1yRveGJSnSKxjEDGtMXyg1VUFpYtDAUHPma6Qnm1xnEc4jwz7ltN4KvtMlKBwHUHv5LNIJBKoCZ/odv4vfo4M2wwoOGBQFZds+gjm2tXfiyQh6I+PaouKzTUG1pIMFBMZfytLWgCqgUTDQGRfbGhX7twSleUEBA8PVeS+nCIPJ60iwjwrOKu5PfB5KdUVQmBDMh3B2kEsVEe/dXlD5JHgxaUhQ1GZQwECLOL3X40j3MKdWCVfPnHtnpPwF1huXgtlPQXlW3eWfbKF7jbyg8ykj5a9BCWsbDwZFQfme9TB3frRxFaHqyx4dRPnKo7uD0kHBe4iC8r3rRRyGfhUV/I2dGbepPLzD8GYaDgalrha5//DsXPHECFrS+ZOHAJLVcCYE6wGcFeS91MslSOeJB+p9+iPuv/4sYK0ztKmGg0Gy3LL53p0CUyqhHs/dopHR63FI2WZDGRDMyq33fheeVi2GoyNfhMu612OQMm4b2lzDwVCxdwMsIkSrXSyqjLDERQTNkjaUy/bKOaMiTSp92s8dYOn8CKqO7TW0mYaCgYmdeZOG2KZRPdy7Xb0xhNOvghmvBM3pYiSn6XS7/8ZQmDXOIhrwpUcMzHERyJ/+ClBXa1gzDQWDlGUWGUy+ikWVEZaESJEsK+WkG8aAYFUsZd4TEqExr6NKu8uZapaqIjfDsCYbCobyvRu0OZrUWYTzuVsMLLGtUX3ykGEMCFbFFftTXTKaXDrcmX7H73TGdW1j6KzCMDDQci6YPV4Q4BPRjgygeOzSCkXLpgJW48Sj0YCw8WKcALbfvGBENy4CBXMnG7bGxDAwWG9eQgZjEcmN+N8dO9/NNUO5rEcuLTa6zwyrXyrIRXpCW4/has0AsccqrHeuGdJWY8CgKKjYvQ7U+ZoJdQME23+Z9NIWVV8Za0kbwl17pYwt+DeLcDK6k6PF8oKqw9sNaa4hYGBM4f7kofYsHt+nlM4AsonHic3TASVJuP/Oy+6zuzwOACcQqOXs2WAFM141JFZhCBi4/iGTy8V8dTSpRDufk6OR2fcJ0GnT3D7kRXrPDgGrS3WAcOGRWIJnAC8MAUP1sT0wx0bYvG3OHevPd1rSSSZUHf+8uWEBlYe22SRkY7kLmvliyxWtPLJTd17oDwZJQv6/RupkL/whLpkOVzR/MpRmNKvgErmC6WM8Jr2qo93XM22x/KljdM/30B0M9J9nDXiq0fQ2nxmQGIms57sa7p/Xc7hZ71xF1rNP+RyYaow3lJJZg2Ih52Xq2Vz9s6OrThyEObaVpiyexoh2/p2ziuqTB3VlgJGVcQZk7upPLOIPiejMA/FdOKBao+bMcV2br69ksNYh/51RmjOa3BLqRXcyrF0w87XmsXRflpE/5QXd1aXKM2ZAcc2qniF+XcEg5+cga1BXzSldKmFazwRD1uA4SDqLR12Hl70yKceMrOc6uS6d8wJ2rXxgOYIha3gy5PtZujVfVzDUnP7a7nIN3LfgiTFM9Kj+/qhuDDCqImZpsa2e6Aj8fgdYYtug5kf9VIV+YJAlFC6aAgt1pA8pXb4yhSHgkpXTQ7KziVbgcM1H4fxJ/oWrtUoOpgbGRaDkg1m6zSp0A4NcXID07v8Dc1I0zEkxhh334toje3Q/SDnGhXK1drqnclbzLWQOS8a9uEjD+CB4nBiNzJSOUMr12fFGNzBYLxxG4cDWKBwcjcIhBh6Do1A88jEUzRiN4o+XonjtoiZ1FK1djOLZo1A88nEUPm8ymBfRKBrUBtZrJz3h0qf7+oBBroN8ZhrkpY9CnmiCPNkE+Q3jDvwzEuWjuCKpkSmYVpGrYzkupK0YHQm20UgeCB5PMkFe/giUs/MBOfDEYX3AUJoJ6bMESKltIM01QRpngjTJuINMrhtvQlbvGI8run21RfQob0mOQXbfaEj2AWEkDwSPF5ggbWsDaX9voCLwHW90AYNiPgVpSxtIae0hbTFBmmqCNN44MEh2yVMwiDGLpiMdqMeLBkdDftNA2jnIONimmyClmiCltYO0tS2UrJ99UgnuCgcOBkWCcnYJpI1/hrQtCtIOE6RPTZD+aYI0wTimKG+aUDE6CuYmoirEPgvdYlD5UhTYNsOkAnk6xQTp3yZI2ykZoiBt/BOUS58EPKsIHAw1pZC2PQ5pWztI29g4E6SdJkgf2MEw0SDGTDbBOsGEzN7RoHjWQ8wHUoeqItgmSi5DwMC6yc+P7DxW+U3e7+wM1AW2dD9wMKR/B2lL6z+AwAammWwSYpGx6oK2Q/5zTQQMSTEo+Hu0MBoNAQLVA1XvUjtvyeN6MJggbWkF5AW2NjVgMMhfj4WU6iAV1AaysdRps4wzKJU3TCgfFRV6ycAs7uQYVL5ooIqgnfCuXTU4A4GqYtNDkM+tdGcKaL4XGBg4i9ib6B4MBAV12kYTpH8ZIyEoGWpfj0ImZxUhVBV8dlbfGNSNjzJGMlAivG2CtNkuFdQB53hOjYC0PyWgWUVAYFDufQNpaxtI2yIbiizHRtJ+WGvXowbYD0JVDLR5PQPR+YH8l7OIgkEGAYF2whsmSJ94AYLgd6RtVpHh/z6a/oNBkSF/NxVSalvPQFBBQUCsMEg6vBl6VUHJUPGSAWDg4CEY3m8MCHb7IbUd5DMLNasF54L+g6EsSzg7hKNJ7XRvZ6qM9/S3H4QD6vUoZPUKjQOK2xhSTdWN0xkMBALtBDqWxBTSyWB0x2s6/Q4NBMpznPtZ03e/waBYOIugVPCiIhwbTILokJqmPyBoSN4P0ayCKiJ/YDQUvaeTBMIMuxGuFQzsi63toGT654DyHwxn5tvtBQ2IVUFBh9Q6EyQ6ZXT0UFI6lP0jNLMKqgjOaNgG3aaU5A0dSxs0qgeVvzxvjYDy0zK/duf3Dww1ZZD2JmuzFxwbymsCYrXdeaKTQcmgTe3YKGT05G5xwXNACRXRy64i9JIMKk/WODuWNA66rRGQDvQHan1/eYlfYFDSzwhxpFlFOAOCBuViu7pQiQ8ksMVYxWSbqqDYDmRm4Mt/hYr4u45SgbygVFjmJxAEn6kqIqHk+P4iF//A8Mv7kLY8YvOLO3e0lu+qDpyjn/3AeEDpiCiYg+hv4LOonnSLRdBOYNSX/HFxLGmUDHRAbX4YyqUNmoxGx0J+gUH6vDckOjm0dLynMiSYDqm39AloMVJY85oJGT2CM6ugrZDZMwa1r9vyNgK2FygRGO2lka0OFk+8a+w+++bgAMd+1nTtHxh2PAEptX1gYCBBVBd0plBFcD4dgKqgmuD/8wZEB0U6UEVwBiPaHKi9QCDQqGa0lzxprLMb/b09pB1PagKAYyH/wMCYQ6MN0lCGopDEr9QnwklxXTI8OGCgZCgdER24iqCdwEN1LPmtHpz4nRrp2M+arv0Dgx5AUOsg8RSL83SwHyabUDPWhHQ/NhPzxXDkLCJDzCJshmsgEk04lhjd5SxLLyAI3gYLDEIyaHQ2qZ3u7UwwbLU7pCgyA1AXqqrgyPWlg30py7qpIlTV5Hd7aTDOtI/oQO0EN/zVJA4cCvknGY6OgLSJmU1OoimQ71QX6+0ZUgEAol5VGDjFpL1QNjIK9Hz6DQTSyGiuP46lxvi86U+Qj49z6GZtl36BQSm6C/noSEibW+ljSKrEERAfBmY/sIOqXjFuVkGpQOcWZy5+ex1V3wqjuboYjPZBybySrRGQv3kVKPV9hbZfYBA4q62AfO4DWyKsY8qb2rH+nqk76ZDiyFGZ5oPaoOi2TjQhp58xhiR9C5yxUCL4pSZIE2dOdCyRVn/55Pw/AYR2UM5/7Hf6m/9gICJkCYrl/yDt+Js9TqHDdJNGFI8AHFL0ORQPjxKrmXyxBbSUFY6mEQE4mlTHkkqnc6f6/L09pK2tIe2Jh5J1DlD8f7l8YGCwqyIl/yrkb98SyRW2/IaowBDPEbPJ7pDyw36g+K5+JUo4oHSNVXAWoaoIfzKgCQS9HEsEDXNJmMPw/UygKPBNxnUBg8CEVAv51zWQtnWwIdVnhDuJTAKCThg6dPxwSMmTTMhJ0dcbSXsh95kY/9QDaaDBSSNZD/WwpRWktCeg/LZZl9VU7EP9wCAQoUDJvw75wDP22EWA088AHFKUDkVD9c2cJhhKhvsRmKKdwIPLBwI2GCMFb+Ujw6Dcv2KXzfqcdAaDvVHl2ZB/XmIzLkVanJ9qg3qVo2i+7/kPBEPVy1G6h7Sr/ZlFUD0sCdSxFCVmCtKWCMi/fABUFuiDAIdajAEDHyDVQbm0CXK9cemnlFAdUsz68cV+oHrhrCJFn2RZ+hZy+9tjET7MbkSbuVyAapPg9kt9MizdBvLeeChXdxq2N4VxYFARV5oB6YtBkDY/ak+p90NKUDpwORmzf3wAhFAVQ/SZYnIWUTLMx3WUbCsdSzSG/bYTOFuIgHxkJFCRq3LVkLPxYGCzK/OhXPgUUqpd1PkzOqhrmf3DUanR/0BvZNWYKJtbOoAMKPXd3ZyhaF5US4OR0unjAOwEhqK3tod8/hOg2viN1IMDBgKCC3TvHoe0r5t9tuGH2uDo4vIy6mANolo4oCbYVAWNPy1+BHdl+F86sejM0uxoIhgYjfVZIkTZvLr0HRx6DsqdYwH5DnwRIcEDg9qq4ruQj71kW58pciJ8UBvUubQhfHBI0T3N3WQCAgOX2g/xIVxNsDIKSyD4ZCcQCG1t9sHxiYarBbVL1HPwwcAn15RCuXnAFqnkfNkXtUEwUAe/o81+oN1QOSYqoE09qCaEitASmCIQuBzA54ylKLF4ln4axXwCqPM9oVXtVH/PoQGDvbXKvROQDj5rY4IvmVO0H5ghxc5pxCGlqorsvv6txxQqIiVG2CmNqgi2hftS+OpYYlyBK9kPD9Nl041mCQbRaEoJsQYjwrcI6C57dhA7oBGDkoZkwfP+TTE5pSwaqiEWoTqWGHVl27RKOwIhrQPkb6cLQ9vfjtTjfyGVDPUEWGug3DoEKZWubC7k1cBM1SHF5WecwnkBBO0GroWkuFdnBu4MRed7omyPGFS9bPKeu8Bnsw10LFFqabITIm1JxWn/CyXzDCCF/h1cTQMMdlQoOechnZpgz5Pg0r1GjEvaD8y6YraQlxkGxXvteBMy+/gIBm7YlRItdojxqiL47Nl2ALNNXsFMI5FTxjaQv50CJe9y/ZgI9UWTAoNgRl0l5NPzIaU97nnfB0dm02JnthAdUp7sB3VDsOd92xCMm4eJWQRtE08Z0JQI3DuBRm2jQLBHGtMeh3x2ZUiMRG+Aa3pgYGtlK5R7xyHt+Ku2CCgBwX2OvDik6Cwqf9Eeq9DggFLVCWcinJG49WsQfPyNjqVG/Ql0KbeGtLMTlIwfguY78Nb5zr81TTCorSy8CfnHuZA2P+JdSlBHU1cze4gj1Y1Dih1aN0H73pGcRXAGQlvErYqgnUAwrNLgYaSRuPlRKGeXAyUWlbomd27aYCC7rDWQf1kDafuTtqidpy0ACAge3PfIg/3ATtU6qxCziCFekl75DEZTqRo8GoyUBhGQdv4N8qVNgFzX5ADg2KCmDwa1tYU3IO1JsksID65sdgz3PfLgkOIUs3yUNm8k1YTHDbsIBHVTTo92AlMA20M68GyTlgYqe3luPmBgeKMsG/KPi+yubA/bB1F3q3tAOBmUlAzchEtsCObFbiAQqCKsE6JcVQTVkLopp1s7wT5b2NIG8tkVIfcdOHZ2Y9fNCgyCGKkWypXtkPYlQNpKV7YbKcFO4nI11RHkYEMQENxpxVusgr9xK2IXw1Gtj44l2iiOsxpxzSykVpAO9IFy8wvd0tEa60S9fm9+YFApL7EIESyYT3Hs3DHsLDebkopZxWjvu7xQMtBJ5bJIhlJB3ZSzwfMoDehSbgX52Big6JbaymZ1br5gIJuriqBcTYO0uY3duHRwUqlGnZNDSswqxpmQ1SfG7WptJrFQRdSNc1okQyCojiW1bgEI5mi0hrS5LZSb+4Ha8mYFAMfGNm8wkBJFhnL7KKR9yQ5hcbsIp7pQHVLqlNNhlxd3O9ILFTHQriJURxP/625TTgbXmMHFvAPL//m1j5JjZ4T6uvmDQeVg0W3IX78GKc0uslUxTkA4ZUhRVXDHFU4fXeIR3LBrtENginYCHUvOm3Iy7yAtGsrJKUCZfm+QU8kJxfnBAQO5V1sG5eo2SFu45pABL7vaICBUhxSdSNxmeKxJLKt3NCR5zRea1Kp7OqqOJRqjjgYj1UJqjAiuwVodin4z5JkPFhjsLFKyz0E6NkrsbSQMu+1RNueQw6akBETesw1nFVQbYk9HdbUU/QmMihJMrIPSgN7Q469Dyf3NkA4JZaUPJBgEQ6tLIH/7jhDlAhDsUIe35BAMzntHilnEi/ZYBO0EGp+MitJgFHkH0SKIhtqKUPaZYc9+cMFAltEnceNzSKmP2dQGAcEsJL5MbSJ3pDeJtZMEAY/MXlQRtt+EY4nGJz2MVAtpf4Fy96tm5zvwBTkPNhhUTnDJ34nxkDY9DGlne9syN9oOE22qgoYkD6oIrtEU4eo1UZB2toO06RGxYToKm6fvQGWBlnPLAAM5wfS6syshbX8MUlqEcEgpE00ofcE2qxBL7bkbC8FAx9L2NpB2/A+UX9Y0ubwDLR3rT5mWAwZyhz6JzDOQdncWxqAyx4Qa+yIb7h9Zy0Uy79G9HQHps+5A7sVm7zvwBRQtCwx2ziglFsinp0Je9zCkt9oiNyUGeVxqPzUC8oZHIf+0EEpFni98fCDKtkgwiJ6rLYdyZQuUjX9F8aAIlAxvA3lbLJTru/Ag+Q58QWnLBYOdS0r+FdR9kADr2h5Qih98I9EbOFo8GAAFyo0jUG597Y1PLeK3MBhaRDdrIzIMBm18ahGlwmBoEd2sjcgwGLTxqUWUCoOhRXSzNiLDYNDGpxZRKgyGFtHN2ogMg0Ebn1pEqTAYWkQ3ayMyDAZtfGoRpcJgaBHdrI3IMBi08alFlAqDoUV0szYiw2DQxqcWUSoMBjfdXHPlPKw5vr/wy01VzepWGAxO3aXU1iDvjRGoMwf+mh+nqpv81zAYnLqo8vgh5Ix5BgRFS/uEweDQ43JRAbKGJaNozcImuRubQ1MNuQyDQWWroqD8QBruPflfqPnltHq3RZ3DYLB3t1xwH1mDusLctTWkfGPf+NJUEaYbGOpqrZAlGZKXo65O0swHRVG81uXtOY6/aXqgoqBsx3rcfew/kTt2IJRq37b3J13eaJdlGb7QbrV656Mjfeq1+h9N9HooFBAYSkoq8c1XF7H6/cOYM3MHViw9gBXLDmD5sv1OxwEsW7Ifs2fswMdrjuLc2Vuioz20CTU1ddi5/XssXviZUz3O9Xr+vmj+Pqxf9w0K8ss8Pab+vjXLgozuMTB3egjFaxdpMh6rqmpx/JtLWPPRl5hN2pcf9NhW8uS9Obvw8dqjOHXyMsrLPe/pUFxcgcUL92HRgn0e63PmL+tfsuhzvDt7F3akfYebN7KgKPXkab7wCwwctbduZmPc2E/RLfFddEucjaT42ej69DR07ez5SE6YLcr26j5XgKa62v1O6oUFZejfdyFin57utT5vz+rc8R307jkPv/56xzszFBmFy2fA0vlRWGJbg7OJxj5FRRV4+19b0C1hjqCHdHlrS+zT05AUPwvJCbNA2idP2oDMDPevIiRfOz81FU8/9bbXOp2fF9dlen0/PNd/CTZvPAmrVbskJs1+geHK5XSMefEjdO08Hd2TyJA5dmJtnU1wuDvINJbn0elv7+Cj1UdAYDl/CgrKMKDfIo918Hk9kt8VR/ekd6GCzPGZSfEz8UyfBY2Coe7mVaQntoclKRKWxPaou3XNuTkNvldX12Hm9O14+ql3wGeTFnfPd2wLQZAYN0vwieW7dJqGmdO2o6ysqkHd/HL7Vo4oS/CQRpbvZh9EjnU6X7MNKn95ju88Az98f92lfm83/ALDjKnb7ISxQ+YgoetMDB+yEv+cvBFvTtookE/0q8ebkzdi/Nh1GDhgiSDU1pFzkJQw2+0IIcM3bjiBca+tq6+DdbGeiePW4dn+iwSTWE+fnu9h7KufuDx3wrh1WLTgM+RkF3mkX7Facf+dl2GJbyuO7Be6Q7qf47E8f7hw/i7iukyrB2N815kYPGg5Jo5bL9qn0qye35i0UfBl8N+X1dOenDAHyfGzceb07y7Pun07tx4MBMLfn10iaGM9ap3OZ/L8tVc+sQ3I+Nno1f1d0SeTJmxwqd/bDb/AMHzwinrUJnadidUfHEZGegFKSytBO8L5KC2pBEf7zz/fwtjXPhUNZUcSDEcO/+q2fTSIqC4c6+JIyswsxHtzdyM+dqYA5PAhq3D3Ti5KS6salC0qKkdVpXs1pD6w5vyPsMRHIL1bNCxdW6Ng/hQoVZ53ZaEU27P7DCj2e3abKzrtjcmbcPHiPRQWloN0OrZXvWbb2G7aFolxMwXvWMeO7d9BlhtKRkcwcPTTbnKmTa3X8Xz/fqkAV58e7wkJwUHav99ClVRNZ7/AMOi5pYIgiqM+vea5Hd2env7999fQpeNU+8iei/dXNq6jHeuqrKwRxlJclxkCDCOGvY/iIs8d6Phfx2ulqhJ5k4bDHNvaBoa4CJRt/xTeLC/OCpYvPVA/wqmnr1xJd6zW6zXtF9pWHAhUM9vTvnMxpBuAIWE2Vq3Qzh+2b8bUNKG+e3aj1JzntT3OP/oHhoHLBEHU3S8MW4V797QvXz954rIwpIh6jpK5s3c5t8nrd0qHBfP2QgXDsCErwVHh66fi2Ocwd34E6clRSE8yIT0pEtU/f+u1Gk7j3nt3lxh5HAg9kt6F2Xzf638cf7x5Mxt9e88XA6HjX97Clk2nXIw8ZzAsX3LAsQqv15yFcVZD+4SA69trvtfyzj8GDIYRw98XRo9zxZ6+79t7RojY/v0WYcb0NFz1YWSxTj3AIBXeR87ovrDEtkJ6jw6wJLRD1pAkcIrp7UMwEIgEAg+qilu3vNsYjvXdupWN/ikLkNJnAV4a9RGuX3eNjAYCBk53KUlU47PJg6GwoBzffH0JFku+T44YlakBg0FRUHFoJ8wd/1y/Iaglvj1yX+kFJf+q+hi3Z7dguJnttqy7m7W1VlAy3vg9CzSS3X0CBcPK5QebDxjcMcCXe4GCwZpxF5nPPi2kAaUCd4i1xMegYEw7KCeHA5Wed3sNFAxa6AyDQQuX7GUCBUPt9UuwJEbCktBeqIh0bvuX1AGls56AsvNhSF+PBmpK3LYoDAY3bBnkYED6ajO4qc6nW4GCAbKMqjMnYOn0sA0U3TrA0vNxVK16AsqeSEgb/wz51ATA6uoQCoPBTVc1azCQHtoNR/YI97Ml3oSsAY/BuqEDZHV/aALix9kugAiD4UEEA2mSJJTuWId7nSOQNyIG8i7uD6m+XSYS0qaHIF/f2oD6MBgasMP2pdlLBjtNSm0tClYsQuGEaCi7oxu+zWbzo5DvNJzjh8HwAIOBpCnVFajZNwbS9gg7GKJsLzE5OsTl/dRhMDzgYIAiQf5ugg0A4v0UUZA2PgQUuL5CIAyGBx0MVfmQdneEtLWd7WUlVA+nXne7e3wYDDqDgZG269cyUVJc6RKkcfMol1sBTy2dalTyL/7xamXxBrrWQPFNp1K2r4GCgckmjOPk5haD3kh3nxbldPps308iUDN65Gps+PdxZHjI+HHHKN7THQw3dtjeRcl3W/37v6Fc/NCtVOCzAwXDnTu56Nt7HgY9twyLF3yGfDcBtkDBsGJZiN3Rd25rzyY+eOAsuiUxM2o2GAJmrp8vH13BoMiQf3jL9mKSLW3EW2tQ6ZkWgmHe3N31gSqmsLGDtX6Ym/hM3wVIjp+FvzwxBalbT7lIx0DAwDTCkAWqmM41ZNBymO9pD+OeO3dLpH0xZYxh1qWLPtfKS1GOYJg/b099CHvokBV+hbBFZbUlkL5IgbS1rTAa5SvrvC6eIRgWztsrgKymu9BT31YAAAQ2SURBVP3uJvLoiaBLF++hT495gu4unaYidUsjIezEOVi6eL+n6lzuU/WsWnmoPvkmKFFLpnAxeULk4SXNwZdHzoOJFY19mPm7+v0vENtpqj0fYrbI9mnsf46/M0y7dPHnIoGD6WMvDF0F1uvPRym8DGnX38S7KeWDPYFq90mqat3MSmKiKXMpGL6Oj50hsqOZR9DYh6ny6z75CgldbbkGzAHds+u0C98cJQOl54erjzRWdf3vlNDM72AaIvsnpXcQ8hlee+Vjofc5ugmIlN7zMGv6DuzedRpfHbuIo1+erz+OfXkBR4/8io0bjmPc2HWiPEcVpQKTWy5euFdPjHpRUVGDw1/8Ul+HWt/XX13EF4fO4dWX1wqmsh4mve7bcwb87ZjDcwlQ1nHzhucQs2L+0i4V/gTljjYJdezYBVsmkT1ZlTyY+nYqtm45BdJ67OiF+nbz+qtjF7Bzx3eYMS0NPZLniiRaJgURSF8ecU35cwQD1QnT6phe71ivyg+eye9DB86K5QrDBq8UUotAYL7FC0NXqizVdPYruWX/Zz+hb6959bmMqsgkkpkTyUwb54ONI3AIAjKQmdWvjFmLigrXNQQ//HBdpMk712H7bst9ZD1qXRwJPJzL8x7j+54+yoVVkDb9CRKlQp026ZKfXyaSVNl+Mp2029LgmbnlSndi11n232eJsvxP7NNTwY5zZzw7goFlCRxKE9bjvv6ZSIqzpeGTxypPOnecio3rj3si3e19v8DAPMT9n/8s0Cc6Im4GEuJm1htWbJS7w9ZpM8SoYB7lb5fMbht18sRviI+d7rYOd/V6ukfwUaW4/UjVkE+Ntc0gMk64LeLuJpNif/7ppkhfi+s8XXQQ6fLUBvW+jfaZiIudgb495+GnH91PX2/cyBIDhZJD/a+WMwGpPoP2yD8nb0J5metAc0eTes8vMPDPNKZ+OXdbzAZef/UTMJTdP2Uh+vVdICxmWs2OB9dBvPiPDzFp/HpsWP+N11S5K5ctQvyn9G5Yh2N9jV3zv0wvS0vlO6pdP0rpHUi7O0E6lOLidnYt7Xrn8m8WrFp+EKR95PD38UzfRW5p79dnAQb0W4xRIz/E+NfXY/myA8LP4lqj7U56er4oT5XSGI3q73zGwAGL8eKoD/HWlC3Ys/u0yNT29AxP9/0Gg1ohDbqszEKxwooMYrbw1SsZDQ7eu34tA/fu2hwuzunhal3qmes2L10yg4t1nOvS+v3y5XRRh0fj8v55EZlE3jn1sT6faRSSdk4vr13LdNte0nD5skWUyc4uajTVj3UyN5JSUyutfAZXYtGhVVjY+HJCT4QGDAZPFTf1+/LlTyEff9kvqdDUafO3fS0TDNZKyN9NAYpv+Mu3B/J/LRMM5elQbu0BpJa3VY83FLdMMHjjSAv+LQyGFtz5zqSHweDMkRb8PQyGFtz5zqT/P6sFdnrsfx30AAAAAElFTkSuQmCC;" parent="4Wbo6gHmPg_REXFT99EW-1" vertex="1">
          <mxGeometry x="170" y="280" width="57.31" height="70" as="geometry" />
        </mxCell>
        <mxCell id="4Wbo6gHmPg_REXFT99EW-7" value="" style="shape=image;verticalLabelPosition=bottom;verticalAlign=top;imageAspect=0;aspect=fixed;image=data:image/svg+xml,PHN2ZyB4bWxucz0iaHR0cDovL3d3dy53My5vcmcvMjAwMC9zdmciIHZlcnNpb249IjEiIHZpZXdCb3g9IjAgMCA0OCA0OCIgZW5hYmxlLWJhY2tncm91bmQ9Im5ldyAwIDAgNDggNDgiPiYjeGE7ICAgIDxwb2x5Z29uIGZpbGw9IiNDRkQ4REMiIHBvaW50cz0iMzUsMzYgMzksMzYgMzksMjIgMjYsMjIgMjYsMTMgMjIsMTMgMjIsMjIgOSwyMiA5LDM2IDEzLDM2IDEzLDI2IDIyLDI2IDIyLDM2IDI2LDM2IDI2LDI2IDM1LDI2Ii8+JiN4YTsgICAgPHJlY3QgeD0iMTciIHk9IjYiIGZpbGw9IiMzRjUxQjUiIHdpZHRoPSIxNCIgaGVpZ2h0PSIxMCIvPiYjeGE7ICAgIDxyZWN0IHg9IjMyIiB5PSIzMiIgZmlsbD0iIzAwQkNENCIgd2lkdGg9IjEwIiBoZWlnaHQ9IjEwIi8+JiN4YTsgICAgPHJlY3QgeD0iNiIgeT0iMzIiIGZpbGw9IiMwMEJDRDQiIHdpZHRoPSIxMCIgaGVpZ2h0PSIxMCIvPiYjeGE7ICAgIDxyZWN0IHg9IjE5IiB5PSIzMiIgZmlsbD0iIzAwQkNENCIgd2lkdGg9IjEwIiBoZWlnaHQ9IjEwIi8+JiN4YTs8L3N2Zz4=;backgroundOutline=1;" parent="4Wbo6gHmPg_REXFT99EW-1" vertex="1">
          <mxGeometry x="500" y="291" width="48" height="48" as="geometry" />
        </mxCell>
        <mxCell id="k-4fscVguYTOxhFp3heV-0" value="" style="shape=image;verticalLabelPosition=bottom;verticalAlign=top;imageAspect=0;aspect=fixed;image=data:image/svg+xml,PHN2ZyB4bWxucz0iaHR0cDovL3d3dy53My5vcmcvMjAwMC9zdmciIHZlcnNpb249IjEiIHZpZXdCb3g9IjAgMCA0OCA0OCIgZW5hYmxlLWJhY2tncm91bmQ9Im5ldyAwIDAgNDggNDgiPiYjeGE7ICAgIDxwb2x5Z29uIGZpbGw9IiMzRjUxQjUiIHBvaW50cz0iNDEsNyA0MSwyNSAyMyw3Ii8+JiN4YTsgICAgPHJlY3QgeD0iMTcuNCIgeT0iMTAuMyIgdHJhbnNmb3JtPSJtYXRyaXgoLS43MDcgLS43MDcgLjcwNyAtLjcwNyAxNy42NjEgNjAuNTY3KSIgZmlsbD0iIzNGNTFCNSIgd2lkdGg9IjgiIGhlaWdodD0iMzIuNyIvPiYjeGE7PC9zdmc+" vertex="1" parent="4Wbo6gHmPg_REXFT99EW-1">
          <mxGeometry x="227.31" y="200" width="66" height="66" as="geometry" />
        </mxCell>
        <mxCell id="k-4fscVguYTOxhFp3heV-1" value="" style="shape=image;verticalLabelPosition=bottom;verticalAlign=top;imageAspect=0;aspect=fixed;image=data:image/svg+xml,PHN2ZyB4bWxucz0iaHR0cDovL3d3dy53My5vcmcvMjAwMC9zdmciIHZlcnNpb249IjEiIHZpZXdCb3g9IjAgMCA0OCA0OCIgZW5hYmxlLWJhY2tncm91bmQ9Im5ldyAwIDAgNDggNDgiPiYjeGE7ICAgIDxwb2x5Z29uIGZpbGw9IiMzRjUxQjUiIHBvaW50cz0iNDEsNyA0MSwyNSAyMyw3Ii8+JiN4YTsgICAgPHJlY3QgeD0iMTcuNCIgeT0iMTAuMyIgdHJhbnNmb3JtPSJtYXRyaXgoLS43MDcgLS43MDcgLjcwNyAtLjcwNyAxNy42NjEgNjAuNTY3KSIgZmlsbD0iIzNGNTFCNSIgd2lkdGg9IjgiIGhlaWdodD0iMzIuNyIvPiYjeGE7PC9zdmc+;direction=south;" vertex="1" parent="4Wbo6gHmPg_REXFT99EW-1">
          <mxGeometry x="450" y="200" width="66" height="66" as="geometry" />
        </mxCell>
        <mxCell id="k-4fscVguYTOxhFp3heV-2" value="" style="shape=image;verticalLabelPosition=bottom;verticalAlign=top;imageAspect=0;aspect=fixed;image=data:image/svg+xml,PHN2ZyB4bWxucz0iaHR0cDovL3d3dy53My5vcmcvMjAwMC9zdmciIHZlcnNpb249IjEiIHZpZXdCb3g9IjAgMCA0OCA0OCIgZW5hYmxlLWJhY2tncm91bmQ9Im5ldyAwIDAgNDggNDgiPiYjeGE7ICAgIDxwb2x5Z29uIGZpbGw9IiMzRjUxQjUiIHBvaW50cz0iNDEsNyA0MSwyNSAyMyw3Ii8+JiN4YTsgICAgPHJlY3QgeD0iMTcuNCIgeT0iMTAuMyIgdHJhbnNmb3JtPSJtYXRyaXgoLS43MDcgLS43MDcgLjcwNyAtLjcwNyAxNy42NjEgNjAuNTY3KSIgZmlsbD0iIzNGNTFCNSIgd2lkdGg9IjgiIGhlaWdodD0iMzIuNyIvPiYjeGE7PC9zdmc+;direction=west;" vertex="1" parent="4Wbo6gHmPg_REXFT99EW-1">
          <mxGeometry x="460" y="370" width="66" height="66" as="geometry" />
        </mxCell>
        <mxCell id="k-4fscVguYTOxhFp3heV-3" value="" style="shape=image;verticalLabelPosition=bottom;verticalAlign=top;imageAspect=0;aspect=fixed;image=data:image/svg+xml,PHN2ZyB4bWxucz0iaHR0cDovL3d3dy53My5vcmcvMjAwMC9zdmciIHZlcnNpb249IjEiIHZpZXdCb3g9IjAgMCA0OCA0OCIgZW5hYmxlLWJhY2tncm91bmQ9Im5ldyAwIDAgNDggNDgiPiYjeGE7ICAgIDxwb2x5Z29uIGZpbGw9IiMzRjUxQjUiIHBvaW50cz0iNDEsNyA0MSwyNSAyMyw3Ii8+JiN4YTsgICAgPHJlY3QgeD0iMTcuNCIgeT0iMTAuMyIgdHJhbnNmb3JtPSJtYXRyaXgoLS43MDcgLS43MDcgLjcwNyAtLjcwNyAxNy42NjEgNjAuNTY3KSIgZmlsbD0iIzNGNTFCNSIgd2lkdGg9IjgiIGhlaWdodD0iMzIuNyIvPiYjeGE7PC9zdmc+;direction=north;" vertex="1" parent="4Wbo6gHmPg_REXFT99EW-1">
          <mxGeometry x="230" y="370" width="66" height="66" as="geometry" />
        </mxCell>
        <mxCell id="k-4fscVguYTOxhFp3heV-4" value="" style="shape=image;verticalLabelPosition=bottom;verticalAlign=top;imageAspect=0;aspect=fixed;image=data:image/svg+xml,PHN2ZyB4bWxucz0iaHR0cDovL3d3dy53My5vcmcvMjAwMC9zdmciIHZlcnNpb249IjEiIHZpZXdCb3g9IjAgMCA0OCA0OCIgZW5hYmxlLWJhY2tncm91bmQ9Im5ldyAwIDAgNDggNDgiPiYjeGE7ICAgIDxnIGZpbGw9IiM2MTYxNjEiPiYjeGE7ICAgICAgICA8cmVjdCB4PSIzNC42IiB5PSIyOC4xIiB0cmFuc2Zvcm09Im1hdHJpeCguNzA3IC0uNzA3IC43MDcgLjcwNyAtMTUuMTU0IDM2LjU4NikiIHdpZHRoPSI0IiBoZWlnaHQ9IjE3Ii8+JiN4YTsgICAgICAgIDxjaXJjbGUgY3g9IjIwIiBjeT0iMjAiIHI9IjE2Ii8+JiN4YTsgICAgPC9nPiYjeGE7ICAgIDxyZWN0IHg9IjM2LjIiIHk9IjMyLjEiIHRyYW5zZm9ybT0ibWF0cml4KC43MDcgLS43MDcgLjcwNyAuNzA3IC0xNS44MzkgMzguMjM5KSIgZmlsbD0iIzM3NDc0RiIgd2lkdGg9IjQiIGhlaWdodD0iMTIuMyIvPiYjeGE7ICAgIDxjaXJjbGUgZmlsbD0iIzY0QjVGNiIgY3g9IjIwIiBjeT0iMjAiIHI9IjEzIi8+JiN4YTsgICAgPHBhdGggZmlsbD0iI0JCREVGQiIgZD0iTTI2LjksMTQuMmMtMS43LTItNC4yLTMuMi02LjktMy4ycy01LjIsMS4yLTYuOSwzLjJjLTAuNCwwLjQtMC4zLDEuMSwwLjEsMS40YzAuNCwwLjQsMS4xLDAuMywxLjQtMC4xIEMxNiwxMy45LDE3LjksMTMsMjAsMTNzNCwwLjksNS40LDIuNWMwLjIsMC4yLDAuNSwwLjQsMC44LDAuNGMwLjIsMCwwLjUtMC4xLDAuNi0wLjJDMjcuMiwxNS4zLDI3LjIsMTQuNiwyNi45LDE0LjJ6Ii8+JiN4YTs8L3N2Zz4=;labelBackgroundColor=none;backgroundOutline=0;" vertex="1" parent="4Wbo6gHmPg_REXFT99EW-1">
          <mxGeometry x="526" y="302" width="48" height="48" as="geometry" />
        </mxCell>
      </root>
    </mxGraphModel>
  </diagram>
</mxfile>
